<?xml version="1.0" encoding="utf-8"?>
<!-- Generator: Adobe Illustrator 27.0.1, SVG Export Plug-In . SVG Version: 6.00 Build 0)  -->
<svg version="1.1" id="Layer_1" xmlns="http://www.w3.org/2000/svg" xmlns:xlink="http://www.w3.org/1999/xlink" x="0px" y="0px"
	 viewBox="0 0 54.3 50" style="enable-background:new 0 0 54.3 50;" xml:space="preserve">
<style type="text/css">
	.st0{fill:currentColor;}
</style>
<path class="st0" d="M23.9,10c0.2,0.2,0.3,0.4,0.3,0.7c0,0.5-0.4,0.9-0.9,0.9H9.4c-0.5,0-0.9-0.4-0.9-0.9s0.4-0.9,0.9-0.9h13.9
	C23.5,9.8,23.7,9.8,23.9,10z M23.2,14.8H9.4c-0.5,0-0.9,0.4-0.9,0.9c0,0.5,0.4,0.9,0.9,0.9h13.8c0.5,0,0.9-0.4,0.9-0.9
	c0-0.2-0.1-0.5-0.3-0.7C23.7,14.9,23.5,14.8,23.2,14.8z M23.2,19.8H9.4c-0.5,0-0.9,0.4-0.9,0.9s0.4,0.9,0.9,0.9h13.8
	c0.5,0,0.9-0.4,0.9-0.9c0-0.2-0.1-0.5-0.3-0.7C23.7,19.9,23.5,19.8,23.2,19.8z M23.2,24.8H9.4c-0.5,0-0.9,0.4-0.9,0.9
	s0.4,0.9,0.9,0.9h13.8c0.5,0,0.9-0.4,0.9-0.9C24.2,25.2,23.7,24.8,23.2,24.8z M23.2,29.8H9.4c-0.5,0-0.9,0.4-0.9,0.9
	s0.4,0.9,0.9,0.9h13.8c0.5,0,0.9-0.4,0.9-0.9c0-0.2-0.1-0.5-0.3-0.7C23.7,29.9,23.5,29.8,23.2,29.8z M23.2,34.8H9.4
	c-0.5,0-0.9,0.4-0.9,0.9s0.4,0.9,0.9,0.9h13.8c0.5,0,0.9-0.4,0.9-0.9c0-0.2-0.1-0.5-0.3-0.7C23.7,34.9,23.5,34.8,23.2,34.8z
	 M31.1,11.6h5.3c0.5,0,0.9-0.4,0.9-0.9s-0.4-0.9-0.9-0.9h-5.3c-0.5,0-0.9,0.4-0.9,0.9S30.6,11.6,31.1,11.6z M31.1,16.6h5.3
	c0.5,0,0.9-0.4,0.9-0.9s-0.4-0.9-0.9-0.9h-5.3c-0.5,0-0.9,0.4-0.9,0.9S30.6,16.6,31.1,16.6z M31.1,21.6h5.3c0.5,0,0.9-0.4,0.9-0.9
	s-0.4-0.9-0.9-0.9h-5.3c-0.5,0-0.9,0.4-0.9,0.9S30.6,21.6,31.1,21.6z M31.1,26.6h5.3c0.5,0,0.9-0.4,0.9-0.9s-0.4-0.9-0.9-0.9h-5.3
	c-0.5,0-0.9,0.4-0.9,0.9C30.1,26.2,30.6,26.6,31.1,26.6z M31.1,31.6h5.5c0.5,0,0.9-0.4,0.9-0.9s-0.4-0.9-0.9-0.9h-5.5
	c-0.5,0-0.9,0.4-0.9,0.9S30.6,31.6,31.1,31.6z M30.1,35.7c0,0.5,0.4,0.9,0.9,0.9h7c0.5,0,0.9-0.4,0.9-0.9s-0.4-0.9-0.9-0.9h-7
	C30.6,34.8,30.1,35.2,30.1,35.7z M54.2,9.1v36.1c0,0.5-0.4,0.9-0.9,0.9H32.6c-0.4,2.2-2.4,3.7-4.6,3.7h-1.8c-2.2,0-4.1-1.6-4.6-3.7
	H1.1c-0.5,0-0.9-0.4-0.9-0.9V9.1c0-0.3,0.1-0.5,0.3-0.7l4.4-3.6c0.2-0.1,0.4-0.2,0.5-0.2H23c1.6,0,3.1,0.8,4.1,2.1
	c0.9-1.3,2.4-2.1,4.1-2.1h7.9V2.3c0-1.2,1-2.1,2.1-2.1h3.5c0.6,0,1.1,0.2,1.5,0.6s0.6,1,0.6,1.5v2.3h2c0.1,0,0.2,0,0.3,0.1h0.1
	c0.1,0,0.1,0.1,0.2,0.1l4.4,3.6C54.1,8.5,54.2,8.8,54.2,9.1z M45,29.1V2.3c0-0.1,0-0.2-0.1-0.2C44.9,2,44.8,2,44.7,2h-3.5
	c-0.1,0-0.1,0-0.2,0.1c0,0-0.1,0.1-0.1,0.2v26.8L45,29.1z M41.6,31l1.4,2.7l1.4-2.7H41.6z M28.1,9.6v30.3h19.8V6.5h-1.1v23.7
	c0,0.1,0,0.2,0,0.2l0,0l0,0l0,0l0,0L43.9,36c-0.2,0.3-0.5,0.5-0.8,0.5c-0.4,0-0.7-0.2-0.8-0.5l-2.9-5.8c0-0.1-0.1-0.2-0.1-0.3l0,0
	V6.3h-7.9c-1.7,0-3.3,1.3-3.3,3L28.1,9.6z M48.5,41.8H5.8l-2.5,2.5h19.2c0.5,0,0.9,0.4,0.9,0.9c0,1.5,1.3,2.8,2.8,2.8H28
	c1.5,0,2.8-1.3,2.8-2.8c0-0.5,0.4-0.9,0.9-0.9H51L48.5,41.8z M26.2,39.9V9.5c0-1.7-1.4-3.1-3.1-3.1H6.4v33.4L26.2,39.9L26.2,39.9z
	 M2,9.5v33.4l2.5-2.5v-33L2,9.5z M49.8,7.5v33l2.5,2.5V9.5L49.8,7.5z"/>
</svg>
