<?xml version="1.0" encoding="utf-8"?>
<!-- Generator: Adobe Illustrator 27.0.1, SVG Export Plug-In . SVG Version: 6.00 Build 0)  -->
<svg version="1.1" id="Layer_1" xmlns="http://www.w3.org/2000/svg" xmlns:xlink="http://www.w3.org/1999/xlink" x="0px" y="0px"
	 viewBox="0 0 54.3 49" style="enable-background:new 0 0 54.3 49;" xml:space="preserve">
<style type="text/css">
	.st0{fill:currentColor;}
</style>
<path class="st0" d="M54.1,14.4c0,4.1-1.6,8.6-4.7,13.4c-0.1,0.2-0.4,0.4-0.7,0.5c-0.4,0.1-0.7,0-0.9-0.1c-0.3-0.1-0.4-0.4-0.5-0.7
	l0,0c0-0.3,0-0.7,0.2-0.9c2.9-4.5,4.3-8.5,4.3-12.1c0-2.9-1.1-5.8-3-8c-2-2.2-4.8-3.6-7.6-3.9c-3-0.3-5.9,0.4-8.3,2.1
	c-2.3,1.7-4,4.3-4.7,7.1c-0.1,0.6-0.6,0.9-1.2,0.9c-0.6,0-1-0.4-1.2-0.9c-0.7-2.9-2.4-5.4-4.8-7c-2.3-1.6-5.2-2.4-8.2-2
	c-2.8,0.3-5.5,1.7-7.5,3.9c-1.9,2.1-3,4.9-3,7.9c0,6,3.8,12.8,11.2,20.3c3.8,3.9,8.4,7.7,13.6,11.4c0.8-0.5,2.1-1.4,4-2.9l0,0
	c0.6-0.2,1.2-0.1,1.5,0.3c0.3,0.4,0.3,1-0.1,1.5l0,0c-2.7,2.2-4.8,3.5-4.9,3.5c-0.2,0.1-0.4,0.2-0.7,0.2c-0.1,0-0.3-0.1-0.6-0.2
	C22.1,45.6,17.6,42,13.5,38C4.6,29.5,0.2,21.6,0.2,14.5c0-3.3,1.2-6.6,3.3-9.1c2.1-2.6,5-4.3,8.3-4.9c3.3-0.6,6.6-0.1,9.5,1.5
	c2.4,1.3,4.5,3.5,5.9,6.1c1.1-2.2,2.7-4.1,4.7-5.5c2.4-1.6,5.1-2.4,8-2.4c3.8,0,7.4,1.5,10.1,4.2C52.7,7.1,54.2,10.7,54.1,14.4z
	 M43.1,29v6.4l0.8,0.4c1.5,0.8,3.6,2.1,3.6,4.8c0,2.3-1.7,4.5-4.4,5.3v1.8c0,0.6-0.4,1.2-1.2,1.2c-0.6,0-1.2-0.4-1.2-1.2v-1.4h-0.3
	v1.4c0,0.6-0.6,1.2-1.2,1.2c-0.6,0-1.2-0.4-1.2-1.2v-1.9c-2.6-0.8-4.4-3-4.4-5.3c0-0.6,0.4-1.2,1.2-1.2c0.6,0,1.2,0.4,1.2,1.2
	c0,1.1,0.8,2.1,2,2.7v-7.1c-2.3-0.8-4.4-2-4.4-4.5c0-2.3,1.7-4.5,4.4-5.3v-1.9c0-0.6,0.6-1.2,1.2-1.2c0.6,0,1.2,0.4,1.2,1.2V26h0.3
	v-1.4c0-0.6,0.4-1.2,1.2-1.2c0.6,0,1.2,0.4,1.2,1.2v1.9c2.6,0.8,4.4,3,4.4,5.3c0,0.6-0.4,1.2-1.2,1.2c-0.6,0-1.2-0.4-1.2-1.2
	C45.2,30.6,44.4,29.6,43.1,29z M38.1,29c-1.3,0.6-2,1.6-2,2.7c0,0.7,0.6,1.3,2,1.9V29z M40.8,37l-0.3-0.1v6.9h0.3V37z M40.8,28.4
	c-0.1,0-0.2,0-0.3,0v6.1l0.3,0.1V28.4z M43.1,38v5.3c1.2-0.6,1.9-1.5,2-2.4l0-0.3C45.2,39.5,44.5,38.7,43.1,38z"/>
</svg>
