<?xml version="1.0" encoding="utf-8"?>
<!-- Generator: Adobe Illustrator 27.0.1, SVG Export Plug-In . SVG Version: 6.00 Build 0)  -->
<svg version="1.1" id="Layer_1" xmlns="http://www.w3.org/2000/svg" xmlns:xlink="http://www.w3.org/1999/xlink" x="0px" y="0px"
	 viewBox="0 0 54.3 54.2" style="enable-background:new 0 0 54.3 54.2;" xml:space="preserve">
<style type="text/css">
	.st0{fill:currentColor;}
</style>
<path class="st0" d="M49.3,0L49.3,0H5C2.2,0,0,2.2,0,5v44.3c0,2.7,2.2,5,5,5h44.3c2.7,0,5-2.2,5-5V5C54.2,2.2,52,0,49.3,0z M52.3,5l-0.1,44.3
	c0,1.6-1.4,3-3,3H5c-1.6,0-3-1.4-3-3V5c0-1.6,1.4-3,3-3h44.3C50.9,2,52.3,3.4,52.3,5z M45,25.7c-0.3-0.2-0.7-0.2-1,0l-2.6,1.5V13.4
	c0-0.1,0-0.1-3.4-5.2c-0.2-0.3-0.5-0.4-0.9-0.4c-0.3,0-0.6,0.2-0.7,0.4c-3.4,4.9-3.4,5-3.4,5.1V32l-2.8,1.8v-1.2c0-0.4,0-0.8,0-1.2
	c0-0.4,0-0.8,0-1.2c0-3.2-0.5-6.4-1.4-8.2c0.6-0.2,0.9-0.7,0.9-1.2v-1.3c0-0.5-0.3-1-0.7-1.2c0.8-0.8,1.2-2.1,1.2-3.7
	C30,10,27.5,8.5,26.9,8.2c-0.5-0.2-0.9,0-1.3,0.4c-1.1,1.8-3.4,6.2-2.9,7.9c0.2,0.7,0.6,1.3,1.1,1.7c-0.4,0.2-0.7,0.7-0.7,1.1v1.3
	c0,0.6,0.4,1.1,0.9,1.2c-0.9,1.9-1.5,5-1.5,8.2c0,0.5,0,1,0,1.5s0,0.9,0,1.3v0.1c-0.1,2-0.1,3.8,0.3,5.1L20,39.7V11.1
	c0-0.6-0.4-1-1-1h-7.3c-0.6,0-1,0.4-1,1v34L10,45.5c-0.4,0.2-0.6,0.7-0.5,1.1c0.1,0.4,0.5,0.7,1,0.7h34c0.6,0,1-0.4,1-1V26.6
	C45.5,26.2,45.3,25.9,45,25.7z M26.9,17c-0.4,0.1-1,0.1-1.4-0.1c-0.5-0.3-0.8-0.7-0.9-1.1c-0.1-0.5,0.7-2.6,2.2-5.4
	c0.8,1,1.3,2.3,1.4,4C28.2,15.4,28.1,16.7,26.9,17z M26.4,21.9c0.4,0.1,1.7,2.8,1.7,8.2c0,0.9,0,1.7,0.1,2.5c0,0.3,0,0.6,0,0.9
	c0,0.5,0,1,0,1.5l-3.6,2c-0.2-1-0.1-2.4-0.1-4v-0.1c0.1-0.9,0.1-1.9,0.1-2.9C24.6,24.7,26,22,26.4,21.9z M35.9,12.5l1.4-1.9l1.3,1.9
	H35.9z M38.3,29.1V14.4h1.2v13.9L38.3,29.1z M35,31V14.4h1.3v15.9L35,31z M14.2,45.4l20.3-11.9l6.4-3.8l2.6-1.5v17.1L14.2,45.4
	L14.2,45.4z M14.4,40.1c0-0.6-0.4-1-1-1h-0.7V38h0.7c0.6,0,1-0.4,1-1s-0.4-1-1-1h-0.7v-1.1h1.8c0.6,0,1-0.4,1-1s-0.4-1-1-1h-1.8
	v-1.1h0.7c0.6,0,1-0.4,1-1s-0.4-1-1-1h-0.7v-1.1h0.7c0.6,0,1-0.4,1-1s-0.4-1-1-1h-0.7v-1.1h1.8c0.6,0,1-0.4,1-1s-0.4-1-1-1h-1.8
	v-1.1h0.7c0.6,0,1-0.4,1-1s-0.4-1-1-1h-0.7v-1.1h0.7c0.6,0,1-0.4,1-1s-0.4-1-1-1h-0.7v-1.1h1.8c0.6,0,1-0.4,1-1s-0.4-1-1-1h-1.8V12
	H18v28.3l-5.3,3.4v-2.6h0.7C14,41.1,14.4,40.7,14.4,40.1z M39.7,34c-0.3-0.2-0.7-0.2-1,0l-10.9,6.5c-0.4,0.2-0.6,0.7-0.5,1.1
	c0.1,0.4,0.5,0.7,1,0.7h10.9c0.6,0,1-0.4,1-1v-6.5C40.2,34.5,40,34.1,39.7,34z M38.2,36.5v3.8h-6.4L38.2,36.5z"/>
</svg>
