<?xml version="1.0" encoding="UTF-8"?>
<svg width="126px" height="126px" viewBox="0 0 130 126" version="1.1" xmlns="http://www.w3.org/2000/svg" xmlns:xlink="http://www.w3.org/1999/xlink">
<title>warning</title>
<style type="text/css">
    .st0{fill:currentColor;}
</style>
    <g id="Page-1" stroke="none" stroke-width="1" fill="none" fill-rule="evenodd">
        <g id="warning" transform="translate(0.428000, 0.429000)" fill="currentColor" fill-rule="nonzero">
            <path d="M116.752,31.163 C111.157,21.577 103.567,13.987 93.981,8.392 C84.393,2.797 73.926,-3.55271368e-15 62.573,-3.55271368e-15 C51.221,-3.55271368e-15 40.752,2.797 31.165,8.392 C21.578,13.986 13.988,21.576 8.393,31.163 C2.797,40.75 0,51.22 0,62.571 C0,73.922 2.798,84.391 8.392,93.979 C13.987,103.563 21.577,111.155 31.164,116.75 C40.751,122.345 51.22,125.142 62.572,125.142 C73.924,125.142 84.394,122.345 93.98,116.75 C103.566,111.156 111.156,103.565 116.751,93.979 C122.345,84.391 125.142,73.921 125.142,62.571 C125.142,51.22 122.345,40.749 116.752,31.163 Z M73.002,101.596 C73.002,102.357 72.756,102.994 72.268,103.51 C71.78,104.026 71.182,104.283 70.475,104.283 L54.832,104.283 C54.126,104.283 53.501,104.012 52.958,103.469 C52.415,102.926 52.144,102.301 52.144,101.596 L52.144,86.117 C52.144,85.411 52.415,84.786 52.958,84.243 C53.501,83.7 54.126,83.429 54.832,83.429 L70.475,83.429 C71.182,83.429 71.781,83.687 72.268,84.202 C72.756,84.72 73.002,85.356 73.002,86.117 L73.002,101.596 Z M72.838,73.57 C72.783,74.113 72.499,74.589 71.984,74.996 C71.467,75.403 70.83,75.606 70.07,75.606 L54.997,75.606 C54.236,75.606 53.584,75.403 53.041,74.996 C52.498,74.589 52.226,74.113 52.226,73.57 L50.841,22.975 C50.841,22.322 51.112,21.834 51.655,21.508 C52.199,21.074 52.851,20.856 53.611,20.856 L71.537,20.856 C72.298,20.856 72.949,21.073 73.492,21.508 C74.035,21.834 74.305,22.323 74.305,22.975 L72.838,73.57 Z" id="Shape"></path>
        </g>
    </g>
</svg>
