<?xml version="1.0" encoding="utf-8"?>
<!-- Generator: Adobe Illustrator 27.0.1, SVG Export Plug-In . SVG Version: 6.00 Build 0)  -->
<svg version="1.1" id="Layer_1" xmlns="http://www.w3.org/2000/svg" xmlns:xlink="http://www.w3.org/1999/xlink" x="0px" y="0px"
	 viewBox="0 0 54.3 54.2" style="enable-background:new 0 0 54.3 54.2;" xml:space="preserve">
<style type="text/css">
	.st0{fill:currentColor;}
</style>
<path class="st0" d="M13.6,29.1C6.1,29.1,0,34.3,0,40.7c0,1.5,0.4,3,1,4.4c0.7,1.4,1.6,2.6,2.8,3.6c-0.1,1.4-0.7,2.8-1.6,3.9
	c-0.2,0.2-0.3,0.5-0.3,0.8c0,0.3,0.2,0.5,0.4,0.7c0.2,0.2,0.5,0.2,0.8,0.1c2.1-0.6,4-1.5,5.9-2.6c1.5,0.4,3,0.7,4.5,0.7
	c7.5,0,13.6-5.2,13.6-11.6S21.1,29.1,13.6,29.1L13.6,29.1z M13.6,50.4c-1.5,0-2.9-0.2-4.3-0.7c-0.3-0.1-0.6-0.1-0.8,0.1
	c-1.1,0.6-2.2,1.2-3.3,1.7c0.3-1,0.6-2,0.7-3c0-0.3-0.1-0.6-0.3-0.8c-1.1-0.8-1.9-1.9-2.5-3.1S2,42,1.9,40.7c0-5.3,5.2-9.7,11.6-9.7
	s11.6,4.4,11.6,9.7S20,50.4,13.6,50.4L13.6,50.4z M50.5,19.6c1.2-1,2.1-2.2,2.8-3.6c0.7-1.4,1-2.9,1-4.4C54.3,5.2,48.2,0,40.7,0
	S27.2,5.2,27.2,11.6s6.1,11.6,13.6,11.6c1.5,0,3-0.2,4.5-0.7c1.9,1.1,3.8,1.9,5.9,2.6c0.3,0.1,0.6,0,0.8-0.1
	c0.2-0.2,0.4-0.4,0.4-0.7c0-0.3-0.1-0.6-0.3-0.8C51.2,22.4,50.6,21.1,50.5,19.6L50.5,19.6z M49.2,22.4c-1.2-0.5-2.3-1-3.3-1.7
	c-0.2-0.1-0.3-0.1-0.5-0.1c-0.1,0-0.2,0-0.3,0.1c-1.4,0.5-2.8,0.7-4.3,0.7c-6.4,0-11.6-4.4-11.6-9.7s5.2-9.7,11.6-9.7
	s11.6,4.4,11.6,9.7c0,1.3-0.3,2.7-1,3.8c-0.6,1.2-1.5,2.2-2.5,3.1c-0.2,0.2-0.4,0.5-0.3,0.8C48.6,20.4,48.8,21.4,49.2,22.4
	L49.2,22.4z M14.5,35.5c-0.1-0.2-0.3-0.4-0.5-0.5c-0.2-0.1-0.5-0.1-0.7,0c-0.2,0.1-0.4,0.3-0.5,0.5l-3.9,9.7c-0.1,0.3-0.1,0.7,0.1,1
	c0.2,0.3,0.6,0.4,0.9,0.4c0.3,0,0.6-0.3,0.8-0.6l0.9-2.3h4.1l0.9,2.3c0.1,0.3,0.4,0.6,0.8,0.6c0.3,0,0.7-0.1,0.9-0.4
	c0.2-0.3,0.3-0.6,0.1-1L14.5,35.5z M12.3,41.7l1.3-3.2l1.3,3.2H12.3z M44.2,30.1c0.2,0.2,0.3,0.4,0.3,0.7c0,0.3-0.1,0.5-0.3,0.7
	c-0.2,0.2-0.4,0.3-0.7,0.3c-0.3,0-0.5-0.1-0.7-0.3l-1.1-1.1v7.4c0,1.3-0.5,2.5-1.4,3.4c-0.9,0.9-2.1,1.4-3.4,1.4h-6.8
	c-0.3,0-0.7-0.2-0.8-0.5c-0.2-0.3-0.2-0.7,0-1c0.2-0.3,0.5-0.5,0.8-0.5h6.8c0.8,0,1.5-0.3,2.1-0.9c0.5-0.5,0.9-1.3,0.9-2.1v-7.4
	l-1.1,1.1c-0.2,0.2-0.6,0.3-0.9,0.2c-0.3-0.1-0.6-0.3-0.7-0.7c-0.1-0.3,0-0.7,0.2-0.9l2.7-2.7c0.2-0.2,0.4-0.3,0.7-0.3
	s0.5,0.1,0.7,0.3L44.2,30.1z M10.1,24.1c-0.2-0.2-0.3-0.4-0.3-0.7c0-0.3,0.1-0.5,0.3-0.7c0.2-0.2,0.4-0.3,0.7-0.3
	c0.3,0,0.5,0.1,0.7,0.3l1.1,1.1v-7.4c0-1.3,0.5-2.5,1.4-3.4c0.9-0.9,2.1-1.4,3.4-1.4h6.8c0.3,0,0.7,0.2,0.8,0.5c0.2,0.3,0.2,0.7,0,1
	c-0.2,0.3-0.5,0.5-0.8,0.5h-6.8c-0.8,0-1.5,0.3-2.1,0.9c-0.5,0.5-0.9,1.3-0.9,2.1v7.4l1.1-1.1c0.2-0.2,0.4-0.3,0.7-0.3
	c0.3,0,0.5,0.1,0.7,0.3c0.2,0.2,0.3,0.4,0.3,0.7c0,0.3-0.1,0.5-0.3,0.7l-2.7,2.7c-0.2,0.2-0.4,0.3-0.7,0.3s-0.5-0.1-0.7-0.3
	L10.1,24.1z M45.6,7.7h-3.9v-1c0-0.3-0.2-0.7-0.5-0.8c-0.3-0.2-0.7-0.2-1,0c-0.3,0.2-0.5,0.5-0.5,0.8v1h-3.9c-0.3,0-0.7,0.2-0.8,0.5
	c-0.2,0.3-0.2,0.7,0,1c0.2,0.3,0.5,0.5,0.8,0.5h1.2c0.5,1.6,1.2,3.1,2.3,4.3c-0.8,0.7-1.8,1.2-2.8,1.5c-0.3,0.1-0.5,0.2-0.6,0.5
	c-0.1,0.2-0.1,0.5-0.1,0.8c0.1,0.2,0.3,0.5,0.5,0.6c0.2,0.1,0.5,0.1,0.8,0c1.3-0.4,2.5-1.1,3.6-2c1.1,0.9,2.3,1.6,3.6,2
	c0.2,0.1,0.5,0.1,0.8,0c0.2-0.1,0.4-0.3,0.5-0.6c0.1-0.2,0.1-0.5-0.1-0.8c-0.1-0.2-0.3-0.4-0.6-0.5c-1-0.3-2-0.9-2.8-1.5
	c1.1-1.3,1.8-2.8,2.3-4.3h1.2c0.3,0,0.7-0.2,0.8-0.5c0.2-0.3,0.2-0.7,0-1C46.2,7.9,45.9,7.7,45.6,7.7L45.6,7.7z M40.7,12.6
	c-0.7-0.9-1.3-1.9-1.6-3h3.3C42,10.7,41.4,11.7,40.7,12.6L40.7,12.6z"/>
</svg>
