<svg width="60" height="60" viewBox="0 0 60 60" fill="none" xmlns="http://www.w3.org/2000/svg">
<g clip-path="url(#clip0_5418_194994)">
<path d="M58.8 34.6999C58.8 34.4999 58.6 34.2999 58.4 34.2999C58.2 34.1999 58 34.2999 57.9 34.4999L52.1 41.7999C52 41.9999 52 42.1999 52.1 42.3999C52.2 42.5999 52.4 42.6999 52.6 42.5999L54.9 41.9999C50.3 51.6999 40.7 57.7999 29.8 57.7999C16.2 57.7999 4.69998 47.9999 2.39998 34.5999C2.29998 33.9999 1.69998 33.5999 1.19998 33.6999C0.599982 33.7999 0.199982 34.3999 0.299982 34.8999C2.69998 49.3999 15.1 59.8999 29.8 59.8999C41.6 59.8999 52.1 53.0999 57 42.3999L58.8 44.2999C58.9 44.3999 59 44.4999 59.2 44.4999C59.3 44.4999 59.3 44.4999 59.4 44.4999C59.6 44.3999 59.7 44.1999 59.7 43.9999L58.8 34.6999Z" fill="currentColor"/>
<path d="M30.1998 0.0996094C18.2998 0.0996094 7.7998 6.89961 2.9998 17.4996L1.1998 15.5996C1.0998 15.3996 0.799805 15.3996 0.599805 15.4996C0.399805 15.5996 0.299805 15.7996 0.299805 15.9996L1.1998 25.2996C1.1998 25.4996 1.3998 25.6996 1.5998 25.6996H1.6998C1.8998 25.6996 1.9998 25.5996 2.0998 25.4996L7.8998 18.1996C7.9998 17.9996 7.9998 17.7996 7.8998 17.5996C7.7998 17.3996 7.5998 17.2996 7.3998 17.3996L5.0998 17.9996C9.6998 8.39961 19.3998 2.19961 30.1998 2.19961C43.7998 2.19961 55.3998 11.9996 57.5998 25.3996C57.6998 25.8996 58.0998 26.2996 58.6998 26.2996C58.7998 26.2996 58.7998 26.2996 58.8998 26.2996C59.4998 26.1996 59.8998 25.5996 59.7998 25.0996C57.2998 10.5996 44.8998 0.0996094 30.1998 0.0996094Z" fill="currentColor"/>
<path d="M30.4999 20.2994H34.1999C35.6999 20.2994 36.8999 21.4994 36.8999 22.9994V23.7994L36.6999 23.5994C36.2999 23.1994 35.6999 23.1994 35.2999 23.5994C34.8999 23.9994 34.8999 24.5994 35.2999 24.9994L37.0999 26.7994C37.1999 26.8994 37.2999 26.8994 37.2999 26.8994C37.3999 26.8994 37.4999 26.9994 37.6999 26.9994C37.7999 26.9994 37.9999 26.9994 38.0999 26.8994C38.1999 26.8994 38.2999 26.7994 38.3999 26.6994L40.1999 24.8994C40.5999 24.4994 40.5999 23.8994 40.1999 23.4994C39.7999 23.0994 39.1999 23.0994 38.7999 23.4994L38.6999 23.5994V22.9994C38.6999 20.3994 36.5999 18.3994 34.0999 18.3994H30.3999C29.8999 18.3994 29.3999 18.7994 29.3999 19.3994C29.4999 19.8994 29.8999 20.2994 30.4999 20.2994Z" fill="currentColor"/>
<path d="M29.4999 39.2994H25.7999C24.2999 39.2994 23.0999 38.0994 23.0999 36.5994V35.7994L23.2999 35.9994C23.6999 36.3994 24.2999 36.3994 24.6999 35.9994C25.0999 35.5994 25.0999 34.9994 24.6999 34.5994L22.8999 32.7994C22.7999 32.6994 22.6999 32.5994 22.5999 32.5994C22.3999 32.4994 22.0999 32.4994 21.7999 32.5994C21.6999 32.5994 21.5999 32.6994 21.4999 32.7994L19.6999 34.5994C19.2999 34.9994 19.2999 35.5994 19.6999 35.9994C20.0999 36.3994 20.6999 36.3994 21.0999 35.9994L21.1999 35.8994V36.6994C21.1999 39.2994 23.2999 41.2994 25.7999 41.2994H29.4999C29.9999 41.2994 30.4999 40.8994 30.4999 40.2994C30.4999 39.7994 30.0999 39.2994 29.4999 39.2994Z" fill="currentColor"/>
<path d="M28.1998 27.0996C28.3998 27.0996 28.5998 26.8996 28.5998 26.6996V12.4996C28.5998 12.2996 28.3998 12.0996 28.1998 12.0996H12.6998C12.4998 12.0996 12.2998 12.2996 12.2998 12.4996V26.5996C12.2998 26.7996 12.4998 26.9996 12.6998 26.9996H14.0998V31.0996C14.0998 31.0996 14.0998 31.0996 14.0998 31.1996C14.0998 31.2996 14.0998 31.2996 14.1998 31.3996L14.2998 31.4996C14.2998 31.4996 14.2998 31.4996 14.3998 31.4996L15.0998 31.8996C15.1998 31.8996 15.1998 31.8996 15.2998 31.8996C15.2998 31.8996 15.2998 31.8996 15.3998 31.8996C15.4998 31.8996 15.4998 31.8996 15.5998 31.7996L21.6998 26.9996H28.1998V27.0996ZM21.1998 25.2996C21.0998 25.2996 20.9998 25.2996 20.8998 25.3996L15.7998 29.3996V26.1996V25.6996C15.7998 25.4996 15.5998 25.2996 15.3998 25.2996H13.9998V13.7996H26.7998V25.2996H21.1998Z" fill="currentColor"/>
<path d="M47.2999 28H31.7999C31.5999 28 31.3999 28.2 31.3999 28.4V42.5C31.3999 42.7 31.5999 42.9 31.7999 42.9H38.2999L44.3999 47.7C44.3999 47.7 44.3999 47.7 44.4999 47.7C44.5999 47.7 44.5999 47.8 44.6999 47.8H44.7999C44.7999 47.8 44.7999 47.8 44.8999 47.8L45.5999 47.5C45.5999 47.5 45.5999 47.5 45.6999 47.5L45.7999 47.4C45.7999 47.3 45.8999 47.3 45.8999 47.2C45.8999 47.2 45.8999 47.2 45.8999 47.1V43H47.2999C47.4999 43 47.6999 42.8 47.6999 42.6V28.5C47.6999 28.2 47.5999 28 47.2999 28ZM44.1999 41.7V45.4L39.1999 41.5L39.0999 41.4C38.9999 41.3 38.8999 41.3 38.7999 41.3H33.0999V29.8H45.9999V41.3H44.5999C44.2999 41.2 44.1999 41.4 44.1999 41.7Z" fill="currentColor"/>
<path d="M40.2999 32.4998C40.2999 32.3998 40.1999 32.2998 39.9999 32.2998H38.9999C38.8999 32.2998 38.7999 32.3998 38.6999 32.4998L36.3999 38.3998C36.3999 38.4998 36.3999 38.5998 36.3999 38.6998C36.4999 38.7998 36.4999 38.7998 36.5999 38.7998H37.2999C37.3999 38.7998 37.5999 38.7998 37.6999 38.6998C37.7999 38.5998 37.8999 38.4998 37.8999 38.3998L38.2999 37.2998H40.4999L40.8999 38.3998C40.8999 38.4998 40.9999 38.5998 41.0999 38.6998C41.1999 38.7998 41.2999 38.7998 41.4999 38.7998H42.1999C42.2999 38.7998 42.3999 38.7998 42.3999 38.6998C42.4999 38.5998 42.4999 38.4998 42.3999 38.3998L40.2999 32.4998ZM38.9999 35.9998L39.5999 34.3998L40.1999 35.9998H38.9999Z" fill="currentColor"/>
<path d="M23.6999 21.9994C22.7999 21.7994 22.0999 21.4994 21.4999 21.0994C21.9999 20.4994 22.3999 19.7994 22.7999 18.8994H23.5999C23.7999 18.8994 23.8999 18.7994 23.8999 18.5994V17.7994C23.8999 17.5994 23.7999 17.4994 23.5999 17.4994H21.1999V16.6994C21.1999 16.4994 21.0999 16.3994 20.8999 16.3994H19.9999C19.7999 16.3994 19.6999 16.4994 19.6999 16.6994V17.4994H17.2999C17.0999 17.4994 16.9999 17.5994 16.9999 17.7994V18.5994C16.9999 18.7994 17.0999 18.8994 17.2999 18.8994H18.0999C18.3999 19.7994 18.7999 20.4994 19.2999 21.0994C18.6999 21.4994 17.8999 21.7994 17.0999 22.0994C16.9999 22.0994 16.8999 22.1994 16.8999 22.2994C16.8999 22.3994 16.8999 22.4994 16.9999 22.5994C17.1999 22.7994 17.3999 23.1994 17.4999 23.2994C17.4999 23.3994 17.5999 23.4994 17.7999 23.4994H17.8999C18.8999 23.1994 19.7999 22.7994 20.4999 22.1994C21.1999 22.7994 22.0999 23.1994 23.0999 23.4994C23.1999 23.4994 23.3999 23.4994 23.3999 23.3994C23.4999 23.1994 23.7999 22.7994 23.8999 22.6994C23.9999 22.5994 23.9999 22.4994 23.9999 22.3994C23.8999 22.0994 23.7999 22.0994 23.6999 21.9994ZM21.1999 18.8994C20.9999 19.3994 20.6999 19.7994 20.3999 20.0994C20.0999 19.6994 19.7999 19.2994 19.5999 18.8994H21.1999Z" fill="currentColor"/>
</g>
<defs>
<clipPath id="clip0_5418_194994">
<rect width="60" height="60" fill="currentColor"/>
</clipPath>
</defs>
</svg>
