<svg width="60" height="45" viewBox="0 0 60 45" fill="none" xmlns="http://www.w3.org/2000/svg">
<path d="M40.8336 4.37475e-05C36.1135 4.37475e-05 31.7897 1.23673 28.4117 3.35944C26.8536 3.11822 25.2431 2.99503 23.5938 2.99503C17.205 2.99503 11.4056 4.89289 7.10947 8.04718C2.81322 11.2015 0 15.72 0 20.7812C0 26.9306 3.98099 31.9991 9.99978 35.1043V43.3332C10.0032 43.745 10.1587 44.1409 10.4365 44.445C10.7144 44.7486 11.0952 44.939 11.5048 44.9791C11.9149 45.0192 12.3249 44.9059 12.6561 44.6612L21.3542 38.3331H23.5936C32.2072 38.3331 39.8685 35.1107 44.0367 29.7135L49.0626 33.047C49.3986 33.2752 49.8061 33.373 50.2092 33.3222C50.612 33.2709 50.9824 33.075 51.2508 32.77C51.5195 32.465 51.6673 32.0726 51.6669 31.6664V25.7032C56.4808 23.2239 60 19.1279 60 14.1667C60 10.0845 57.6597 6.45337 54.1669 3.95849C50.6735 1.46318 45.9875 0 40.8341 0L40.8336 4.37475e-05ZM40.8336 3.33352C45.3444 3.33352 49.399 4.6378 52.24 6.66667C55.0804 8.69587 56.6672 11.3455 56.6672 14.1668C56.6672 17.795 53.8548 21.2034 49.3234 23.2293C49.0305 23.3594 48.7815 23.5713 48.6062 23.8388C48.4309 24.1067 48.3361 24.4195 48.3335 24.7399V28.5158L43.4377 25.2606C43.1582 25.0823 42.8317 24.9918 42.5004 25H40.8339C36.3232 25 32.2681 23.6699 29.4275 21.6406C26.5872 19.6119 25.0007 16.9882 25.0007 14.1668C25.0007 11.3454 26.5872 8.69597 29.4275 6.66666C32.2683 4.6379 36.3233 3.33351 40.8339 3.33351L40.8336 3.33352ZM23.5939 6.32847C24.0148 6.32847 24.4296 6.33709 24.844 6.35432C22.8763 8.56447 21.6668 11.2403 21.6668 14.1668C21.6668 18.249 24.0071 21.8538 27.5004 24.3492C30.9933 26.844 35.6794 28.3336 40.8332 28.3336C37.3174 32.2947 30.9554 35.0002 23.5935 35.0002H20.8333C20.4784 34.9963 20.1316 35.1057 19.8435 35.3125L13.3332 40.0523V34.1667C13.3379 33.8449 13.2496 33.5287 13.0786 33.2561C12.9076 32.9834 12.6612 32.7659 12.3696 32.6302C6.58217 29.9703 3.33305 25.8094 3.33305 20.7816C3.33305 16.9472 5.44451 13.4051 9.08818 10.7298C12.7323 8.05396 17.8663 6.32889 23.5932 6.32889L23.5939 6.32847Z" fill="currentColor"/>
</svg>
