<?xml version="1.0" encoding="UTF-8"?>
<svg width="148px" height="136px" viewBox="0 0 148 136" version="1.1" xmlns="http://www.w3.org/2000/svg" xmlns:xlink="http://www.w3.org/1999/xlink">
<title>error</title>
<style type="text/css">
    .st0{fill:currentColor;}
</style>
    <g id="Page-1" stroke="none" stroke-width="1" fill="none" fill-rule="evenodd">
        <g id="error" transform="translate(0.916746, 0.214000)" fill="currentColor" fill-rule="nonzero">
            <path d="M144.778254,120.174 L82.2092538,5.459 C81.2852538,3.775 80.0092538,2.444 78.3772538,1.467 C76.7492538,0.489 74.9832538,0 73.0822538,0 C71.1812538,0 69.4152538,0.49 67.7862538,1.467 C66.1572538,2.444 64.8802538,3.775 63.9572538,5.459 L1.38625377,120.174 C-0.514746234,123.597 -0.460746234,127.019 1.54925377,130.441 C2.47325377,132.015 3.73625377,133.265 5.33825377,134.187 C6.94125377,135.111 8.66525377,135.574 10.5122538,135.574 L135.653254,135.574 C137.502254,135.574 139.225254,135.111 140.828254,134.187 C142.431254,133.265 143.692254,132.015 144.617254,130.441 C146.627254,127.018 146.681254,123.597 144.778254,120.174 Z M83.5132538,112.026 C83.5132538,112.786 83.2542538,113.424 82.7402538,113.94 C82.2242538,114.456 81.6132538,114.713 80.9062538,114.713 L65.2632538,114.713 C64.5572538,114.713 63.9462538,114.456 63.4302538,113.94 C62.9142538,113.423 62.6562538,112.786 62.6562538,112.026 L62.6562538,96.546 C62.6562538,95.786 62.9142538,95.149 63.4302538,94.632 C63.9462538,94.116 64.5562538,93.859 65.2632538,93.859 L80.9052538,93.859 C81.6122538,93.859 82.2232538,94.116 82.7392538,94.632 C83.2542538,95.149 83.5122538,95.786 83.5122538,96.546 L83.5122538,112.026 L83.5132538,112.026 Z M83.3512538,81.556 C83.2952538,82.099 83.0102538,82.547 82.4952538,82.9 C81.9782538,83.254 81.3412538,83.429 80.5802538,83.429 L65.5072538,83.429 C64.7472538,83.429 64.0952538,83.253 63.5522538,82.9 C63.0082538,82.546 62.7372538,82.099 62.7372538,81.554 L61.3522538,44.323 C61.3522538,43.562 61.6242538,42.992 62.1672538,42.612 C62.8732538,42.015 63.5252538,41.716 64.1232538,41.716 L82.0472538,41.716 C82.6452538,41.716 83.2972538,42.014 84.0032538,42.612 C84.5462538,42.992 84.8162538,43.508 84.8162538,44.16 L83.3512538,81.556 Z" id="Shape"></path>
        </g>
    </g>
</svg>