<?xml version="1.0" encoding="utf-8"?>
<!-- Generator: Adobe Illustrator 27.0.1, SVG Export Plug-In . SVG Version: 6.00 Build 0)  -->
<svg version="1.1" id="Layer_1" xmlns="http://www.w3.org/2000/svg" xmlns:xlink="http://www.w3.org/1999/xlink" x="0px" y="0px"
	 viewBox="0 0 54.3 52.8" style="enable-background:new 0 0 54.3 52.8;" xml:space="preserve">
<style type="text/css">
	.st0{fill:currentColor;}
</style>
<path class="st0" d="M53.2,8.9c1.4-1.4,1.4-3.7,0-5.1s-3.7-1.4-5.1,0l-2.5,2.5V2.1c0-0.6-0.5-1-1-1H1.1c-0.6,0-1,0.5-1,1v41.7
	c0,0.3,0.1,0.6,0.3,0.7v0.1l6.8,6.8c0.2,0.2,0.5,0.3,0.8,0.3l0,0l0,0h25.7c0.1,0,0.2,0,0.3-0.1c2,1.4,4.4,2.3,7,2.3l0,0
	c6.5,0,11.8-5.3,11.9-11.9c0-4.9-3-9.1-7.3-10.9V16.4L53.2,8.9z M41,52c-5.5,0-9.9-4.4-9.9-9.9s4.4-9.9,9.9-9.9s9.9,4.4,9.9,9.9
	S46.5,52,41,52z M41,30.1c-6.5,0-11.9,5.3-11.9,11.9c0,2.9,1,5.5,2.7,7.5H9v-5.9c0-0.6-0.5-1-1-1H2.1V3.2h41.4v5.2L21.8,29.8
	c-0.1,0.1-0.2,0.2-0.2,0.4l-1.8,5.6c0,0.1,0,0.2,0,0.3c0,0.6,0.5,1,1,1c0.1,0,0.2,0,0.3-0.1l5.4-1.9c0.1-0.1,0.3-0.1,0.4-0.2
	l16.6-16.4v12C42.7,30.3,41.9,30.1,41,30.1z M3.5,44.8h3.4v3.4L3.5,44.8z M26.3,32.7l-2.1-2.1L45.3,9.7l2.1,2.1L26.3,32.7z
	 M24.4,33.7l-1.9,0.7l0.6-1.9L24.4,33.7z M48.9,10.2l-2.1-2.1l2.8-2.8c0.6-0.6,1.6-0.6,2.1,0C52,5.6,52.1,6,52.1,6.4
	c0,0.4-0.2,0.8-0.5,1.1L48.9,10.2z M47.5,44.9L42,41.5v-6.8c0-0.6-0.5-1-1-1c-0.6,0-1,0.5-1,1v7.4c0,0.4,0.2,0.7,0.5,0.9l6,3.7
	c0.2,0.1,0.4,0.2,0.5,0.2c0.4,0,0.7-0.2,0.9-0.5C48.1,45.8,48,45.2,47.5,44.9z M25.3,43.3c-0.8,0.2-1.6,0.3-2.4,0.2
	c0-0.1,0.1-0.1,0.1-0.2c0.8-1.4,0.9-2.7,0.2-3.8c-0.6-0.8-1.5-1.3-2.5-1.1c-1.1,0.2-2,1-2.4,2.3c-0.3,1-0.1,2.1,0.6,3
	c-0.1,0-0.3,0-0.4-0.1c-0.4-0.1-0.9-0.4-1.3-0.8l-0.1-0.1c-0.8-0.6-1.9-1.4-3.3-1.3c-1.5,0.1-2.7,1.1-3.6,2.8
	c-0.2,0.5,0,1.1,0.6,1.4c0.5,0.2,1.1,0,1.3-0.5c0.3-0.6,0.9-1.5,1.8-1.6c0.6,0,1.1,0.3,1.9,0.9c0.6,0.5,1.3,1,2.2,1.3
	c0.4,0.1,0.7,0.1,1.1,0.1c0.8,0,1.5-0.2,2.1-0.6c1.4,0.5,3,0.5,4.6,0.1c0.5-0.1,0.9-0.7,0.7-1.3C26.5,43.5,25.9,43.1,25.3,43.3z
	 M21.6,40.7c0.2,0.3,0.1,0.9-0.2,1.5c-0.1,0.2-0.2,0.3-0.4,0.5c-0.1-0.1-0.1-0.1-0.2-0.2c-0.3-0.3-0.5-0.7-0.4-1.2s0.4-0.8,0.7-0.8
	V40v0.5C21.3,40.4,21.5,40.5,21.6,40.7z M11.9,9.7h9.9c0.6,0,1-0.5,1-1s-0.5-1-1-1h-9.9c-0.6,0-1,0.5-1,1S11.3,9.7,11.9,9.7z
	 M11.9,12.8h6.3c0.6,0,1-0.5,1-1s-0.5-1-1-1h-6.3c-0.6,0-1,0.5-1,1S11.3,12.8,11.9,12.8z M8.4,7.5H4.8c-0.6,0-1,0.5-1,1v3.6
	c0,0.6,0.5,1,1,1h3.6c0.6,0,1-0.5,1-1V8.5C9.4,7.9,9,7.5,8.4,7.5z M7.3,9.6v1.5H5.8V9.6H7.3z M11.9,19.1h9.9c0.6,0,1-0.5,1-1
	s-0.5-1-1-1h-9.9c-0.6,0-1,0.5-1,1S11.3,19.1,11.9,19.1z M11.9,22.2h12.9c0.6,0,1-0.5,1-1s-0.5-1-1-1H11.9c-0.6,0-1,0.5-1,1
	S11.3,22.2,11.9,22.2z M8.4,17H4.8c-0.6,0-1,0.5-1,1v3.6c0,0.6,0.5,1,1,1h3.6c0.6,0,1-0.5,1-1V18C9.4,17.4,9,17,8.4,17z M7.3,19.1
	v1.5H5.8v-1.5H7.3z M11.9,28.6h9c0.6,0,1-0.5,1-1c0-0.6-0.5-1-1-1h-9c-0.6,0-1,0.5-1,1C10.8,28.1,11.3,28.6,11.9,28.6z M11.9,31.8
	h6.3c0.6,0,1-0.5,1-1s-0.5-1-1-1h-6.3c-0.6,0-1,0.5-1,1S11.3,31.8,11.9,31.8z M8.4,26.5H4.8c-0.6,0-1,0.5-1,1v3.6c0,0.6,0.5,1,1,1
	h3.6c0.6,0,1-0.5,1-1v-3.6C9.4,26.9,9,26.5,8.4,26.5z M7.3,28.6v1.5H5.8v-1.5H7.3z"/>
</svg>
