<svg width="62" height="61" viewBox="0 0 62 61" fill="none" xmlns="http://www.w3.org/2000/svg">
<g clip-path="url(#clip0_1383_123532)">
<path d="M23.4297 41.353C23.0779 41.353 22.8015 41.0766 22.8015 40.7248C22.8015 40.662 22.8141 40.5867 22.8266 40.5238L24.9121 34.1671C24.9372 34.0665 25 33.9912 25.0628 33.9158L55.4271 3.84042C56.8342 2.44595 59.0955 2.45851 60.49 3.86554C61.8844 5.27258 61.8719 7.53389 60.4648 8.92836L30.1005 39.0037C30.0377 39.0665 29.9498 39.1168 29.8618 39.1545L23.6307 41.3153C23.5678 41.3404 23.4925 41.353 23.4297 41.353ZM26.0678 34.6947L24.4221 39.7073L29.3216 38.0113L59.5729 8.0364C60.49 7.13188 60.5025 5.66203 59.598 4.7575C59.1583 4.31781 58.5678 4.06655 57.9523 4.06655H57.9397C57.3241 4.06655 56.7462 4.30524 56.3065 4.73238L26.0678 34.6947Z" fill="currentColor" stroke="currentColor"/>
<path d="M29.6608 39.0539C29.4975 39.0539 29.3342 38.9911 29.2211 38.8655L25.1759 34.8202C24.9372 34.569 24.9372 34.167 25.1885 33.9283C25.4271 33.6896 25.8166 33.6896 26.0553 33.9283L30.1005 37.9735C30.3392 38.2248 30.3392 38.6142 30.1005 38.8655C29.9875 38.9911 29.8241 39.0539 29.6608 39.0539Z" fill="currentColor" stroke="currentColor"/>
<path d="M38.3794 58.25H8.60553C8.25377 58.25 7.97739 57.9736 7.97739 57.6218L7.91457 50.2726H0.628141C0.276382 50.2726 0 49.9962 0 49.6444V1.46603C0 1.11427 0.276382 0.837891 0.628141 0.837891H50.8794C51.2312 0.837891 51.5075 1.11427 51.5075 1.46603V9.06653C51.5075 9.41829 51.2312 9.69467 50.8794 9.69467C50.5276 9.69467 50.2513 9.41829 50.2513 9.06653V2.09417H1.25628V49.0163H8.54271C8.89447 49.0163 9.17085 49.2927 9.17085 49.6444L9.23367 56.9937H38.3794C38.7312 56.9937 39.0075 57.2701 39.0075 57.6218C39.0075 57.9736 38.7186 58.25 38.3794 58.25Z" fill="currentColor" stroke="currentColor"/>
<path d="M50.8794 36.1143C50.5276 36.1143 50.2512 35.8379 50.2512 35.4862V17.5465C50.2512 17.1947 50.5276 16.9183 50.8794 16.9183C51.2311 16.9183 51.5075 17.1947 51.5075 17.5465V35.4862C51.5075 35.8379 51.2311 36.1143 50.8794 36.1143Z" fill="currentColor" stroke="currentColor"/>
<path d="M8.54277 58.25C8.37946 58.25 8.21614 58.1872 8.10307 58.0615L0.251314 50.2098C0.0377464 49.9334 0.10056 49.5439 0.376942 49.3304C0.603073 49.1671 0.904581 49.1671 1.13071 49.3304L8.98247 57.1821C9.22116 57.4334 9.22116 57.8228 8.96991 58.0741C8.85684 58.1872 8.70609 58.25 8.54277 58.25Z" fill="currentColor" stroke="currentColor"/>
<path d="M46.7839 60.8379C39.5226 60.8379 33.6432 54.9585 33.6432 47.6972C33.6432 40.4359 39.5226 34.5565 46.7839 34.5565C54.0452 34.5565 59.9246 40.4359 59.9246 47.6972C59.912 54.946 54.0326 60.8254 46.7839 60.8379ZM46.7839 35.6872C40.1507 35.6872 34.7738 41.0641 34.7738 47.6972C34.7738 54.3304 40.1507 59.7073 46.7839 59.7073C53.4171 59.7073 58.7939 54.3304 58.7939 47.6972C58.7939 41.0641 53.4171 35.6872 46.7839 35.6872Z" fill="currentColor" stroke="currentColor"/>
<path d="M53.6432 52.5967C53.5301 52.5967 53.417 52.559 53.3165 52.4962L46.407 48.2249C46.2185 48.1118 46.1055 47.9108 46.1055 47.6972V39.1545C46.1055 38.8027 46.3819 38.5264 46.7336 38.5264C47.0854 38.5264 47.3618 38.8027 47.3618 39.1545V47.3455L53.9698 51.4284C54.2587 51.6168 54.3592 51.9937 54.1708 52.2952C54.0577 52.4837 53.8567 52.5967 53.6432 52.5967Z" fill="currentColor" stroke="currentColor"/>
<path d="M55.8543 13.1871C55.6909 13.1871 55.5276 13.1243 55.4146 12.9987L51.3316 8.91574C51.0804 8.67705 51.0804 8.27504 51.3191 8.02378C51.5578 7.77253 51.9598 7.77253 52.211 8.01122L52.2236 8.02378L56.3065 12.1067C56.5578 12.358 56.5578 12.7474 56.3065 12.9987C56.1809 13.1243 56.0176 13.1871 55.8543 13.1871Z" fill="currentColor" stroke="currentColor"/>
<path d="M21.4699 51.3655C21.093 51.3655 20.7287 51.3152 20.3644 51.2147C19.4473 50.9635 18.7312 50.4107 18.0402 49.8705C17.186 49.2047 16.4448 48.6393 15.4649 48.7147C14.083 48.8152 13.2538 50.1092 12.8895 50.863C12.7513 51.177 12.387 51.3278 12.0729 51.2022C11.7588 51.064 11.6081 50.6996 11.7337 50.3856C11.7463 50.3605 11.7463 50.3479 11.7588 50.3228C12.588 48.5891 13.8694 47.5715 15.3644 47.4584C16.8217 47.3454 17.8769 48.162 18.8066 48.878C19.4347 49.3554 20.0126 49.8203 20.691 49.9961C21.3066 50.172 21.9598 50.1343 22.5503 49.8956C22.3744 49.7574 22.1985 49.6067 22.0352 49.4308C21.1558 48.5012 20.8417 47.3328 21.1935 46.2147C21.583 44.9459 22.4247 44.1293 23.4799 43.966C24.3845 43.8278 25.289 44.2298 25.8041 44.9961C26.4825 45.9886 26.4071 47.3579 25.5905 48.7273C25.4021 49.0665 25.1759 49.3806 24.9121 49.6695C25.9423 49.9584 27.2613 50.0338 28.8066 49.6318C29.1458 49.5439 29.485 49.7574 29.5729 50.0841C29.6608 50.4107 29.4473 50.7625 29.1206 50.8504C27.2111 51.3278 25.3141 51.2273 23.8317 50.6117C23.1407 51.1142 22.3116 51.3655 21.4699 51.3655ZM23.8443 45.2223C23.794 45.2223 23.7312 45.2223 23.6809 45.2348C23.1156 45.3228 22.6508 45.8253 22.4121 46.6167C22.1985 47.2951 22.3995 47.9986 22.9649 48.5891C23.1784 48.8152 23.4297 49.0162 23.7061 49.167C24.0327 48.8529 24.3091 48.5012 24.5352 48.1243C25.088 47.1821 25.1759 46.3027 24.7865 45.7248C24.5729 45.4107 24.2211 45.2223 23.8443 45.2223Z" fill="currentColor" stroke="currentColor"/>
<path d="M23.3668 9.63189H11.9347C11.5829 9.63189 11.3065 9.35551 11.3065 9.00375C11.3065 8.65199 11.5829 8.37561 11.9347 8.37561H23.3668C23.7186 8.37561 23.995 8.65199 23.995 9.00375C23.995 9.35551 23.7186 9.63189 23.3668 9.63189Z" fill="currentColor" stroke="currentColor"/>
<path d="M19.2211 13.2751H11.9347C11.5829 13.2751 11.3065 12.9987 11.3065 12.6469C11.3065 12.2952 11.5829 12.0188 11.9347 12.0188H19.2211C19.5728 12.0188 19.8492 12.2952 19.8492 12.6469C19.8492 12.9987 19.5728 13.2751 19.2211 13.2751Z" fill="currentColor" stroke="currentColor"/>
<path d="M9.04523 13.652H4.8995C4.54774 13.652 4.27136 13.3756 4.27136 13.0239V8.87814C4.27136 8.52638 4.54774 8.25 4.8995 8.25H9.04523C9.39699 8.25 9.67337 8.52638 9.67337 8.87814V13.0239C9.67337 13.3756 9.39699 13.652 9.04523 13.652ZM5.52764 12.3957H8.41709V9.50628H5.52764V12.3957Z" fill="currentColor" stroke="currentColor"/>
<path d="M23.3668 20.6243H11.9347C11.5829 20.6243 11.3065 20.3479 11.3065 19.9962C11.3065 19.6444 11.5829 19.368 11.9347 19.368H23.3668C23.7186 19.368 23.995 19.6444 23.995 19.9962C23.995 20.3479 23.7186 20.6243 23.3668 20.6243Z" fill="currentColor" stroke="currentColor"/>
<path d="M26.8844 24.2675H11.9347C11.5829 24.2675 11.3065 23.9911 11.3065 23.6394C11.3065 23.2876 11.5829 23.0112 11.9347 23.0112H26.8844C27.2362 23.0112 27.5125 23.2876 27.5125 23.6394C27.5125 23.9911 27.2362 24.2675 26.8844 24.2675Z" fill="currentColor" stroke="currentColor"/>
<path d="M9.04523 24.6444H4.8995C4.54774 24.6444 4.27136 24.3681 4.27136 24.0163V19.8706C4.27136 19.5188 4.54774 19.2424 4.8995 19.2424H9.04523C9.39699 19.2424 9.67337 19.5188 9.67337 19.8706V24.0163C9.67337 24.3681 9.39699 24.6444 9.04523 24.6444ZM5.52764 23.3882H8.41709V20.4987H5.52764V23.3882Z" fill="currentColor" stroke="currentColor"/>
<path d="M22.3618 31.6168H11.9347C11.5829 31.6168 11.3065 31.3404 11.3065 30.9886C11.3065 30.6369 11.5829 30.3605 11.9347 30.3605H22.3618C22.7136 30.3605 22.9899 30.6369 22.9899 30.9886C22.9899 31.3404 22.7136 31.6168 22.3618 31.6168Z" fill="currentColor" stroke="currentColor"/>
<path d="M19.2211 35.2599H11.9347C11.5829 35.2599 11.3065 34.9836 11.3065 34.6318C11.3065 34.28 11.5829 34.0037 11.9347 34.0037H19.2211C19.5728 34.0037 19.8492 34.28 19.8492 34.6318C19.8492 34.9836 19.5728 35.2599 19.2211 35.2599Z" fill="currentColor" stroke="currentColor"/>
<path d="M9.04523 35.6369H4.8995C4.54774 35.6369 4.27136 35.3605 4.27136 35.0087V30.863C4.27136 30.5112 4.54774 30.2349 4.8995 30.2349H9.04523C9.39699 30.2349 9.67337 30.5112 9.67337 30.863V35.0087C9.67337 35.3605 9.39699 35.6369 9.04523 35.6369ZM5.52764 34.3806H8.41709V31.4911H5.52764V34.3806Z" fill="currentColor" stroke="currentColor"/>
</g>
<defs>
<clipPath id="clip0_1383_123532">
<rect width="61.5276" height="60" fill="currentColor" transform="translate(0 0.837891)"/>
</clipPath>
</defs>
</svg>
