<?xml version="1.0" encoding="utf-8"?>
<!-- Generator: Adobe Illustrator 27.0.1, SVG Export Plug-In . SVG Version: 6.00 Build 0)  -->
<svg version="1.1" id="Layer_1" xmlns="http://www.w3.org/2000/svg" xmlns:xlink="http://www.w3.org/1999/xlink" x="0px" y="0px"
	 viewBox="0 0 54.3 49" style="enable-background:new 0 0 54.3 49;" xml:space="preserve">
<style type="text/css">
	.st0{fill:currentColor;}
</style>
<path class="st0" d="M50.1,4.3C47.4,1.6,43.8,0.1,40,0.1c-2.9,0-5.6,0.8-8,2.4C29.9,4,28.2,6,27.1,8.3c-1.3-2.7-3.4-5-6-6.4
	c-2.9-1.6-6.3-2.1-9.5-1.5C8.3,1,5.4,2.7,3.3,5.3C1.2,7.8,0,11.1,0,14.4c0,7.1,4.5,15.1,13.4,23.7c4.1,3.9,8.5,7.5,13.2,10.7
	c0.2,0.1,0.4,0.2,0.5,0.2c0.2,0,0.4-0.1,0.6-0.2c0,0,2.1-1.3,4.9-3.5c0.3-0.4,0.4-0.9,0.1-1.3c-0.3-0.4-0.8-0.5-1.3-0.3
	c-1.8,1.4-3.3,2.5-4.2,3C23.8,44.3,2,28.9,2,14.4c0-3,1.1-5.9,3.1-8.1s4.7-3.7,7.7-4s6,0.4,8.4,2.1c2.5,1.7,4.2,4.3,4.9,7.2
	c0.1,0.5,0.5,0.8,1,0.8s0.9-0.3,1-0.8c0.7-2.9,2.4-5.5,4.8-7.3c2.5-1.8,5.5-2.5,8.5-2.2s5.8,1.8,7.8,4c2,2.3,3.1,5.2,3.1,8.2
	c0,3.8-1.5,7.9-4.4,12.4c-0.2,0.2-0.2,0.5-0.2,0.8c0.1,0.3,0.2,0.5,0.4,0.6s0.5,0.2,0.8,0.1s0.5-0.2,0.6-0.4
	c3.1-4.8,4.7-9.3,4.7-13.5C54.3,10.6,52.8,7,50.1,4.3z M45.5,31.8c0,0.6,0.5,1,1,1c0.6,0,1-0.5,1-1c0-2.3-1.8-4.4-4.4-5.2v-2
	c0-0.6-0.5-1-1-1c-0.6,0-1,0.5-1,1v1.6c-0.2,0-0.5,0-0.7,0v-1.6c0-0.6-0.5-1-1-1s-1,0.5-1,1v2c-2.7,0.8-4.4,2.9-4.4,5.2
	c0,2.5,2.2,3.6,4.4,4.4v7.6c-1.5-0.6-2.4-1.8-2.4-3c0-0.6-0.5-1-1-1c-0.6,0-1,0.5-1,1c0,2.3,1.8,4.4,4.4,5.2v2c0,0.6,0.5,1,1,1
	s1-0.5,1-1v-1.6c0.2,0,0.5,0,0.7,0V48c0,0.6,0.5,1,1,1c0.6,0,1-0.5,1-1v-2c2.7-0.8,4.4-2.9,4.4-5.2c0-2.7-2-4-4-4.9h0.3l-0.7-0.2
	v-6.9C44.5,29.4,45.5,30.5,45.5,31.8z M41.1,28.3V35l-0.7-0.2v-6.4C40.6,28.3,40.8,28.3,41.1,28.3z M41.1,37.1v7.1
	c-0.2,0-0.5,0-0.7,0v-7.4L41.1,37.1z M45.5,40.8v0.3c-0.1,1.1-1,2.1-2.4,2.7v-5.9C44.7,38.7,45.5,39.6,45.5,40.8z M35.9,31.8
	c0-1.3,0.9-2.4,2.4-3V34C36.7,33.3,35.9,32.6,35.9,31.8z"/>
</svg>
