<?xml version="1.0" encoding="UTF-8" standalone="no"?>
<!DOCTYPE svg PUBLIC "-//W3C//DTD SVG 1.1//EN" "http://www.w3.org/Graphics/SVG/1.1/DTD/svg11.dtd">
<!-- Created with Vectornator (http://vectornator.io/) -->
<svg height="100%" stroke-miterlimit="10" style="fill-rule:nonzero;clip-rule:evenodd;stroke-linecap:round;stroke-linejoin:round;" version="1.1" viewBox="0 0 60 60" width="100%" xml:space="preserve" xmlns="http://www.w3.org/2000/svg" xmlns:xlink="http://www.w3.org/1999/xlink">
<defs/>
<clipPath id="ArtboardFrame">
<rect height="60" width="60" x="0" y="0"/>
</clipPath>
<g clip-path="url(#ArtboardFrame)" id="Untitled">
<path d="M30.3914 56.4408L30.5509 56.6849L30.5509 56.6848L30.5514 56.6846L30.5527 56.6838L30.5577 56.6805L30.5774 56.6676L30.6541 56.6168C30.7215 56.572 30.821 56.5056 30.9501 56.4185C31.2082 56.2441 31.5845 55.9868 32.0584 55.6541C33.0063 54.9888 34.345 54.0222 35.9098 52.8153L35.9289 52.8005L35.9452 52.7829C36.1028 52.6134 36.1961 52.3941 36.209 52.1631C36.2219 51.932 36.1536 51.7037 36.0158 51.5178C35.8781 51.3318 35.6797 51.1998 35.4549 51.1447C35.2301 51.0897 34.9932 51.115 34.7851 51.2162L34.7582 51.2294L34.7344 51.2477C32.5711 52.9209 30.8631 54.1087 30.0173 54.6628C28.0806 53.3393 21.2707 48.5183 14.8624 42.0313C11.5629 38.6912 8.37696 34.9164 6.01725 30.9565C3.65661 26.995 2.13405 22.8669 2.13397 18.8143C2.14257 15.4751 3.37673 12.2553 5.60225 9.76575C7.82788 7.2762 10.89 5.69032 14.2075 5.30912C17.525 4.92793 20.8671 5.77794 23.5994 7.69789C26.3315 9.61761 28.2637 12.4734 29.0295 15.7236C29.0796 15.942 29.2023 16.1372 29.3777 16.2771C29.5532 16.4172 29.7713 16.4935 29.9959 16.4935C30.2206 16.4935 30.4386 16.4172 30.6143 16.2771C30.79 16.1369 30.9128 15.9412 30.9627 15.7223L30.963 15.7211C31.6974 12.4364 33.6212 9.53969 36.3639 7.58871C39.1066 5.63782 42.474 4.77072 45.8179 5.15444C49.1617 5.53817 52.2453 7.14555 54.4747 9.66707C56.7041 12.1886 57.9217 15.4458 57.8929 18.8115L57.8929 18.814C57.8929 22.9866 56.2702 27.6059 53.0426 32.5453C52.9693 32.6533 52.9181 32.7747 52.892 32.9026C52.8655 33.0315 52.865 33.1643 52.8905 33.2935L53.1766 33.2371L52.8905 33.2935C52.9159 33.4226 52.9669 33.5453 53.0402 33.6546L53.2823 33.492L53.0402 33.6546C53.1136 33.7638 53.208 33.8574 53.3179 33.9298C53.4278 34.0021 53.5509 34.0519 53.6803 34.0762L53.7341 33.7896L53.6803 34.0762C53.8097 34.1005 53.9425 34.0988 54.0712 34.0712C54.1999 34.0436 54.3218 33.9907 54.4298 33.9155C54.5372 33.8407 54.6288 33.7454 54.6991 33.635C58.1268 28.4051 59.883 23.4232 59.883 18.821C59.883 14.6753 58.2371 10.6993 55.307 7.76648C52.3771 4.83387 48.4027 3.18438 44.2572 3.18049C41.126 3.16857 38.0643 4.10352 35.4739 5.86267C33.0765 7.49083 31.1866 9.75444 30.0118 12.3935C28.6206 9.30522 26.2598 6.74637 23.2786 5.11212C20.0928 3.36567 16.3976 2.78448 12.8295 3.46856C9.26129 4.15263 6.04317 6.05921 3.72906 8.86008C1.415 11.661 0.149677 15.1809 0.150914 18.814L30.3914 56.4408ZM30.3914 56.4408L30.5508 56.6849M30.3914 56.4408L30.5508 56.6849M14.8899 44.9211L14.8886 44.9199C5.1213 35.4611 0.150949 26.6894 0.150914 18.8141L14.8899 44.9211ZM14.8899 44.9211C19.4085 49.245 24.2842 53.1794 29.4652 56.6824L29.4652 56.6824M14.8899 44.9211L29.4652 56.6824M29.4652 56.6824L29.4696 56.6853M29.4652 56.6824L29.4696 56.6853M29.4696 56.6853C29.6305 56.7898 29.8181 56.8454 30.0099 56.8454C30.2018 56.8454 30.3895 56.7898 30.5504 56.6853L30.5508 56.6849M29.4696 56.6853L30.5508 56.6849" fill="currentColor" fill-rule="nonzero" opacity="1" stroke="currentColor" stroke-linecap="butt" stroke-linejoin="miter" stroke-width="0.5"/>
<path d="M45.7951 29.4863L45.7951 29.4863C45.981 29.3004 46.2332 29.1959 46.4961 29.1959C46.7592 29.1959 47.0114 29.3004 47.1973 29.4863L47.1973 29.4863C47.3833 29.6723 47.4877 29.9245 47.4877 30.1874L47.4877 32.4362C50.3096 33.2573 52.387 35.4277 52.387 38.0473C52.387 38.3103 52.2826 38.5625 52.0966 38.7484C51.9107 38.9345 51.6585 39.0389 51.3955 39.0389C51.1325 39.0389 50.8803 38.9345 50.6944 38.7484C50.5085 38.5625 50.4039 38.3103 50.4039 38.0473C50.4039 36.5849 49.2641 35.2044 47.4877 34.5178L47.4877 42.4677C48.7429 42.9659 49.9357 43.5749 50.8299 44.4167C51.7783 45.3096 52.387 46.4618 52.387 47.993C52.387 50.6136 50.2621 52.7819 47.4877 53.603L47.4877 55.8529C47.4877 56.1158 47.3833 56.368 47.1973 56.5539C47.0114 56.74 46.7592 56.8444 46.4961 56.8444C46.2332 56.8444 45.981 56.74 45.7951 56.5539C45.6091 56.368 45.5046 56.1158 45.5046 55.8529L45.5046 53.9504C45.3294 53.9608 45.1571 53.9608 44.9946 53.9608L44.9843 53.9608C44.8357 53.9608 44.6891 53.9495 44.5559 53.9391L44.5533 53.939C44.5229 53.9365 44.4932 53.9343 44.4641 53.9321L44.4641 55.8529C44.4641 56.1158 44.3597 56.368 44.1737 56.5539C43.9878 56.7399 43.7356 56.8444 43.4726 56.8444C43.2096 56.8444 42.9574 56.74 42.7715 56.5539C42.5855 56.368 42.481 56.1158 42.481 55.8529L42.481 53.6041C39.6593 52.783 37.5817 50.6126 37.5817 47.993C37.5817 47.73 37.6862 47.4778 37.8722 47.2919C38.0581 47.1059 38.3103 47.0014 38.5732 47.0014C38.8363 47.0014 39.0885 47.1059 39.2744 47.2919C39.4604 47.4778 39.5648 47.73 39.5648 47.993C39.5648 49.4848 40.7187 50.8374 42.481 51.5215L42.481 42.8234C41.2396 42.377 40.0522 41.8654 39.16 41.1567C38.2081 40.4005 37.5817 39.4105 37.5817 38.0473C37.5817 35.4267 39.7067 33.2584 42.481 32.4373L42.481 30.1874C42.481 29.9245 42.5855 29.6723 42.7715 29.4863M45.7951 29.4863L42.7715 29.4863L42.7715 29.4863M45.7951 29.4863C45.6091 29.6723 45.5046 29.9245 45.5046 30.1874L45.5046 32.1082M45.7951 29.4863L45.5046 32.1082M42.7715 29.4863L42.9777 29.6925M42.7715 29.4863L37.8733 38.0473C37.8733 35.5347 39.973 33.407 42.7727 32.6581L42.7727 30.1874C42.7727 30.0018 42.8465 29.8238 42.9777 29.6925M42.7715 29.4863C42.9574 29.3004 43.2096 29.1959 43.4726 29.1959C43.7356 29.1959 43.9878 29.3004 44.1737 29.4863C44.3597 29.6723 44.4641 29.9245 44.4641 30.1874L44.4641 32.0899C44.6393 32.0795 44.8116 32.0795 44.9741 32.0795L44.9843 32.0795C45.1331 32.0795 45.2797 32.0908 45.4129 32.1012L45.4155 32.1013C45.4458 32.1038 45.4756 32.106 45.5046 32.1082M42.7715 29.4863L45.5046 32.1082M42.9777 29.6925C43.109 29.5612 43.287 29.4875 43.4726 29.4875C43.6583 29.4875 43.8363 29.5612 43.9675 29.6925L42.9777 29.6925ZM45.5186 34.0837L45.5186 41.7479L44.8672 41.5293L44.8667 41.5291L44.4781 41.3996L44.4781 34.0837C44.8244 34.0559 45.1724 34.0559 45.5186 34.0837ZM50.4039 48.2846L50.4105 48.2846C50.2731 49.6613 49.17 50.8845 47.5087 51.5229L47.5087 44.6179C49.2672 45.4235 50.4039 46.4247 50.4039 47.993L50.4039 48.2846ZM42.502 40.7075C41.6989 40.3981 41.0039 40.0551 40.4921 39.652C39.9052 39.1896 39.5858 38.6709 39.5858 38.0473C39.5858 36.5534 40.7243 35.2006 42.502 34.5175L42.502 40.7075ZM45.5256 43.8772L45.5256 51.9566C45.1794 51.9844 44.8314 51.9844 44.4851 51.9566L44.4851 43.527L45.5256 43.8772Z" fill="currentColor" fill-rule="nonzero" opacity="1" stroke="currentColor" stroke-linecap="butt" stroke-linejoin="miter" stroke-width="0.5"/>
</g>
</svg>
