<svg width="60" height="60" viewBox="0 0 60 60" fill="none" xmlns="http://www.w3.org/2000/svg">
<path d="M30.324 52.656L30.4608 52.8653L30.4608 52.8652L30.4612 52.865L30.4623 52.8643L30.4666 52.8615L30.4835 52.8504L30.5492 52.8069C30.607 52.7685 30.6923 52.7116 30.803 52.6369C31.0242 52.4874 31.3468 52.2668 31.7531 51.9816C32.5657 51.4113 33.7133 50.5826 35.0547 49.548L35.0711 49.5353L35.0851 49.5202C35.2202 49.3749 35.3002 49.1869 35.3112 48.9889C35.3223 48.7908 35.2637 48.5951 35.1456 48.4357C35.0276 48.2763 34.8575 48.1631 34.6648 48.1159C34.4721 48.0687 34.269 48.0904 34.0906 48.1772L34.0675 48.1885L34.0471 48.2042C32.1926 49.6385 30.7284 50.6568 30.0033 51.1318C28.3431 49.9972 22.5052 45.8644 17.0116 40.3033C14.1831 37.44 11.4519 34.204 9.42901 30.8093C7.40533 27.4133 6.1001 23.8744 6.10003 20.4003C6.1074 17.5377 7.1654 14.7775 9.07325 12.6433C10.9812 10.5091 13.6062 9.14959 16.4502 8.8228C19.2942 8.49602 22.1592 9.2247 24.5015 10.8706C26.8436 12.5163 28.5 14.9645 29.1565 17.7507C29.1995 17.938 29.3047 18.1053 29.455 18.2252C29.6055 18.3453 29.7924 18.4107 29.985 18.4107C30.1776 18.4107 30.3645 18.3453 30.5151 18.2252C30.6657 18.105 30.771 17.9373 30.8138 17.7496L30.814 17.7486C31.4436 14.9327 33.0928 12.4495 35.444 10.777C37.7952 9.10458 40.682 8.36125 43.5486 8.6902C46.4151 9.01916 49.0585 10.3971 50.9697 12.5587C52.8809 14.7203 53.9247 17.5126 53.9 20.3979V20.4C53.9 23.977 52.5089 27.937 49.742 32.1713C49.6792 32.2639 49.6353 32.368 49.6129 32.4776C49.5902 32.5881 49.5898 32.702 49.6116 32.8127L49.8569 32.7644L49.6116 32.8127C49.6334 32.9234 49.6771 33.0286 49.74 33.1223L49.9475 32.9829L49.74 33.1223C49.8029 33.2159 49.8838 33.2961 49.978 33.3582C50.0722 33.4202 50.1778 33.4629 50.2887 33.4837L50.3348 33.238L50.2887 33.4837C50.3996 33.5045 50.5135 33.5031 50.6238 33.4794C50.7341 33.4558 50.8386 33.4104 50.9312 33.3459C51.0233 33.2818 51.1018 33.2001 51.1621 33.1055C54.1005 28.6221 55.606 24.3513 55.606 20.406C55.606 16.8521 54.1951 13.4436 51.6832 10.9294C49.1715 8.41539 45.7644 7.00134 42.2106 6.99801C39.5264 6.98779 36.9017 7.78929 34.6811 9.29734C32.6259 10.6931 31.0057 12.6336 29.9986 14.896C28.806 12.2485 26.7822 10.0549 24.2265 8.65392C21.4954 7.15676 18.3277 6.65852 15.2689 7.24496C12.21 7.83139 9.45123 9.46582 7.46744 11.8669C5.48368 14.268 4.39897 17.2855 4.40003 20.4L30.324 52.656ZM30.324 52.656L30.4607 52.8653M30.324 52.656L30.4607 52.8653M17.0352 42.7806L17.0341 42.7796C8.66095 34.6709 4.40006 27.1513 4.40003 20.4001L17.0352 42.7806ZM17.0352 42.7806C20.9088 46.4873 25.0886 49.8601 29.53 52.8631L29.53 52.8631M17.0352 42.7806L29.53 52.8631M29.53 52.8631L29.5338 52.8656M29.53 52.8631L29.5338 52.8656M29.5338 52.8656C29.6717 52.9552 29.8326 53.0029 29.997 53.0029C30.1615 53.0029 30.3224 52.9552 30.4603 52.8656L30.4607 52.8653M29.5338 52.8656L30.4607 52.8653" fill="currentColor" stroke="currentColor" stroke-width="0.5"/>
<path d="M43.529 29.549L43.529 29.549C43.6884 29.3896 43.9046 29.3 44.13 29.3C44.3555 29.3 44.5717 29.3896 44.7311 29.549L44.7311 29.549C44.8905 29.7084 44.98 29.9246 44.98 30.15V32.0778C47.3991 32.7817 49.18 34.6423 49.18 36.888C49.18 37.1134 49.0905 37.3296 48.9311 37.489C48.7717 37.6485 48.5555 37.738 48.33 37.738C48.1046 37.738 47.8884 37.6485 47.729 37.489C47.5696 37.3296 47.48 37.1134 47.48 36.888C47.48 35.6343 46.5029 34.4509 44.98 33.8623V40.6774C46.0561 41.1045 47.0786 41.6266 47.8452 42.3482C48.6582 43.1137 49.18 44.1014 49.18 45.414C49.18 47.6606 47.3584 49.5194 44.98 50.2233V52.152C44.98 52.3774 44.8905 52.5936 44.7311 52.753C44.5717 52.9125 44.3555 53.002 44.13 53.002C43.9046 53.002 43.6884 52.9125 43.529 52.753C43.3696 52.5936 43.28 52.3774 43.28 52.152V50.5211C43.1298 50.53 42.9821 50.53 42.8428 50.53H42.834C42.7066 50.53 42.5809 50.5203 42.4667 50.5114L42.4645 50.5113C42.4384 50.5092 42.413 50.5073 42.388 50.5054V52.152C42.388 52.3774 42.2985 52.5936 42.1391 52.753C41.9797 52.9124 41.7635 53.002 41.538 53.002C41.3126 53.002 41.0964 52.9125 40.937 52.753C40.7776 52.5936 40.688 52.3774 40.688 52.152V50.2242C38.269 49.5203 36.488 47.6597 36.488 45.414C36.488 45.1886 36.5776 44.9724 36.737 44.813C36.8964 44.6536 37.1126 44.564 37.338 44.564C37.5635 44.564 37.7797 44.6536 37.9391 44.813C38.0985 44.9724 38.188 45.1886 38.188 45.414C38.188 46.6929 39.1772 47.8524 40.688 48.4389V40.9823C39.6238 40.5997 38.6059 40.1611 37.841 39.5535C37.025 38.9053 36.488 38.0566 36.488 36.888C36.488 34.6414 38.3097 32.7826 40.688 32.0787V30.15C40.688 29.9246 40.7776 29.7084 40.937 29.549M43.529 29.549L40.937 29.549C40.937 29.549 40.937 29.549 40.937 29.549M43.529 29.549C43.3696 29.7084 43.28 29.9246 43.28 30.15V31.7966M43.529 29.549L43.28 31.7966M40.937 29.549L41.1138 29.7257M40.937 29.549L36.738 36.888C36.738 34.734 38.538 32.91 40.938 32.268V30.15C40.938 29.9909 41.0013 29.8383 41.1138 29.7257M40.937 29.549C41.0964 29.3896 41.3126 29.3 41.538 29.3C41.7635 29.3 41.9797 29.3896 42.1391 29.549C42.2985 29.7084 42.388 29.9246 42.388 30.15V31.7809C42.5382 31.772 42.6859 31.772 42.8252 31.772H42.834C42.9615 31.772 43.0872 31.7817 43.2014 31.7906L43.2036 31.7907C43.2296 31.7928 43.2551 31.7947 43.28 31.7966M40.937 29.549L43.28 31.7966M41.1138 29.7257C41.2263 29.6132 41.3789 29.55 41.538 29.55C41.6972 29.55 41.8498 29.6132 41.9623 29.7257H41.1138ZM43.292 33.4901V40.0604L42.7336 39.873L42.7331 39.8728L42.4 39.7618V33.4901C42.6969 33.4663 42.9952 33.4663 43.292 33.4901ZM47.48 45.664H47.4856C47.3678 46.8442 46.4222 47.8928 44.998 48.4401V42.5207C46.5055 43.2113 47.48 44.0696 47.48 45.414V45.664ZM40.706 39.1685C40.0175 38.9032 39.4217 38.6092 38.983 38.2636C38.4798 37.8672 38.206 37.4226 38.206 36.888C38.206 35.6073 39.182 34.4476 40.706 33.862V39.1685ZM43.298 41.8857V48.8119C43.0012 48.8357 42.7029 48.8357 42.406 48.8119V41.5855L43.298 41.8857Z" fill="currentColor" stroke="currentColor" stroke-width="0.5"/>
</svg>
