<?xml version="1.0" encoding="UTF-8"?>
<svg width="126px" height="126px" viewBox="0 0 130 126" version="1.1" xmlns="http://www.w3.org/2000/svg" xmlns:xlink="http://www.w3.org/1999/xlink">
<title>info</title>
<style type="text/css">
    .st0{fill:currentColor;}
</style>
    <g id="Page-1" stroke="none" stroke-width="1" fill="none" fill-rule="evenodd">
        <g id="info" fill="currentColor" fill-rule="nonzero">
            <path d="M63,0 C97.7399996,0 126,28.26 126,63 C126,97.7399996 97.7399996,126 63,126 C28.26,126 0,97.7399996 0,63 C0,28.26 28.26,0 63,0 Z M72.6845387,52 L49.0723192,52 L49.0723192,66.3173612 L54.3154614,66.3173612 L54.3154614,90.6826388 L49,90.6826388 L49,105 L78,105 L78,90.6826388 L72.6845387,90.6826388 L72.6845387,52 Z M62.5,21 C56.7010101,21 52,25.7010101 52,31.5 C52,37.2989899 56.7010101,42 62.5,42 C68.2989899,42 73,37.2989899 73,31.5 C73,25.7010101 68.2989899,21 62.5,21 Z" id="Combined-Shape"></path>
        </g>
    </g>
</svg>
