<svg width="64" height="64" viewBox="0 0 64 64" fill="none" xmlns="http://www.w3.org/2000/svg">
<path d="M24.4125 11.6632L24.5362 11.6807L24.5538 11.5569L25.7151 3.35732H38.2851L39.4464 11.5569L39.464 11.6807L39.5877 11.6632L41.5077 11.3916L41.6315 11.3741L41.614 11.2504L40.2047 1.27544L40.1895 1.16792H40.0809H23.9193H23.8107L23.7955 1.27544L22.3862 11.2504L22.3688 11.3741L22.4925 11.3916L24.4125 11.6632Z" fill="currentColor" stroke="currentColor" stroke-width="0.25"/>
<path d="M54.599 29.9309L54.6761 30.0292L54.7745 29.9521L62.7066 23.7396L62.792 23.6727L62.7378 23.5787L54.6634 9.58923L54.6092 9.49524L54.5085 9.53576L45.1606 13.2982L45.0447 13.3448L45.0913 13.4607L45.8153 15.2643L45.862 15.3806L45.9781 15.3337L53.6608 12.2325L59.9458 23.1248L53.4244 28.2297L53.3259 28.3068L53.403 28.4052L54.599 29.9309Z" fill="currentColor" stroke="currentColor" stroke-width="0.25"/>
<path d="M54.5085 54.4642L54.6092 54.5048L54.6634 54.4108L62.7378 40.4213L62.792 40.3273L62.7066 40.2604L54.7745 34.0478L54.6761 33.9708L54.599 34.0691L53.403 35.5948L53.3259 35.6932L53.4244 35.7703L59.9458 40.8752L53.6608 51.7675L45.9781 48.6663L45.862 48.6194L45.8153 48.7356L45.0913 50.5393L45.0447 50.6552L45.1606 50.7018L54.5085 54.4642Z" fill="currentColor" stroke="currentColor" stroke-width="0.25"/>
<path d="M40.0809 62.8321H40.1895L40.2047 62.7246L41.614 52.7496L41.6315 52.6258L41.5077 52.6083L39.5877 52.3368L39.464 52.3193L39.4464 52.4431L38.2851 60.6427H25.7151L24.5538 52.4431L24.5362 52.3193L24.4125 52.3368L22.4925 52.6083L22.3688 52.6258L22.3862 52.7496L23.7955 62.7246L23.8107 62.8321H23.9193H40.0809Z" fill="currentColor" stroke="currentColor" stroke-width="0.25"/>
<path d="M9.33669 54.4108L9.39094 54.5048L9.49162 54.4642L18.8395 50.7018L18.9554 50.6552L18.9088 50.5393L18.1848 48.7356L18.1381 48.6194L18.022 48.6663L10.3393 51.7675L4.05433 40.8752L10.5757 35.7703L10.6742 35.6932L10.5971 35.5948L9.4011 34.0691L9.32402 33.9708L9.22565 34.0478L1.29353 40.2604L1.2081 40.3273L1.26234 40.4213L9.33669 54.4108Z" fill="currentColor" stroke="currentColor" stroke-width="0.25"/>
<path d="M9.22565 29.9521L9.32402 30.0292L9.4011 29.9309L10.5971 28.4052L10.6742 28.3068L10.5757 28.2297L4.05433 23.1248L10.3393 12.2325L18.022 15.3337L18.1381 15.3806L18.1848 15.2643L18.9088 13.4607L18.9554 13.3448L18.8395 13.2982L9.49162 9.53576L9.39094 9.49524L9.33669 9.58923L1.26234 23.5787L1.2081 23.6727L1.29353 23.7396L9.22565 29.9521Z" fill="currentColor" stroke="currentColor" stroke-width="0.25"/>
<path d="M13.5605 32C13.5605 42.1668 21.8331 50.4393 31.9999 50.4393C42.1667 50.4393 50.4392 42.1668 50.4392 32C50.4392 21.8332 42.1667 13.5607 31.9999 13.5607C21.8331 13.5607 13.5605 21.8332 13.5605 32ZM15.7499 31.9935C15.7499 23.0315 23.0378 15.7436 31.9999 15.7436C40.9555 15.7436 48.2498 23.0379 48.2498 31.9935C48.2498 40.9491 40.9555 48.2435 31.9999 48.2435C23.0442 48.2435 15.7499 40.9556 15.7499 31.9935Z" fill="currentColor" stroke="currentColor" stroke-width="0.25"/>
<path d="M33.6161 39.2943H33.7411V39.1693V29.5305V29.4055H33.6161H27.688H27.563V29.5305V31.4699V31.5949H27.688H31.5517V39.1693V39.2943H31.6767H33.6161Z" fill="currentColor" stroke="currentColor" stroke-width="0.25"/>
<path d="M37.7233 38.1996V38.0746H37.5983H27.688H27.563V38.1996V40.139V40.264H27.688H37.5983H37.7233V40.139V38.1996Z" fill="currentColor" stroke="currentColor" stroke-width="0.25"/>
<path d="M32.1164 27.8648C33.2565 27.8648 34.1808 26.9405 34.1808 25.8004C34.1808 24.6603 33.2565 23.736 32.1164 23.736C30.9763 23.736 30.052 24.6603 30.052 25.8004C30.052 26.9405 30.9763 27.8648 32.1164 27.8648Z" fill="currentColor" stroke="currentColor" stroke-width="0.25"/>
</svg>
