<svg width="60" height="60" viewBox="0 0 60 60" fill="none" xmlns="http://www.w3.org/2000/svg">
<g clip-path="url(#clip0_5418_195004)">
<path d="M29.1998 6.1998H31.9998C33.0998 6.1998 33.9998 7.0998 33.9998 8.1998V8.7998L33.8998 8.6998C33.5998 8.3998 33.0998 8.3998 32.7998 8.6998C32.4998 8.9998 32.4998 9.4998 32.7998 9.7998L34.1998 11.1998C34.2998 11.1998 34.2998 11.2998 34.3998 11.2998C34.4998 11.2998 34.5998 11.3998 34.6998 11.3998C34.7998 11.3998 34.8998 11.3998 34.9998 11.2998C35.0998 11.2998 35.1998 11.1998 35.1998 11.0998L36.5998 9.6998C36.8998 9.3998 36.8998 8.89981 36.5998 8.5998C36.2998 8.2998 35.7998 8.2998 35.4998 8.5998L35.3998 8.6998V8.2998C35.3998 6.3998 33.7998 4.7998 31.8998 4.7998H29.0998C28.6998 4.7998 28.2998 5.0998 28.2998 5.5998C28.4998 5.8998 28.7998 6.1998 29.1998 6.1998Z" fill="currentColor"/>
<path d="M28.5 20.5998H25.7C24.6 20.5998 23.7 19.6998 23.7 18.5998V17.9998L23.8 18.0998C24.1 18.3998 24.6 18.3998 24.9 18.0998C25.2 17.7998 25.2 17.2998 24.9 16.9998L23.5 15.5998C23.4 15.4998 23.4 15.4998 23.3 15.4998C23.1 15.3998 22.9 15.3998 22.7 15.4998C22.6 15.4998 22.5 15.5998 22.5 15.6998L21.1 16.9998C20.8 17.2998 20.8 17.7998 21.1 18.0998C21.4 18.3998 21.9 18.3998 22.2 18.0998L22.3 17.9998V18.5998C22.3 20.4998 23.9 22.0998 25.8 22.0998H28.6C29 22.0998 29.4 21.7998 29.4 21.2998C29.3 20.9998 28.9 20.5998 28.5 20.5998Z" fill="currentColor"/>
<path d="M27.5 11.3C27.7 11.3 27.8 11.2 27.8 11V0.3C27.8 0.1 27.7 0 27.5 0H15.8C15.6 0 15.5 0.1 15.5 0.3V11C15.5 11.2 15.6 11.3 15.8 11.3H16.9V14.4C16.9 14.5 16.9 14.5 17 14.6C17 14.6 17 14.6 17.1 14.7C17.1 14.7 17.1 14.7 17.2 14.7L17.8 15H17.9C17.9 15 17.9 15 18 15C18 15 18.1 15 18.1 14.9L22.7 11.2H27.5V11.3ZM22.2 10C22.1 10 22.1 10 22 10.1L18.2 13.1V10.7V10.4C18.2 10.2 18.1 10.1 17.9 10.1H16.8V1.3H26.5V10H22.2Z" fill="currentColor"/>
<path d="M41.9999 12.0996H30.1999C29.9999 12.0996 29.8999 12.1996 29.8999 12.3996V23.0996C29.8999 23.2996 29.9999 23.3996 30.1999 23.3996H35.0999L39.6999 26.9996C39.6999 26.9996 39.7999 26.9996 39.8999 26.9996H39.9999C39.9999 26.9996 39.9999 26.9996 40.0999 26.9996L40.5999 26.6996C40.5999 26.6996 40.5999 26.6996 40.6999 26.6996C40.6999 26.6996 40.7999 26.6996 40.7999 26.5996C40.7999 26.5996 40.8999 26.4996 40.8999 26.3996V23.2996H41.9999C42.1999 23.2996 42.2999 23.1996 42.2999 22.9996V12.3996C42.2999 12.1996 42.1999 12.0996 41.9999 12.0996ZM39.5999 22.3996V25.1996L35.7999 22.2996L35.6999 22.1996C35.5999 22.1996 35.5999 22.0996 35.4999 22.0996H31.1999V13.3996H40.9999V22.0996H39.8999C39.6999 22.0996 39.5999 22.1996 39.5999 22.3996Z" fill="currentColor"/>
<path d="M36.6998 15.3998C36.6998 15.2998 36.5998 15.2998 36.4998 15.2998H35.7998C35.6998 15.2998 35.5998 15.3998 35.5998 15.3998L33.7998 19.8998C33.7998 19.9998 33.7998 19.9998 33.7998 20.0998C33.7998 20.1998 33.8998 20.1998 33.9998 20.1998H34.5998C34.6998 20.1998 34.7998 20.1998 34.8998 20.0998C34.9998 19.9998 34.9998 19.9998 34.9998 19.8998L35.2998 19.0998H36.8998L37.1998 19.9998C37.1998 20.0998 37.2998 20.0998 37.3998 20.1998C37.4998 20.2998 37.5998 20.2998 37.6998 20.2998H38.2998C38.3998 20.2998 38.3998 20.2998 38.4998 20.1998C38.4998 20.0998 38.4998 20.0998 38.4998 19.9998L36.6998 15.3998ZM35.6998 18.0998L36.1998 16.8998L36.6998 18.0998H35.6998Z" fill="currentColor"/>
<path d="M24.1001 7.4998C23.5001 7.3998 22.9001 7.0998 22.4001 6.7998C22.8001 6.2998 23.1001 5.7998 23.4001 5.0998H24.0001C24.1001 5.0998 24.2001 4.9998 24.2001 4.8998V4.2998C24.2001 4.1998 24.1001 4.0998 24.0001 4.0998H22.2001V3.4998C22.2001 3.3998 22.1001 3.2998 22.0001 3.2998H21.4001C21.3001 3.2998 21.2001 3.3998 21.2001 3.4998V4.0998H19.4001C19.3001 4.0998 19.2001 4.1998 19.2001 4.2998V4.8998C19.2001 4.9998 19.3001 5.0998 19.4001 5.0998H20.0001C20.3001 5.7998 20.6001 6.2998 20.9001 6.7998C20.4001 7.0998 19.9001 7.3998 19.2001 7.4998C19.1001 7.4998 19.1001 7.5998 19.1001 7.5998C19.1001 7.6998 19.1001 7.6998 19.1001 7.7998C19.2001 7.8998 19.4001 8.1998 19.5001 8.3998C19.5001 8.4998 19.6001 8.4998 19.7001 8.4998C19.7001 8.4998 19.7001 8.4998 19.8001 8.4998C20.6001 8.2998 21.2001 7.8998 21.8001 7.4998C22.4001 7.8998 23.0001 8.2998 23.8001 8.4998C23.9001 8.4998 24.0001 8.4998 24.0001 8.3998C24.1001 8.1998 24.3001 7.9998 24.4001 7.7998C24.5001 7.6998 24.5001 7.6998 24.5001 7.5998C24.3001 7.5998 24.2001 7.5998 24.1001 7.4998ZM22.2001 5.1998C22.0001 5.5998 21.9001 5.8998 21.6001 6.0998C21.4001 5.7998 21.2001 5.4998 21.0001 5.1998H22.2001Z" fill="currentColor"/>
<path d="M60.0002 50.7998V35.9998C60.0002 34.1998 58.6002 32.7998 56.9002 32.7998C56.4002 32.7998 56.0002 32.8998 55.6002 33.0998V29.0998C55.6002 27.2998 54.3002 25.8998 52.6002 25.8998C52.2002 25.8998 51.7002 25.9998 51.4002 26.1998C51.3002 24.4998 50.0002 23.2998 48.4002 23.2998C46.9002 23.2998 45.8002 24.2998 45.5002 25.6998C45.1002 25.4998 44.7002 25.3998 44.2002 25.3998C42.5002 25.3998 41.2002 26.7998 41.2002 28.5998V40.5998C40.7002 39.8998 40.3002 39.3998 40.3002 39.3998C39.2002 38.0998 37.7002 37.7998 36.3002 38.5998C34.8002 39.3998 34.4002 41.2998 35.2002 42.7998L35.3002 42.8998L35.4002 42.9998C35.4002 42.9998 37.7002 44.8998 38.2002 48.4998C38.3002 48.9998 38.3002 49.4998 38.4002 49.8998C38.6002 51.1998 38.7002 52.0998 39.0002 53.0998L39.5002 54.2998C39.9002 55.9998 42.0002 59.9998 49.1002 59.9998H50.6002C56.3002 59.9998 60.0002 56.3998 60.0002 50.7998ZM50.5002 58.1998H49.0002C45.0002 58.1998 42.1002 56.6998 41.1002 53.9998L40.6002 52.5998C40.4002 51.6998 40.3002 50.7998 40.1002 49.5998C40.0002 49.1998 40.0002 48.6998 39.9002 48.1998C39.4002 44.4998 37.2002 42.2998 36.6002 41.6998C36.3002 41.0998 36.4002 40.3998 37.0002 39.9998C37.5002 39.6998 38.1002 39.5998 38.8002 40.3998C38.8002 40.3998 40.5002 42.3998 41.2002 44.2998V44.3998V44.4998C41.2002 44.4998 41.2002 44.4998 41.2002 44.5998C41.2002 44.5998 41.2002 44.5998 41.3002 44.6998C41.3002 44.6998 41.3002 44.6998 41.4002 44.7998C41.4002 44.7998 41.5002 44.7998 41.5002 44.8998C41.5002 44.8998 41.5002 44.8998 41.6002 44.8998C41.6002 44.8998 41.7002 44.8998 41.7002 44.9998C45.4002 46.3998 46.1002 48.8998 46.2002 49.0998C46.3002 49.4998 46.7002 49.7998 47.1002 49.7998C47.2002 49.7998 47.2002 49.7998 47.3002 49.7998C47.8002 49.6998 48.1002 49.1998 48.0002 48.6998C48.0002 48.5998 47.1002 45.3998 43.0002 43.5998V43.4998V28.5998C43.0002 27.8998 43.4002 27.1998 44.2002 27.1998C45.0002 27.1998 45.4002 27.8998 45.4002 28.5998V42.2998C45.4002 42.7998 45.8002 43.1998 46.3002 43.1998C46.8002 43.1998 47.2002 42.7998 47.2002 42.2998V41.7998V26.4998C47.2002 25.7998 47.6002 25.0998 48.4002 25.0998C49.2002 25.0998 49.6002 25.7998 49.6002 26.4998V29.0998V40.9998V42.3998C49.6002 42.8998 50.0002 43.2998 50.5002 43.2998C51.0002 43.2998 51.4002 42.8998 51.4002 42.3998V40.9998V29.0998C51.4002 28.3998 51.8002 27.6998 52.6002 27.6998C53.4002 27.6998 53.8002 28.3998 53.8002 29.0998V35.8998V42.7998C53.8002 43.2998 54.2002 43.6998 54.7002 43.6998C55.2002 43.6998 55.6002 43.2998 55.6002 42.7998V41.9998V35.7998C55.6002 34.9998 56.1002 34.4998 56.9002 34.4998C57.6002 34.4998 58.2002 35.0998 58.2002 35.8998V50.6998C58.2002 56.1998 54.2002 58.1998 50.5002 58.1998Z" fill="currentColor"/>
<path d="M23.8001 38.5002C22.4001 37.7002 20.9001 38.0002 19.8001 39.3002C19.8001 39.3002 19.4001 39.8002 18.9001 40.5002V28.5002C18.9001 26.7002 17.6001 25.3002 15.9001 25.3002C15.4001 25.3002 15.0001 25.4002 14.6001 25.6002C14.3001 24.2002 13.1001 23.2002 11.7001 23.2002C10.1001 23.2002 8.80012 24.5002 8.70012 26.1002C8.30012 25.9002 7.90012 25.8002 7.50012 25.8002C5.80012 25.8002 4.50012 27.2002 4.50012 29.0002V33.0002C4.10012 32.8002 3.70012 32.7002 3.20012 32.7002C1.50012 32.7002 0.100122 34.2002 0.100122 35.9002V50.7002C0.000122108 56.4002 3.70012 60.0002 9.50012 60.0002H11.0001C18.0001 60.0002 20.2001 56.0002 20.8001 54.3002L21.2001 53.2002V53.1002C21.4001 52.1002 21.6001 51.2002 21.8001 49.9002C21.9001 49.5002 21.9001 49.0002 22.0001 48.4002C22.5001 44.9002 24.8001 42.9002 24.8001 42.9002L24.9001 42.8002L25.0001 42.7002C25.8001 41.2002 25.3001 39.3002 23.8001 38.5002ZM23.4001 41.7002C22.8001 42.2002 20.7001 44.4002 20.1001 48.2002C20.0001 48.8002 20.0001 49.2002 19.9001 49.7002C19.7001 50.9002 19.6001 51.8002 19.4001 52.6002L18.9001 54.0002C17.8001 56.7002 15.0001 58.2002 11.0001 58.2002H9.50012C5.80012 58.2002 1.80012 56.2002 1.80012 50.8002V36.0002C1.80012 35.2002 2.40012 34.6002 3.10012 34.6002C3.80012 34.6002 4.30012 35.1002 4.40012 35.9002V42.1002V42.8002C4.40012 43.3002 4.80012 43.7002 5.30012 43.7002C5.80012 43.7002 6.20012 43.3002 6.20012 42.8002V35.9002V29.1002C6.20012 28.4002 6.60012 27.7002 7.40012 27.7002C8.20012 27.7002 8.60012 28.4002 8.60012 29.1002V41.0002V42.4002C8.60012 42.9002 9.00012 43.3002 9.50012 43.3002C10.0001 43.3002 10.4001 42.9002 10.4001 42.4002V41.0002V29.1002V26.5002C10.4001 25.8002 10.8001 25.1002 11.6001 25.1002C12.4001 25.1002 12.8001 25.8002 12.8001 26.5002V41.8002V42.3002C12.8001 42.8002 13.2001 43.2002 13.7001 43.2002C14.2001 43.2002 14.6001 42.8002 14.6001 42.3002V28.6002C14.6001 27.9002 15.0001 27.2002 15.8001 27.2002C16.6001 27.2002 17.0001 27.9002 17.0001 28.6002V43.5002V43.6002C12.9001 45.4002 12.0001 48.5002 12.0001 48.7002C11.9001 49.2002 12.2001 49.7002 12.6001 49.8002C12.7001 49.8002 12.8001 49.8002 12.8001 49.8002C13.2001 49.8002 13.6001 49.5002 13.7001 49.1002C13.7001 49.0002 14.5001 46.4002 18.2001 45.0002H18.3001C18.3001 45.0002 18.3001 45.0002 18.4001 45.0002C18.4001 45.0002 18.5001 45.0002 18.5001 44.9002C18.5001 44.9002 18.5001 44.9002 18.6001 44.8002C18.6001 44.8002 18.6001 44.8002 18.7001 44.7002C18.7001 44.7002 18.7001 44.7002 18.8001 44.6002C18.8001 44.6002 18.8001 44.6002 18.8001 44.5002V44.4002C19.5001 42.5002 21.1001 40.5002 21.2001 40.5002C21.9001 39.7002 22.5001 39.8002 23.0001 40.1002C23.6001 40.4002 23.6001 41.1002 23.4001 41.7002Z" fill="currentColor"/>
</g>
<defs>
<clipPath id="clip0_5418_195004">
<rect width="60" height="60" fill="currentColor"/>
</clipPath>
</defs>
</svg>
