<?xml version="1.0" encoding="UTF-8" standalone="no"?>
<!DOCTYPE svg PUBLIC "-//W3C//DTD SVG 1.1//EN" "http://www.w3.org/Graphics/SVG/1.1/DTD/svg11.dtd">
<!-- Created with Vectornator (http://vectornator.io/) -->
<svg height="100%" stroke-miterlimit="10" style="fill-rule:nonzero;clip-rule:evenodd;stroke-linecap:round;stroke-linejoin:round;" version="1.1" viewBox="0 0 40 41" width="100%" xml:space="preserve" xmlns="http://www.w3.org/2000/svg" xmlns:xlink="http://www.w3.org/1999/xlink">
<defs/>
<clipPath id="ArtboardFrame">
<rect height="41" width="40" x="0" y="0"/>
</clipPath>
<g clip-path="url(#ArtboardFrame)" id="Untitled">
<path d="M9.9944 0.837891C7.68628 0.837891 5.71429 2.42893 5.15406 4.58019L1.2549 4.58019C0.560224 4.58019 0 5.14041 0 5.83509C0 6.52977 0.560224 7.08999 1.2549 7.08999L5.17647 7.08999C5.73669 9.24125 7.68627 10.8323 10.0168 10.8323C12.3473 10.8323 14.2969 9.21884 14.8571 7.08999L38.7675 7.08999C39.4622 7.08999 40.0224 6.52977 40.0224 5.83509C40.0224 5.14041 39.4622 4.58019 38.7675 4.58019L14.8347 4.58019C14.2745 2.42893 12.3249 0.837891 9.9944 0.837891ZM9.9944 3.34769C11.3838 3.34769 12.5042 4.46814 12.5042 5.8575C12.5042 7.24685 11.3838 8.3673 9.9944 8.3673C8.60504 8.3673 7.48459 7.24685 7.48459 5.8575C7.48459 4.46814 8.60504 3.34769 9.9944 3.34769ZM30.0056 15.8295C27.6975 15.8295 25.7255 17.4429 25.1653 19.5718L1.2549 19.5718C0.560224 19.5942 0 20.1544 0 20.8267C0 21.5214 0.560224 22.0816 1.2549 22.0816L25.1653 22.0816C25.7255 24.2328 27.6751 25.8239 30.0056 25.8239C32.3361 25.8239 34.2857 24.2328 34.8459 22.0816L38.7675 22.0816C39.4622 22.0816 40.0224 21.5214 40.0224 20.8267C40.0224 20.132 39.4622 19.5718 38.7675 19.5718L34.8459 19.5718C34.2857 17.4205 32.3361 15.8295 30.0056 15.8295ZM30.0056 18.3393C31.395 18.3393 32.5154 19.4597 32.5154 20.8491C32.5154 22.2385 31.395 23.3589 30.0056 23.3589C28.6162 23.3589 27.4958 22.2385 27.4958 20.8491C27.4958 19.4597 28.6162 18.3393 30.0056 18.3393ZM15.014 30.8435C12.7059 30.8435 10.7339 32.4345 10.1737 34.5858L1.2549 34.5858C0.560224 34.5858 0 35.146 0 35.8407C0 36.5354 0.560224 37.0956 1.2549 37.0956L10.1737 37.0956C10.7339 39.2469 12.6835 40.8379 15.014 40.8379C17.3445 40.8379 19.2941 39.2244 19.8543 37.0956L38.7675 37.0956C39.4622 37.0956 40.0224 36.5354 40.0224 35.8407C40.0224 35.146 39.4622 34.5858 38.7675 34.5858L19.8319 34.5858C19.2717 32.4345 17.3221 30.8435 14.9916 30.8435L15.014 30.8435ZM15.014 33.3533C16.4034 33.3533 17.5238 34.4737 17.5238 35.8631C17.5238 37.2525 16.4034 38.3729 15.014 38.3729C13.6247 38.3729 12.5042 37.2525 12.5042 35.8631C12.5042 34.4737 13.6247 33.3533 15.014 33.3533Z" fill="currentColor" fill-rule="nonzero" opacity="1" stroke="none"/>
</g>
</svg>
