<?xml version="1.0" encoding="UTF-8" standalone="no"?>
<!DOCTYPE svg PUBLIC "-//W3C//DTD SVG 1.1//EN" "http://www.w3.org/Graphics/SVG/1.1/DTD/svg11.dtd">
<!-- Created with Vectornator (http://vectornator.io/) -->
<svg height="100%" stroke-miterlimit="10" style="fill-rule:nonzero;clip-rule:evenodd;stroke-linecap:round;stroke-linejoin:round;" version="1.1" viewBox="0 0 70 70" width="100%" xml:space="preserve" xmlns="http://www.w3.org/2000/svg" xmlns:xlink="http://www.w3.org/1999/xlink">
<defs/>
<clipPath id="ArtboardFrame">
<rect height="70" width="70" x="0" y="0"/>
</clipPath>
<g clip-path="url(#ArtboardFrame)" id="Untitled">
<path d="M47.724 50.0251C47.8476 50.025 47.9692 49.9929 48.0768 49.9319M47.724 50.0251C47.5875 50.0254 47.4541 49.9856 47.34 49.9108C47.1846 49.8086 32.0503 40.0684 18.9858 40.8384C18.877 40.8447 18.7683 40.852 18.6598 40.8598L18.7319 41.1781C18.8405 41.1705 18.9492 41.1635 19.058 41.1573M47.724 50.0251L47.7242 50.3478C47.7243 50.3478 47.7245 50.3478 47.7246 50.3478M47.724 50.0251L47.7246 50.3478M48.0768 49.9319L14.7145 58.0945C14.7658 58.3217 14.893 58.5249 15.0748 58.6706C15.2568 58.8163 15.483 58.8959 15.7161 58.8962L15.7166 58.8962L15.7547 58.8962L15.7547 58.8967L15.7715 58.8958L21.7763 58.5853L21.7596 58.263L21.7763 58.5853C21.9257 58.5775 22.0718 58.5373 22.2041 58.4672C22.3365 58.3971 22.4519 58.299 22.5425 58.1798C22.6329 58.0605 22.6963 57.9228 22.7281 57.7765C22.7598 57.6302 22.7593 57.4787 22.7265 57.3326L22.7264 57.332L19.058 41.1573M48.0768 49.9319C48.1895 49.8668 48.2819 49.7719 48.3438 49.6576C48.4059 49.5432 48.4351 49.4139 48.4284 49.2841L48.7505 49.2674L48.7505 49.2672L46.8336 12.0388L46.8336 12.0384C46.8234 11.8424 46.7571 11.6532 46.6427 11.4935C46.5284 11.3337 46.3708 11.2102 46.1883 11.1373C46.0059 11.0644 45.8065 11.0452 45.6136 11.0821C45.4207 11.119 45.2423 11.2102 45.0997 11.3452L45.0994 11.3455C33.1067 22.7187 17.2146 23.1495 16.9459 23.155L16.9305 23.155L16.9305 23.1547L16.9143 23.1556L8.66786 23.5719L8.66786 23.5719C6.87693 23.6626 5.15323 24.2826 3.71488 25.3533C2.27639 26.4239 1.18792 27.8974 0.587132 29.5869C-0.0136578 31.2764-0.0997522 33.1062 0.339754 34.8447C0.779221 36.5831 1.72444 38.1519 3.05579 39.353C3.93803 40.1527 4.9701 40.7695 6.09226 41.1678C7.21441 41.566 8.40445 41.7378 9.59346 41.6731C9.59359 41.6731 9.59372 41.6731 9.59385 41.6731L10.9746 41.6013L14.7145 58.0941L48.0768 49.9319ZM19.058 41.1573C25.4451 40.7953 32.3523 42.9679 37.7402 45.2852C40.4821 46.4645 42.8208 47.677 44.4833 48.601C45.3144 49.0627 45.9763 49.4524 46.4347 49.7293C46.6639 49.8678 46.8421 49.978 46.9652 50.0551C47.0268 50.0936 47.0745 50.1238 47.1078 50.1451L47.1471 50.1702L47.1582 50.1774L47.1614 50.1795L47.1624 50.1801L47.1627 50.1804L47.1629 50.1805C47.3298 50.2899 47.5251 50.3482 47.7246 50.3478M19.058 41.1573L47.7246 50.3478M20.5441 39.0494C26.1278 39.0494 31.8524 40.6724 36.6305 42.5634C41.002 44.2932 44.5986 46.2541 46.5959 47.4249L44.8883 14.2779C36.9745 20.7472 27.2253 24.5746 17.0127 25.2113L17.0089 25.2116L17.0089 25.2116L8.7724 25.6265L8.77175 25.6266C7.85209 25.6712 6.95049 25.8975 6.11897 26.2928C5.28732 26.6881 4.5424 27.2444 3.92731 27.9294L3.76251 28.1129C2.92686 29.1074 2.38316 30.3163 2.19465 31.605C1.99405 32.9761 2.20468 34.376 2.79986 35.6273C3.39495 36.8788 4.34791 37.9256 5.53821 38.6353C6.72838 39.345 8.10233 39.6858 9.48635 39.6144L9.48635 39.6144L17.7299 39.1914C18.6648 39.0942 19.6042 39.0467 20.5441 39.0494ZM20.5441 39.0494C20.5445 39.0494 20.5448 39.0494 20.545 39.0494L20.5441 39.3721L20.5441 39.0494ZM16.5289 56.7947L13.0669 41.4926L16.9865 41.2906L20.4553 56.5927L16.5289 56.7947Z" fill="currentColor" fill-rule="nonzero" opacity="1" stroke="currentColor" stroke-linecap="butt" stroke-linejoin="miter" stroke-width="0.5"/>
<path d="M62.1494 18.1482L62.1491 18.148L62.0109 18.021C61.911 17.9314 61.8297 17.823 61.7714 17.7022C61.7128 17.5805 61.6786 17.4485 61.671 17.3136C61.6633 17.1789 61.6823 17.0438 61.7268 16.9163C61.7714 16.7888 61.8407 16.6713 61.9306 16.5706C62.0205 16.4699 62.1294 16.3878 62.2511 16.3292C62.3728 16.2705 62.5048 16.2364 62.6395 16.2286C62.7744 16.221 62.9094 16.24 63.0369 16.2847C63.1642 16.3291 63.2815 16.3981 63.3821 16.4878L63.5411 16.6286L63.5454 16.6322L63.5453 16.6323C67.3547 20.1232 69.6236 24.9826 69.8545 30.1443C70.0854 35.3057 68.2596 40.3479 64.7776 44.1647C64.6819 44.2712 64.5647 44.3564 64.4338 44.4145C64.3027 44.4728 64.1607 44.5027 64.0174 44.5025C64.0171 44.5025 64.0168 44.5025 64.0167 44.5025L64.0176 44.1798C63.8808 44.1797 63.747 44.1398 63.6324 44.0651C63.5178 43.9903 63.4274 43.8839 63.3723 43.7587C63.3171 43.6335 63.2995 43.4951 63.3216 43.3601C63.3437 43.2251 63.4045 43.0994 63.4967 42.9983C66.6668 39.5184 68.328 34.9237 68.1164 30.2211C67.9047 25.5185 65.8373 21.0915 62.3675 17.9105L62.1494 18.1482ZM62.1494 18.1482C65.5564 21.2717 67.5862 25.6182 67.7941 30.2355C68.0019 34.8527 66.3709 39.364 63.2584 42.7809L62.1494 18.1482Z" fill="currentColor" fill-rule="nonzero" opacity="1" stroke="currentColor" stroke-linecap="butt" stroke-linejoin="miter" stroke-width="0.5"/>
<path d="M56.8664 38.1565L56.8661 38.1562C56.6651 37.9723 56.545 37.716 56.5328 37.4438C56.5204 37.1715 56.6167 36.9054 56.8003 36.704M56.8664 38.1565L56.8003 36.704M56.8664 38.1565C57.0679 38.3401 57.3339 38.4364 57.6062 38.424C57.8785 38.4117 58.1347 38.2917 58.3186 38.0906L58.0804 37.8729M56.8664 38.1565L58.0804 37.8729M56.8003 36.704L57.0387 36.9214L56.8003 36.704L56.8003 36.704ZM58.0804 37.8729L58.3186 38.0906C59.2474 37.0747 59.9664 35.8853 60.4341 34.5906C60.9018 33.296 61.1092 31.9218 61.0441 30.5468C60.9792 29.1718 60.6433 27.8232 60.0555 26.5784C59.4678 25.3338 58.6399 24.2174 57.6195 23.2935L57.5734 23.2517L57.5735 23.2516M58.0804 37.8729L57.5735 23.2516M57.5735 23.2516L57.566 23.2453M57.5735 23.2516L57.566 23.2453M57.566 23.2453C57.4654 23.159 57.3483 23.094 57.222 23.0539C57.0956 23.0139 56.9624 22.9995 56.8305 23.0118C56.6985 23.0241 56.5703 23.0628 56.4535 23.1255C56.3367 23.1882 56.2338 23.2738 56.1506 23.3772L56.1506 23.3772M57.566 23.2453L56.1506 23.3772M56.1506 23.3772L56.1501 23.3778M56.1506 23.3772L56.1501 23.3778M56.1501 23.3778C55.9786 23.5923 55.8958 23.8643 55.9187 24.138M56.1501 23.3778L55.9187 24.138M55.9187 24.138C55.9416 24.4108 56.0678 24.6646 56.2716 24.8475L55.9187 24.138Z" fill="currentColor" fill-rule="nonzero" opacity="1" stroke="currentColor" stroke-linecap="butt" stroke-linejoin="miter" stroke-width="0.5"/>
</g>
</svg>
