<?xml version="1.0" encoding="UTF-8" standalone="no"?>
<!DOCTYPE svg PUBLIC "-//W3C//DTD SVG 1.1//EN" "http://www.w3.org/Graphics/SVG/1.1/DTD/svg11.dtd">
<!-- Created with Vectornator (http://vectornator.io/) -->
<svg height="100%" stroke-miterlimit="10" style="fill-rule:nonzero;clip-rule:evenodd;stroke-linecap:round;stroke-linejoin:round;" version="1.1" viewBox="0 0 75 75" width="100%" xml:space="preserve" xmlns="http://www.w3.org/2000/svg" xmlns:xlink="http://www.w3.org/1999/xlink">
<defs/>
<g id="Untitled">
<path d="M6.6875 0.21875C3.09711 0.21875 0.125 3.08686 0.125 6.78125L0.125 68.25C0.125 71.8418 2.99452 74.8125 6.6875 74.8125L68.25 74.8125C71.8404 74.8125 74.8125 71.9444 74.8125 68.25L74.8125 6.78125C74.7099 3.18948 71.8404 0.21875 68.25 0.21875L6.6875 0.21875ZM6.6875 2.25L68.25 2.25C70.712 2.25 72.75 4.31832 72.75 6.78125L72.75 68.25L72.6562 68.25C72.6562 70.7129 70.587 72.75 68.125 72.75L6.6875 72.75C4.22552 72.75 2.15625 70.7129 2.15625 68.25L2.15625 6.78125C2.15625 4.31832 4.22551 2.25 6.6875 2.25ZM51.4688 11.125C51.1482 11.125 50.8414 11.2434 50.6875 11.5L46.1875 17.8438C46.1875 17.8438 46.1651 17.9688 46.0625 17.9688L46.0625 18.0625C46.0625 18.1651 45.9688 18.2724 45.9688 18.375L45.9688 44.5312L41.3438 47.4062C41.3438 46.6879 41.3438 45.8835 41.3438 45.0625C41.3438 43.9337 41.25 42.7851 41.25 41.6562C41.25 37.2435 40.5523 32.5343 39.2188 29.9688C40.0394 29.9688 40.625 29.2496 40.625 28.5312L40.625 26.6875C40.625 25.8665 40.0394 25.25 39.2188 25.25C40.6549 24.2238 41.3526 22.3692 41.25 19.9062C40.9423 13.3384 37.1427 11.5089 36.9375 11.4062C36.4246 11.201 35.9327 11.402 35.625 11.8125C34.4966 13.7623 30.9069 20.2111 31.625 22.4688C31.9328 23.5976 32.6304 24.5405 33.6562 25.1562C32.8356 25.1562 32.2187 25.8754 32.2188 26.5938L32.2188 28.4375C32.2188 29.2585 32.8356 29.875 33.6562 29.875C32.2201 32.4405 31.4062 37.0471 31.4062 41.5625C31.4062 42.8966 31.3125 44.2373 31.3125 45.4688C31.2099 48.4448 31.0944 50.9966 31.8125 52.8438L27.1875 55.625L27.1875 15.2812C27.1875 14.6655 26.803 14.2812 26.1875 14.2812L16.0312 14.2812C15.4158 14.2812 15 14.6655 15 15.2812L15 62.7188L13.875 63.4375C13.4647 63.6427 13.2412 64.152 13.3438 64.5625C13.4463 64.973 13.8621 65.2813 14.375 65.2812L61.5625 65.2812C62.178 65.2812 62.5937 64.8657 62.5938 64.25L62.5938 36.75C62.5938 36.4421 62.4015 36.0177 62.0938 35.8125C61.786 35.6073 61.3702 35.6073 61.0625 35.8125L56.9375 38.1875L56.9375 18.4688C56.9375 18.3661 56.9463 18.2589 56.8438 18.1562C56.8438 18.1562 56.8438 18.1651 56.8438 18.0625C56.8438 18.0625 56.8526 17.9688 56.75 17.9688L52.3438 11.5C52.1386 11.2434 51.7893 11.125 51.4688 11.125ZM36.8438 13.75C37.6644 14.571 39.0136 16.3145 39.2188 19.9062C39.3213 21.4456 38.9939 23.2994 37.25 23.8125C36.5319 24.0177 35.7181 23.9016 35 23.5938C34.2819 23.1833 33.7677 22.5934 33.5625 21.875C33.3573 20.9514 34.9973 17.1365 36.8438 13.75ZM51.5 13.9688L53.9688 17.5625L48.9375 17.5625L51.5 13.9688ZM17.0312 16.2188L25.1562 16.2188L25.1562 16.3125L25.1562 56.0312L17.0312 61.1562L17.0312 56.5625L18.375 56.5625C18.9905 56.5625 19.4062 56.147 19.4062 55.5312C19.4062 54.9155 18.9905 54.5 18.375 54.5L17.0312 54.5L17.0312 52.25L18.375 52.25C18.9905 52.25 19.4062 51.8345 19.4062 51.2188C19.4062 50.603 18.9905 50.1875 18.375 50.1875L17.0312 50.1875L17.0312 47.9375L19.9062 47.9375C20.5217 47.9375 20.9375 47.522 20.9375 46.9062C20.9375 46.2905 20.5217 45.875 19.9062 45.875L17.0312 45.875L17.0312 43.625L18.375 43.625C18.9905 43.625 19.4062 43.2095 19.4062 42.5938C19.4062 41.978 18.9905 41.5625 18.375 41.5625L17.0312 41.5625L17.0312 39.3125L18.375 39.3125C18.9905 39.3125 19.4062 38.897 19.4062 38.2812C19.4062 37.6655 18.9905 37.25 18.375 37.25L17.0312 37.25L17.0312 35.0938L19.9062 35.0938C20.5217 35.0938 20.9375 34.6782 20.9375 34.0625C20.9375 33.4468 20.5217 33.0625 19.9062 33.0625L17.0312 33.0625L17.0312 30.7812L18.375 30.7812C18.9905 30.7812 19.4062 30.3657 19.4062 29.75C19.4062 29.1343 18.9905 28.75 18.375 28.75L17.0312 28.75L17.0312 26.4688L18.375 26.4688C18.9905 26.4688 19.4062 26.0845 19.4062 25.4688C19.4062 24.853 18.9905 24.4375 18.375 24.4375L17.0312 24.4375L17.0312 22.1562L19.9062 22.1562C20.5217 22.1562 20.9375 21.772 20.9375 21.1562C20.9375 20.5405 20.5217 20.125 19.9062 20.125L17.0312 20.125L17.0312 16.2188ZM48.0312 19.5L50.5 19.5L50.5 42.0625L48.0312 43.5L48.0312 19.5ZM52.5312 19.5L54.9062 19.5L54.9062 39.4062L52.5312 40.8438L52.5312 19.5ZM34.2812 27.1875L38.5 27.1875L38.5 27.9062L34.2812 27.9062L34.2812 27.1875ZM36.4375 29.875C37.2582 29.875 39.0938 33.8659 39.0938 41.5625C39.0938 42.794 39.1162 43.9337 39.2188 45.0625C39.2188 46.294 39.3213 47.4202 39.2188 48.3438L39.2188 48.5312L33.6562 51.8125C33.2459 50.3758 33.3662 48.1281 33.4688 45.5625C33.5713 44.331 33.5625 42.9992 33.5625 41.5625C33.5625 33.9685 35.6168 29.875 36.4375 29.875ZM60.5312 38.5938L60.5312 63.3125L18.1875 63.3125L47.5 46.1875L56.4375 40.9375L60.5312 38.5938ZM53.6562 47.4062L38.5 56.4375C38.0897 56.6427 37.8662 57.152 37.9688 57.5625C38.0713 57.973 38.4871 58.2813 39 58.2812L54.1875 58.2812C54.803 58.2812 55.2187 57.897 55.2188 57.2812L55.2188 48.25C55.2188 47.9421 54.9953 47.5089 54.6875 47.4062C54.3798 47.201 53.964 47.201 53.6562 47.4062ZM53.1562 49.9688L53.1562 56.25L42.6875 56.25L53.1562 49.9688Z" fill="currentColor" fill-rule="nonzero" opacity="1" stroke="none"/>
</g>
</svg>
