<svg width="75" height="75" viewBox="0 0 75 75" fill="none" xmlns="http://www.w3.org/2000/svg">
<path d="M59.9999 10.5H15C12.375 10.5 10.2 12.6 10.2 15.3V60.225C10.2 62.85 12.3 65.025 15 65.025H59.9999C62.6249 65.025 64.7999 62.925 64.7999 60.225V15.3C64.7249 12.675 62.6249 10.5 59.9999 10.5ZM63.2249 60.225C63.2249 62.025 61.7249 63.525 59.9249 63.525H15C13.2 63.525 11.7 62.025 11.7 60.225V15.3C11.7 13.5 13.2 12 15 12H59.9999C61.7999 12 63.2999 13.5 63.2999 15.3V60.225H63.2249Z" fill="currentColor"/>
<path d="M55.4999 36.525C55.2749 36.375 54.9749 36.375 54.7499 36.525L51.7499 38.25V23.85C51.7499 23.775 51.7499 23.7 51.6749 23.625C51.6749 23.625 51.6749 23.625 51.6749 23.55C51.6749 23.55 51.6749 23.475 51.5999 23.475L48.3749 18.75C48.0749 18.375 47.3999 18.375 47.1749 18.75L43.8749 23.4C43.8749 23.4 43.8749 23.475 43.7999 23.475V23.55C43.7999 23.625 43.7249 23.7 43.7249 23.775V42.9L40.3499 45C40.3499 44.475 40.3499 43.875 40.3499 43.275C40.3499 42.45 40.2749 41.625 40.2749 40.8C40.2749 37.575 39.7499 34.125 38.7749 32.25C39.3749 32.25 39.8249 31.725 39.8249 31.2V29.85C39.8249 29.25 39.3749 28.8 38.7749 28.8C39.8249 28.05 40.3499 26.7 40.2749 24.9C40.0499 20.1 37.2749 18.75 37.1249 18.675C36.7499 18.525 36.3749 18.675 36.1499 18.975C35.3249 20.4 32.6999 25.125 33.2249 26.775C33.4499 27.6 33.9749 28.275 34.7249 28.725C34.1249 28.725 33.6749 29.25 33.6749 29.775V31.125C33.6749 31.725 34.1249 32.175 34.7249 32.175C33.6749 34.05 33.0749 37.425 33.0749 40.725C33.0749 41.7 32.9999 42.675 32.9999 43.575C32.9249 45.75 32.8499 47.625 33.3749 48.975L29.9999 51V21.525C29.9999 21.075 29.6999 20.775 29.2499 20.775H21.8249C21.3749 20.775 21.0749 21.075 21.0749 21.525V56.175L20.2499 56.7C19.9499 56.85 19.7999 57.225 19.8749 57.525C19.9499 57.825 20.2499 58.05 20.6249 58.05H55.1249C55.5749 58.05 55.8749 57.75 55.8749 57.3V37.2C55.8749 36.975 55.7249 36.675 55.4999 36.525ZM28.4999 22.275V51.3L22.5749 55.05V51.675H23.5499C23.9999 51.675 24.2999 51.375 24.2999 50.925C24.2999 50.475 23.9999 50.175 23.5499 50.175H22.5749V48.525H23.5499C23.9999 48.525 24.2999 48.225 24.2999 47.775C24.2999 47.325 23.9999 47.025 23.5499 47.025H22.5749V45.375H24.6749C25.1249 45.375 25.4249 45.075 25.4249 44.625C25.4249 44.175 25.1249 43.875 24.6749 43.875H22.5749V42.225H23.5499C23.9999 42.225 24.2999 41.925 24.2999 41.475C24.2999 41.025 23.9999 40.725 23.5499 40.725H22.5749V39.075H23.5499C23.9999 39.075 24.2999 38.775 24.2999 38.325C24.2999 37.875 23.9999 37.575 23.5499 37.575H22.5749V36H24.6749C25.1249 36 25.4249 35.7 25.4249 35.25C25.4249 34.8 25.1249 34.5 24.6749 34.5H22.5749V32.85H23.5499C23.9999 32.85 24.2999 32.55 24.2999 32.1C24.2999 31.65 23.9999 31.35 23.5499 31.35H22.5749V29.7H23.5499C23.9999 29.7 24.2999 29.4 24.2999 28.95C24.2999 28.5 23.9999 28.2 23.5499 28.2H22.5749V26.55H24.6749C25.1249 26.55 25.4249 26.25 25.4249 25.8C25.4249 25.35 25.1249 25.05 24.6749 25.05H22.5749V22.2H28.4999V22.275ZM48.5249 40.2V24.6H50.2499V39.15L48.5249 40.2ZM47.7749 20.55L49.5749 23.175H45.8999L47.7749 20.55ZM45.2249 24.6H47.0249V41.1L45.2249 42.15V24.6ZM35.1749 30.225H38.2499V30.75H35.1749V30.225ZM37.0499 20.4C37.6499 21 38.6249 22.275 38.7749 24.9C38.8499 26.025 38.6249 27.375 37.3499 27.75C36.8249 27.9 36.2249 27.825 35.6999 27.6C35.1749 27.3 34.7999 26.85 34.6499 26.325C34.4999 25.65 35.6999 22.875 37.0499 20.4ZM34.5749 43.65C34.6499 42.75 34.6499 41.775 34.6499 40.725C34.6499 35.175 36.1499 32.175 36.7499 32.175C37.3499 32.175 38.6999 35.1 38.6999 40.725C38.6999 41.625 38.6999 42.45 38.7749 43.275C38.7749 44.175 38.8499 45 38.7749 45.675V45.825L34.7249 48.225C34.4249 47.175 34.4999 45.525 34.5749 43.65ZM54.3749 56.625H23.3999L44.8499 44.1L51.3749 40.275L54.3749 38.55V56.625Z" fill="currentColor"/>
<path d="M50.1 45C49.875 44.85 49.5749 44.85 49.3499 45L38.2499 51.6C37.9499 51.75 37.7999 52.125 37.8749 52.425C37.9499 52.725 38.2499 52.95 38.6249 52.95H49.7249C50.1749 52.95 50.475 52.65 50.475 52.2V45.6C50.475 45.375 50.325 45.075 50.1 45ZM48.9749 51.45H41.3249L48.9749 46.875V51.45Z" fill="currentColor"/>
</svg>
