<?xml version="1.0" encoding="utf-8"?>
<!-- Generator: Adobe Illustrator 27.0.1, SVG Export Plug-In . SVG Version: 6.00 Build 0)  -->
<svg version="1.1" id="Layer_1" xmlns="http://www.w3.org/2000/svg" xmlns:xlink="http://www.w3.org/1999/xlink" x="0px" y="0px"
	 viewBox="0 0 54.3 40.5" style="enable-background:new 0 0 54.3 40.5;" xml:space="preserve">
<style type="text/css">
	.st0{fill:currentColor;}
</style>
<path class="st0" d="M10.3,33.1c0,0.1,0,0.3,0,0.5v5.3c0,0.4,0.2,0.7,0.5,0.9c0.1,0.1,0.3,0.1,0.5,0.1s0.4-0.1,0.6-0.2l6.2-4.5
	c0.2-0.1,0.2-0.1,0.5-0.1h2.1c5.6,0,10.9-1.7,15-4.9c1.4-1.1,2.6-2.3,3.5-3.6c0.1,0,0.1,0,0.2,0l4.9,3.6c0.2,0.1,0.4,0.2,0.6,0.2
	c0.2,0,0.3,0,0.5-0.1c0.3-0.2,0.5-0.5,0.5-0.9v-4.3c0-0.1,0-0.3,0-0.3c0-0.2,0.4-0.4,0.4-0.4c5-2.6,7.9-6.7,7.9-11.2
	c0-3.3-1.7-6.7-4.8-9.1c-3.3-2.6-7.6-4-12.1-4c-3.9,0-7.7,1.1-10.5,3C24.9,2.8,23,2.5,21,2.5c-5.6,0-10.9,1.7-15,4.9
	c-3.9,3-6,7.1-6,11.4c0,5.5,3.6,10.5,9.8,13.7C10,32.6,10.3,32.8,10.3,33.1z M34.5,28.7c-3.7,2.9-8.6,4.5-13.8,4.5h-2.1
	c-0.5,0-1,0-1.7,0.5l-4.6,3.4v-3.3c0-0.5,0-1.2-0.4-1.8c-0.3-0.5-0.7-0.9-1.3-1.2C5.1,27.9,2,23.6,2,18.9c0-3.8,1.9-7.3,5.2-9.9
	c3.7-2.9,8.6-4.5,13.8-4.5c1.3,0,2.5,0.1,3.7,0.3c-2.7,2.5-4.2,5.5-4.2,8.7c0,3.5,1.7,6.7,4.9,9.2c3.1,2.4,7.2,3.8,11.4,3.9
	C36.1,27.4,35.4,28.1,34.5,28.7z M45.4,22.8c-0.5,0.3-0.8,0.6-1.1,0.9c-0.3,0.5-0.4,1.2-0.4,1.6v2.3l-3.3-2.5
	c-0.1-0.1-0.1-0.1-0.3-0.2c-0.4-0.2-0.7-0.2-1-0.2c-0.1,0-0.1,0-0.2,0h-1h-0.7c-4.1,0-8-1.3-10.9-3.5c-2.6-2-4.1-4.7-4.1-7.6
	c0-2.8,1.5-5.6,4.1-7.8c0.2-0.2,0.4-0.3,0.6-0.4c0.3-0.3,0.7-0.5,1-0.7c0.4-0.2,0.8-0.5,1.2-0.7c2.3-1.1,5-1.8,7.8-1.8
	c4.1,0,8,1.3,10.9,3.5c2.6,2,4.1,4.8,4.1,7.7C52.2,17.1,49.7,20.5,45.4,22.8z"/>
</svg>
