<?xml version="1.0" encoding="utf-8"?>
<!-- Generator: Adobe Illustrator 27.0.1, SVG Export Plug-In . SVG Version: 6.00 Build 0)  -->
<svg version="1.1" id="Layer_1" xmlns="http://www.w3.org/2000/svg" xmlns:xlink="http://www.w3.org/1999/xlink" x="0px" y="0px"
	 viewBox="0 0 54.3 40.5" style="enable-background:new 0 0 54.3 40.5;" xml:space="preserve">
<style type="text/css">
	.st0{fill:currentColor;}
</style>
<path class="st0" d="M36.9,0c-4.2,0-8.1,1.1-11.2,3c-1.4-0.2-2.9-0.3-4.3-0.3c-5.7,0-11,1.7-14.8,4.5c-3.9,2.8-6.4,6.9-6.4,11.5
	c0,5.5,3.6,10.1,9,12.9V39c0,0.4,0.1,0.7,0.4,1c0.3,0.3,0.6,0.4,1,0.5c0.4,0,0.7-0.1,1-0.3l7.8-5.7h2c7.8,0,14.6-2.9,18.4-7.8l4.5,3
	c0.3,0.2,0.7,0.3,1,0.2c0.4,0,0.7-0.2,0.9-0.5c0.2-0.3,0.4-0.6,0.4-1v-5.4c4.3-2.2,7.5-5.9,7.5-10.4c0-3.7-2.1-6.9-5.2-9.2
	C45.8,1.3,41.5,0,36.9,0L36.9,0z M36.9,3c4.1,0,7.7,1.2,10.3,3c2.6,1.8,4,4.2,4,6.8c0,3.3-2.5,6.3-6.6,8.2c-0.3,0.1-0.5,0.3-0.6,0.5
	c-0.2,0.2-0.2,0.5-0.2,0.8v3.4l-4.4-2.9c-0.3-0.2-0.5-0.2-0.8-0.2h-1.5c-4.1,0-7.7-1.2-10.3-3c-2.6-1.8-4-4.2-4-6.7s1.4-4.9,4-6.8
	C29.2,4.2,32.8,3,36.9,3L36.9,3z M21.4,5.7c0.4,0,0.8,0,1.1,0c-1.8,2-2.9,4.4-2.9,7c0,3.7,2.1,6.9,5.3,9.2c3.1,2.2,7.4,3.6,12,3.6
	c-3.2,3.6-8.9,6-15.5,6h-2.5c-0.3,0-0.6,0.1-0.9,0.3L12.1,36v-5.3c0-0.3-0.1-0.6-0.2-0.8c-0.2-0.2-0.4-0.4-0.6-0.6
	C6.1,27,3.1,23.2,3.1,18.7c0-3.5,1.9-6.6,5.2-9C11.6,7.2,16.2,5.7,21.4,5.7L21.4,5.7z"/>
</svg>
