<?xml version="1.0" encoding="UTF-8" standalone="no"?>
<!DOCTYPE svg PUBLIC "-//W3C//DTD SVG 1.1//EN" "http://www.w3.org/Graphics/SVG/1.1/DTD/svg11.dtd">
<!-- Created with Vectornator (http://vectornator.io/) -->
<svg height="100%" stroke-miterlimit="10" style="fill-rule:nonzero;clip-rule:evenodd;stroke-linecap:round;stroke-linejoin:round;" version="1.1" viewBox="0 0 70 70" width="100%" xml:space="preserve" xmlns="http://www.w3.org/2000/svg" xmlns:xlink="http://www.w3.org/1999/xlink">
<defs/>
<g id="Untitled">
<path d="M17.575 37.4843C7.96883 37.4843 0.15439 44.1822 0.15439 52.4162C0.176154 54.3842 0.619971 56.3245 1.45588 58.1062C2.29178 59.8879 3.5003 61.4695 4.9998 62.7441C4.84475 64.5617 4.15114 66.2916 3.00764 67.7128C2.81222 67.9076 2.68714 68.1618 2.6521 68.4354C2.61706 68.7092 2.67405 68.9868 2.81407 69.2245C2.95411 69.4622 3.16923 69.6466 3.42558 69.7487C3.68194 69.8507 3.96496 69.8646 4.23007 69.7881C6.87257 68.9799 9.41573 67.877 11.8115 66.5C13.6809 67.0632 15.6226 67.349 17.575 67.3482C27.1812 67.3482 34.9956 60.6502 34.9956 52.4162C34.9956 44.1822 27.1812 37.4843 17.575 37.4843ZM17.575 64.8595C15.6961 64.8604 13.8296 64.5579 12.0472 63.9636C11.8753 63.9048 11.6924 63.885 11.5119 63.9056C11.3313 63.9262 11.1577 63.9867 11.0035 64.0827C9.62949 64.9117 8.19443 65.6348 6.71045 66.2456C7.15028 64.9854 7.43231 63.6758 7.55017 62.3462C7.5694 62.1435 7.53845 61.9392 7.46018 61.7513C7.38191 61.5633 7.25859 61.3975 7.10125 61.2683C5.74171 60.2218 4.63511 58.8826 3.86337 57.3503C3.09164 55.818 2.67457 54.1316 2.64305 52.4162C2.64305 45.5554 9.34166 39.9729 17.575 39.9729C25.8083 39.9729 32.5069 45.5554 32.5069 52.4162C32.5069 59.2771 25.8083 64.8595 17.575 64.8595ZM64.9914 25.4142C66.4909 24.1396 67.6995 22.558 68.5353 20.7763C69.3713 18.9946 69.8151 17.0543 69.8368 15.0863C69.8368 6.85232 62.0224 0.15439 52.4162 0.15439C42.8101 0.15439 34.9956 6.85232 34.9956 15.0863C34.9956 23.3204 42.8101 30.0183 52.4162 30.0183C54.3686 30.0191 56.3104 29.7333 58.1797 29.1702C60.5755 30.5471 63.1186 31.6501 65.7611 32.4583C66.0261 32.5339 66.3087 32.5195 66.5645 32.4172C66.8204 32.315 67.0351 32.1307 67.1749 31.8933C67.3147 31.6559 67.3718 31.3787 67.3371 31.1054C67.3025 30.8321 67.1782 30.5779 66.9835 30.3829C65.8401 28.9617 65.1464 27.2318 64.9914 25.4142L64.9914 25.4142ZM63.2804 28.9165C61.7966 28.3056 60.3614 27.5825 58.9875 26.7534C58.792 26.6333 58.5669 26.5698 58.3373 26.5699C58.2034 26.5695 58.0704 26.5913 57.9436 26.6343C56.1614 27.2284 54.2949 27.5307 52.4162 27.5296C44.1829 27.5296 37.4843 21.9472 37.4843 15.0863C37.4843 8.22549 44.1829 2.64305 52.4162 2.64305C60.6495 2.64305 67.3482 8.22549 67.3482 15.0863C67.3167 16.8018 66.8996 18.4883 66.1278 20.0207C65.356 21.5531 64.2494 22.8923 62.8897 23.9389C62.7323 24.068 62.6091 24.2338 62.5308 24.4217C62.4525 24.6097 62.4216 24.814 62.4408 25.0167C62.5587 26.3462 62.8407 27.656 63.2804 28.9162L63.2804 28.9165ZM18.7306 45.7328C18.6384 45.5017 18.4789 45.3036 18.273 45.164C18.0669 45.0245 17.8238 44.9499 17.575 44.9499C17.3262 44.9499 17.0831 45.0245 16.877 45.164C16.6711 45.3036 16.5116 45.5017 16.4193 45.7328L11.442 58.1761C11.3814 58.3279 11.3512 58.49 11.3533 58.6535C11.3553 58.8169 11.3896 58.9783 11.454 59.1285C11.5185 59.2787 11.6118 59.4147 11.7288 59.5288C11.8458 59.6429 11.9841 59.7328 12.1359 59.7935C12.2877 59.8541 12.4499 59.8842 12.6133 59.8822C12.7768 59.8801 12.9381 59.8459 13.0882 59.7815C13.2385 59.7171 13.3745 59.6237 13.4886 59.5068C13.6027 59.3897 13.6927 59.2513 13.7533 59.0996L14.9334 56.1493L20.2166 56.1493L21.3967 59.0996C21.4573 59.2513 21.5473 59.3897 21.6614 59.5068C21.7755 59.6237 21.9115 59.7171 22.0617 59.7815C22.2119 59.8459 22.3732 59.8801 22.5367 59.8822C22.7001 59.8842 22.8623 59.8541 23.0141 59.7935C23.1659 59.7328 23.3042 59.6429 23.4212 59.5288C23.5382 59.4147 23.6315 59.2787 23.696 59.1285C23.7604 58.9783 23.7947 58.8169 23.7967 58.6535C23.7987 58.49 23.7686 58.3279 23.708 58.1761L18.7306 45.7328ZM15.9289 53.6605L17.575 49.5448L19.2211 53.6605L15.9289 53.6605ZM56.8157 38.8793C56.9341 38.9942 57.0286 39.1315 57.0934 39.2832C57.1583 39.4349 57.1924 39.5979 57.1936 39.7629C57.1949 39.928 57.1633 40.0916 57.1007 40.2443C57.0381 40.3969 56.9459 40.5356 56.8292 40.6523C56.7125 40.769 56.5738 40.8613 56.4212 40.9239C56.2685 40.9865 56.1049 41.018 55.9399 41.0167C55.7749 41.0155 55.6118 40.9815 55.4601 40.9166C55.3084 40.8517 55.1711 40.7573 55.0562 40.6389L53.6605 39.2434L53.6605 48.6832C53.6586 50.3327 53.0025 51.914 51.8361 53.0805C50.6698 54.2468 49.0884 54.9029 47.4389 54.9049L38.7285 54.9049C38.3986 54.9049 38.0821 54.7738 37.8488 54.5404C37.6153 54.307 37.4843 53.9905 37.4843 53.6605C37.4843 53.3306 37.6153 53.0141 37.8488 52.7807C38.0821 52.5473 38.3986 52.4162 38.7285 52.4162L47.4389 52.4162C48.4286 52.4151 49.3775 52.0214 50.0773 51.3217C50.7772 50.6218 51.1708 49.6729 51.1719 48.6832L51.1719 39.2434L49.7762 40.6389C49.5417 40.8663 49.2271 40.9925 48.9004 40.99C48.5736 40.9875 48.261 40.8566 48.03 40.6255C47.799 40.3945 47.668 40.0818 47.6656 39.7552C47.6631 39.4284 47.7893 39.1138 48.0167 38.8793L51.5365 35.3602C51.6519 35.2446 51.7891 35.1529 51.9401 35.0904C52.091 35.0278 52.2528 34.9956 52.4162 34.9956C52.5796 34.9956 52.7415 35.0278 52.8923 35.0904C53.0433 35.1529 53.1805 35.2446 53.296 35.3602L56.8157 38.8793ZM13.1755 31.1119C13.0571 30.997 12.9626 30.8597 12.8978 30.7081C12.833 30.5563 12.7988 30.3933 12.7976 30.2283C12.7963 30.0632 12.8279 29.8996 12.8905 29.747C12.9531 29.5943 13.0454 29.4556 13.162 29.3389C13.2787 29.2223 13.4174 29.1299 13.57 29.0673C13.7227 29.0047 13.8863 28.9732 14.0513 28.9745C14.2164 28.9757 14.3794 29.0097 14.5312 29.0746C14.6828 29.1396 14.8201 29.2339 14.935 29.3523L16.3307 30.7478L16.3307 21.308C16.3327 19.6585 16.9888 18.0772 18.1551 16.9107C19.3214 15.7444 20.9028 15.0883 22.5523 15.0863L31.2627 15.0863C31.5926 15.0863 31.9091 15.2174 32.1424 15.4508C32.3759 15.6842 32.5069 16.0007 32.5069 16.3307C32.5069 16.6607 32.3759 16.9772 32.1424 17.2105C31.9091 17.4439 31.5926 17.575 31.2627 17.575L22.5523 17.575C21.5627 17.5761 20.6137 17.9698 19.9139 18.6696C19.214 19.3694 18.8204 20.3183 18.8193 21.308L18.8193 30.7478L20.215 29.3523C20.3299 29.2339 20.4672 29.1396 20.6188 29.0746C20.7706 29.0097 20.9336 28.9757 21.0987 28.9745C21.2637 28.9732 21.4273 29.0047 21.5799 29.0673C21.7326 29.1299 21.8713 29.2223 21.988 29.3389C22.1046 29.4556 22.1969 29.5943 22.2595 29.747C22.322 29.8996 22.3537 30.0632 22.3524 30.2283C22.3512 30.3933 22.317 30.5563 22.2522 30.7081C22.1873 30.8597 22.0929 30.997 21.9745 31.1119L18.4548 34.631C18.3393 34.7466 18.2021 34.8383 18.0511 34.9008C17.9001 34.9634 17.7384 34.9956 17.575 34.9956C17.4116 34.9956 17.2498 34.9634 17.0989 34.9008C16.9479 34.8383 16.8107 34.7466 16.6952 34.631L13.1755 31.1119ZM58.6378 10.109L53.6605 10.109L53.6605 8.86464C53.6605 8.53471 53.5294 8.21821 53.2961 7.98488C53.0628 7.75142 52.7463 7.62036 52.4162 7.62036C52.0862 7.62036 51.7697 7.75142 51.5363 7.98488C51.303 8.21821 51.1719 8.53471 51.1719 8.86464L51.1719 10.109L46.1946 10.109C45.8646 10.109 45.5481 10.2401 45.3147 10.4735C45.0813 10.7069 44.9502 11.0234 44.9502 11.3534C44.9502 11.6833 45.0813 11.9998 45.3147 12.2332C45.5481 12.4666 45.8646 12.5977 46.1946 12.5977L47.7058 12.5977C48.2965 14.6356 49.2969 16.5314 50.6461 18.1691C49.5728 19.0324 48.3531 19.696 47.0451 20.1282C46.8859 20.1763 46.738 20.2559 46.61 20.3622C46.482 20.4686 46.3767 20.5995 46.3002 20.7473C46.2237 20.8951 46.1777 21.0566 46.1648 21.2225C46.1518 21.3885 46.1723 21.5553 46.225 21.7131C46.2777 21.8708 46.3614 22.0166 46.4714 22.1414C46.5813 22.2663 46.7152 22.3679 46.8651 22.4401C47.015 22.5124 47.1778 22.5538 47.344 22.562C47.5102 22.5702 47.6763 22.545 47.8326 22.4878C49.508 21.9364 51.0634 21.0717 52.4162 19.9399C53.769 21.0717 55.3244 21.9364 56.9998 22.4878C57.1561 22.545 57.3222 22.5702 57.4884 22.562C57.6546 22.5538 57.8174 22.5124 57.9674 22.4401C58.1172 22.3679 58.2511 22.2663 58.361 22.1414C58.471 22.0166 58.5548 21.8708 58.6074 21.7131C58.6601 21.5553 58.6806 21.3885 58.6676 21.2225C58.6548 21.0566 58.6087 20.8951 58.5322 20.7473C58.4558 20.5995 58.3504 20.4686 58.2224 20.3622C58.0945 20.2559 57.9466 20.1763 57.7873 20.1282C56.4793 19.696 55.2596 19.0324 54.1863 18.1691C55.5355 16.5314 56.536 14.6356 57.1266 12.5977L58.6378 12.5977C58.9678 12.5977 59.2843 12.4666 59.5177 12.2332C59.7511 11.9998 59.8822 11.6833 59.8822 11.3534C59.8822 11.0234 59.7511 10.7069 59.5177 10.4735C59.2843 10.2401 58.9678 10.109 58.6378 10.109ZM52.4162 16.4148C51.5032 15.2713 50.7921 13.9804 50.3133 12.5977L54.5191 12.5977C54.0404 13.9804 53.3292 15.2713 52.4162 16.4148L52.4162 16.4148Z" fill="currentColor" fill-rule="nonzero" opacity="1" stroke="none"/>
</g>
</svg>
