<?xml version="1.0" encoding="utf-8"?>
<!-- Generator: Adobe Illustrator 27.0.1, SVG Export Plug-In . SVG Version: 6.00 Build 0)  -->
<svg version="1.1" id="Layer_1" xmlns="http://www.w3.org/2000/svg" xmlns:xlink="http://www.w3.org/1999/xlink" x="0px" y="0px"
	 viewBox="0 0 54.3 52.8" style="enable-background:new 0 0 54.3 52.8;" xml:space="preserve">
<style type="text/css">
	.st0{fill:currentColor;}
</style>
<path class="st0" d="M53.2,7.8c1.4-1.4,1.4-3.7,0-5.1s-3.7-1.4-5.1,0l-2.5,2.5V1c0-0.6-0.5-1-1-1H1.1c-0.6,0-1,0.5-1,1v41.7
	c0,0.3,0.1,0.6,0.3,0.7v0.1l6.8,6.8c0.2,0.2,0.5,0.3,0.8,0.3l0,0l0,0h25.7c0.1,0,0.2,0,0.3-0.1c2,1.4,4.4,2.3,7,2.3l0,0
	c6.5,0,11.8-5.3,11.9-11.9c0-4.9-3-9.1-7.3-10.9V15.3L53.2,7.8z M41,50.9c-5.5,0-9.9-4.4-9.9-9.9s4.4-9.9,9.9-9.9s9.9,4.4,9.9,9.9
	S46.5,50.9,41,50.9z M41,29c-6.5,0-11.9,5.3-11.9,11.9c0,2.9,1,5.5,2.7,7.5H9v-5.9c0-0.6-0.5-1-1-1H2.1V2.1h41.4v5.2L21.8,28.7
	c-0.1,0.1-0.2,0.2-0.2,0.4l-1.8,5.6c0,0.1,0,0.2,0,0.3c0,0.6,0.5,1,1,1c0.1,0,0.2,0,0.3-0.1l5.4-1.9c0.1-0.1,0.3-0.1,0.4-0.2
	l16.6-16.4v12C42.7,29.2,41.9,29,41,29z M3.5,43.7h3.4v3.4L3.5,43.7z M26.3,31.6l-2.1-2.1L45.3,8.6l2.1,2.1L26.3,31.6z M24.4,32.6
	l-1.9,0.7l0.6-1.9L24.4,32.6z M48.9,9.1L46.8,7l2.8-2.8c0.6-0.6,1.6-0.6,2.1,0c0.3,0.3,0.4,0.7,0.4,1.1c0,0.4-0.2,0.8-0.5,1.1
	L48.9,9.1z M47.5,43.8L42,40.4v-6.8c0-0.6-0.5-1-1-1c-0.6,0-1,0.5-1,1V41c0,0.4,0.2,0.7,0.5,0.9l6,3.7c0.2,0.1,0.4,0.2,0.5,0.2
	c0.4,0,0.7-0.2,0.9-0.5C48.1,44.7,48,44.1,47.5,43.8z M25.3,42.2c-0.8,0.2-1.6,0.3-2.4,0.2c0-0.1,0.1-0.1,0.1-0.2
	c0.8-1.4,0.9-2.7,0.2-3.8c-0.6-0.8-1.5-1.3-2.5-1.1c-1.1,0.2-2,1-2.4,2.3c-0.3,1-0.1,2.1,0.6,3c-0.1,0-0.3,0-0.4-0.1
	c-0.4-0.1-0.9-0.4-1.3-0.8l-0.1-0.1c-0.8-0.6-1.9-1.4-3.3-1.3c-1.5,0.1-2.7,1.1-3.6,2.8c-0.2,0.5,0,1.1,0.6,1.4
	c0.5,0.2,1.1,0,1.3-0.5c0.3-0.6,0.9-1.5,1.8-1.6c0.6,0,1.1,0.3,1.9,0.9c0.6,0.5,1.3,1,2.2,1.3c0.4,0.1,0.7,0.1,1.1,0.1
	c0.8,0,1.5-0.2,2.1-0.6c1.4,0.5,3,0.5,4.6,0.1c0.5-0.1,0.9-0.7,0.7-1.3C26.5,42.4,25.9,42,25.3,42.2z M21.6,39.6
	c0.2,0.3,0.1,0.9-0.2,1.5c-0.1,0.2-0.2,0.3-0.4,0.5c-0.1-0.1-0.1-0.1-0.2-0.2c-0.3-0.3-0.5-0.7-0.4-1.2s0.4-0.8,0.7-0.8v-0.5v0.5
	C21.3,39.3,21.5,39.4,21.6,39.6z M11.9,8.6h9.9c0.6,0,1-0.5,1-1s-0.5-1-1-1h-9.9c-0.6,0-1,0.5-1,1S11.3,8.6,11.9,8.6z M11.9,11.7
	h6.3c0.6,0,1-0.5,1-1s-0.5-1-1-1h-6.3c-0.6,0-1,0.5-1,1S11.3,11.7,11.9,11.7z M8.4,6.4H4.8c-0.6,0-1,0.5-1,1V11c0,0.6,0.5,1,1,1h3.6
	c0.6,0,1-0.5,1-1V7.4C9.4,6.8,9,6.4,8.4,6.4z M7.3,8.5V10H5.8V8.5H7.3z M11.9,18h9.9c0.6,0,1-0.5,1-1s-0.5-1-1-1h-9.9
	c-0.6,0-1,0.5-1,1S11.3,18,11.9,18z M11.9,21.1h12.9c0.6,0,1-0.5,1-1s-0.5-1-1-1H11.9c-0.6,0-1,0.5-1,1S11.3,21.1,11.9,21.1z
	 M8.4,15.9H4.8c-0.6,0-1,0.5-1,1v3.6c0,0.6,0.5,1,1,1h3.6c0.6,0,1-0.5,1-1v-3.6C9.4,16.3,9,15.9,8.4,15.9z M7.3,18v1.5H5.8V18H7.3z
	 M11.9,27.5h9c0.6,0,1-0.5,1-1c0-0.6-0.5-1-1-1h-9c-0.6,0-1,0.5-1,1C10.8,27,11.3,27.5,11.9,27.5z M11.9,30.7h6.3c0.6,0,1-0.5,1-1
	s-0.5-1-1-1h-6.3c-0.6,0-1,0.5-1,1S11.3,30.7,11.9,30.7z M8.4,25.4H4.8c-0.6,0-1,0.5-1,1V30c0,0.6,0.5,1,1,1h3.6c0.6,0,1-0.5,1-1
	v-3.6C9.4,25.8,9,25.4,8.4,25.4z M7.3,27.5V29H5.8v-1.5H7.3z"/>
</svg>
