<svg width="70" height="66" viewBox="0 0 70 66" fill="none" xmlns="http://www.w3.org/2000/svg">
<g clip-path="url(#clip0_1383_123521)">
<path d="M65.0324 0.837891H4.04766C1.81335 0.837891 0 2.65124 0 4.88555V45.4809C0 47.7152 1.81335 49.5285 4.04766 49.5285H37.4975C38.2315 51.1368 39.5807 51.2987 40.0233 51.5685L34.8638 60.7432C34.7019 61.0347 34.7343 61.4017 34.9502 61.6607C35.1661 61.9198 35.5223 62.0169 35.8461 61.8982L40.6817 60.1712L41.6963 65.1903C41.761 65.5249 42.0309 65.7731 42.3655 65.8271C42.4087 65.8271 42.4518 65.8271 42.495 65.8271C42.7864 65.8271 43.0563 65.676 43.1966 65.4169L48.3344 56.2962C48.8633 56.4149 49.1548 56.3934 49.5433 56.3178L54.6812 65.4169C54.8215 65.676 55.1021 65.8271 55.3828 65.8271C55.4259 65.8271 55.4691 65.8271 55.5123 65.8271C55.8469 65.7731 56.1167 65.5141 56.1815 65.1903L57.1961 60.1712L62.0317 61.8982C62.3447 62.0169 62.7009 61.9198 62.9276 61.6607C63.1435 61.4017 63.1759 61.0347 63.014 60.7432L57.8653 51.6225C58.7072 51.126 59.8838 50.813 60.4234 49.5393H65.0324C67.2667 49.5393 69.08 47.726 69.08 45.4917V4.88555C69.08 2.65124 67.2667 0.837891 65.0324 0.837891ZM12.3589 42.5126C11.9919 39.7386 9.78994 37.5259 7.01594 37.1697V13.1967C9.78994 12.8298 12.0027 10.6278 12.3589 7.85383H56.7212C57.0882 10.6278 59.2901 12.8405 62.0641 13.1967V37.1697C61.5784 37.2344 61.1143 37.3532 60.6609 37.5259C60.1752 35.2916 57.4875 35.5182 57.0342 33.9747C56.4513 32.0318 54.2386 31.0928 52.857 31.6433C51.8964 31.7944 51.3783 31.2223 51.2056 31.1036C49.8672 29.9271 47.8919 29.9487 46.5859 31.1791C45.9274 31.7944 45.3122 31.6972 44.7185 31.6001C42.862 31.2871 41.3185 32.3988 40.8328 33.9855C40.6601 34.5684 40.2067 35.0217 39.6131 35.1944C38.0912 35.6585 36.947 37.1265 37.2277 39.1233C37.5407 41.2281 36.4397 40.4834 35.9756 42.5234H12.3589V42.5126ZM42.8512 62.7401L42.0849 58.9407C42.0417 58.714 41.8906 58.5089 41.6855 58.401C41.5668 58.3362 41.4264 58.2931 41.2861 58.2931C41.1998 58.2931 41.1026 58.3038 41.0163 58.3362L37.3356 59.6531L41.0271 53.1013C41.6747 54.4721 42.7433 55.0873 44.2004 55.0549C45.2906 55.0333 45.3985 54.5584 46.8449 55.6486L42.8404 62.7509L42.8512 62.7401ZM56.8615 58.3362C56.6348 58.2607 56.3974 58.2823 56.1923 58.3902C55.9872 58.5089 55.8469 58.7032 55.7929 58.9299L55.0266 62.7401L51.0221 55.6378C52.5656 54.4721 52.4684 55.0441 53.7421 55.0441C55.8577 55.0441 56.6456 53.3387 56.8507 53.0905L60.5422 59.6423L56.8615 58.3362ZM55.7605 51.493C55.3828 52.1838 55.1453 53.7273 53.2132 53.3711C50.2018 52.7882 49.7484 56.1019 47.6976 54.2238C45.1935 51.8816 43.909 55.1952 42.236 51.752C41.0918 49.1184 38.3394 50.3704 38.8683 47.6072C39.095 46.3444 38.728 45.2974 38.0048 44.5418C37.4004 43.905 37.2924 42.8472 38.0156 42.0592C39.3972 40.5805 38.8036 39.0586 38.8036 38.5081C38.8036 36.1767 41.5668 37.2884 42.3979 34.4604C42.6461 33.6617 43.4125 33.0357 44.4703 33.2084C45.1611 33.3271 46.4671 33.543 47.7084 32.3772C48.4316 31.708 49.4786 31.708 50.191 32.3772C51.1624 33.2731 52.6519 33.5106 53.4399 33.1868C54.3358 33.0357 55.2316 33.5754 55.5015 34.4496C56.3542 37.3748 59.6463 36.2414 59.0526 38.9398C58.772 40.2999 59.2685 41.5303 59.9593 42.1348C61.2006 43.5812 59.4412 45.0167 59.8946 44.5634C58.772 45.7507 58.9447 46.9812 59.0526 47.7152C59.4304 50.3057 56.991 49.3019 55.7821 51.5146L55.7605 51.493ZM67.4718 45.4809C67.4718 46.8193 66.3816 47.9095 65.0432 47.9095H60.6825C60.6825 47.7691 60.6609 47.618 60.6393 47.4561C60.4234 45.9666 60.9523 45.8802 61.0495 45.6536H61.0603C62.4527 44.164 62.1504 41.8218 60.9955 40.8719C60.6609 40.4726 60.4882 39.9545 60.5961 39.35C62.3879 38.3354 63.6832 39.1557 63.6832 37.9252V12.4412C63.6832 11.9986 63.3162 11.6316 62.8736 11.6316C60.3479 11.6316 58.2863 9.57004 58.2863 7.0443C58.2863 6.60176 57.9193 6.23477 57.4768 6.23477H11.6033C11.1607 6.23477 10.7938 6.60176 10.7938 7.0443C10.7938 9.57004 8.73215 11.6316 6.20641 11.6316C5.76387 11.6316 5.39688 11.9986 5.39688 12.4412V37.9252C5.39688 38.3678 5.76387 38.7348 6.20641 38.7348C8.73215 38.7348 10.7938 40.7964 10.7938 43.3221C10.7938 43.7647 11.1607 44.1316 11.6033 44.1316H35.9972C36.4289 45.8155 37.5515 45.7399 37.26 47.305C37.2277 47.4993 37.1953 47.6936 37.1845 47.9095H4.04766C2.70923 47.9095 1.61906 46.8193 1.61906 45.4809V4.88555C1.61906 3.54712 2.70923 2.45695 4.04766 2.45695H65.0324C66.3708 2.45695 67.461 3.54712 67.461 4.88555V45.4809H67.4718Z" fill="currentColor" stroke="currentColor" stroke-width="0.7"/>
<path d="M48.9389 35.4858C44.6322 35.4858 41.1243 38.983 41.1243 43.2897C41.1243 47.5964 44.6322 51.0936 48.9389 51.0936C53.2457 51.0936 56.7428 47.5964 56.7428 43.2897C56.7428 38.983 53.2457 35.4858 48.9389 35.4858ZM48.9389 49.4746C45.5173 49.4746 42.7433 46.7006 42.7433 43.2897C42.7433 39.8789 45.5281 37.1049 48.9389 37.1049C52.3498 37.1049 55.1238 39.8789 55.1238 43.2897C55.1238 46.7006 52.3498 49.4746 48.9389 49.4746Z" fill="currentColor" stroke="currentColor" stroke-width="0.7"/>
<path d="M29.1538 26.7754V26.7538L27.4808 22.7709C27.3944 22.555 27.1893 22.4147 26.9519 22.4147C26.7144 22.4147 26.5093 22.555 26.423 22.7709L24.7608 26.7538V26.7754L23.5626 29.6249C23.4439 29.9163 23.5734 30.2509 23.8649 30.3697C24.1563 30.4884 24.4909 30.3589 24.6096 30.0674L25.6566 27.5633H28.2256L29.2725 30.0674C29.3589 30.2833 29.5748 30.4236 29.8014 30.4236C29.877 30.4236 29.9526 30.4128 30.0173 30.3805C30.3087 30.2617 30.4491 29.9271 30.3195 29.6357L29.1322 26.7861L29.1538 26.7754ZM26.1531 26.4192L26.9627 24.4763L27.7722 26.4192H26.1531Z" fill="currentColor"/>
<path d="M49.2302 11.5669H34.378C33.1152 11.5669 32.0898 12.5923 32.0898 13.8552V20.1371H19.5258C18.263 20.1371 17.2375 21.1625 17.2375 22.4254V30.9957C17.2375 32.2585 18.263 33.2839 19.5258 33.2839H21.242V37.2776C21.242 37.5043 21.3824 37.7202 21.5982 37.8065C21.663 37.8389 21.7385 37.8497 21.8141 37.8497C21.9652 37.8497 22.1163 37.7957 22.2243 37.6878L26.6173 33.2839H34.378C35.6409 33.2839 36.6663 32.2585 36.6663 30.9957V24.7137H42.1387L46.5318 29.1175C46.6397 29.2255 46.7909 29.2794 46.942 29.2794C47.0175 29.2794 47.0931 29.2687 47.1578 29.2363C47.3737 29.1499 47.514 28.934 47.514 28.7074V24.7137H49.2302C50.4931 24.7137 51.5185 23.6883 51.5185 22.4254V13.8552C51.5185 12.5923 50.4931 11.5669 49.2302 11.5669ZM35.5222 24.1308V30.9849C35.5222 31.6109 35.0041 32.129 34.378 32.129H26.3799C26.2287 32.129 26.0776 32.1938 25.9697 32.2909L22.3754 35.8852V32.6903C22.3754 32.3773 22.1163 32.1182 21.8033 32.1182H19.515C18.889 32.1182 18.3709 31.6001 18.3709 30.9741V22.4038C18.3709 21.7778 18.889 21.2597 19.515 21.2597H34.3672C34.9933 21.2597 35.5114 21.7778 35.5114 22.4038V24.12L35.5222 24.1308ZM44.8372 20.7308C45.1394 20.8387 45.2905 21.1518 45.1934 21.454C45.1178 21.6914 44.8911 21.8426 44.6537 21.8426C44.5997 21.8426 44.535 21.8318 44.4702 21.8102C43.3476 21.4324 42.4734 20.9575 41.7933 20.4178C41.1241 20.9467 40.2498 21.4324 39.1165 21.8102C39.0517 21.8318 38.987 21.8426 38.933 21.8426C38.6955 21.8426 38.4689 21.6914 38.3933 21.454C38.2962 21.1518 38.4581 20.8279 38.7495 20.7308C39.667 20.4286 40.3902 20.0508 40.9514 19.6298C39.7965 18.3346 39.5482 16.9314 39.5051 16.1327H38.9438C38.6308 16.1327 38.3717 15.8736 38.3717 15.5606C38.3717 15.2476 38.6308 14.9885 38.9438 14.9885H41.2321V14.4164C41.2321 14.1034 41.4911 13.8444 41.8041 13.8444C42.1172 13.8444 42.3762 14.1034 42.3762 14.4164V14.9885H44.6645C44.9775 14.9885 45.2366 15.2476 45.2366 15.5606C45.2366 15.8736 44.9775 16.1327 44.6645 16.1327H44.1032C44.06 16.9314 43.801 18.3346 42.6568 19.6298C43.2181 20.0508 43.9413 20.4286 44.8588 20.7308H44.8372Z" fill="currentColor"/>
<path d="M41.8148 18.8743C42.7323 17.8381 42.9374 16.7479 42.9698 16.1434H40.6599C40.6923 16.7587 40.8974 17.8488 41.8148 18.8743Z" fill="currentColor"/>
</g>
<defs>
<clipPath id="clip0_1383_123521">
<rect width="69.08" height="65" fill="currentColor" transform="translate(0 0.837891)"/>
</clipPath>
</defs>
</svg>
