<svg width="60" height="60" viewBox="0 0 60 60" fill="none" xmlns="http://www.w3.org/2000/svg">
<path d="M48 9H42V3H6V45H12V51H18V57H54V21.9L48 15.9V9ZM21 54V18H43.5V25.5H51V54H21ZM15 12H45V15H18V48H15V12ZM9 6H39V9H12V42H9V6ZM46.5 22.5V18.6L50.4 22.5H46.5Z" fill="currentColor"/>
<path d="M24 40.5V43.5H40.5H48V40.5H24Z" fill="currentColor"/>
<path d="M24 46.5V49.5H46.5H48V46.5H24Z" fill="currentColor"/>
<path d="M48 34.5H24V37.5H48V34.5Z" fill="currentColor"/>
<path d="M48 28.5H24V31.5H48V28.5Z" fill="currentColor"/>
</svg>
