<svg width="24" height="24" viewBox="0 0 24 24" fill="none" xmlns="http://www.w3.org/2000/svg">
<path d="M21.5277 16.332V20.55C21.5277 20.634 21.5157 20.712 21.4977 20.784C21.4137 21.198 21.0477 21.51 20.6157 21.51H3.37768C2.91568 21.51 2.53168 21.156 2.48368 20.706C2.47168 20.652 2.47168 20.604 2.47168 20.544V16.326C2.47168 15.828 2.87968 15.426 3.37168 15.426C3.61768 15.426 3.84568 15.528 4.00768 15.69C4.16968 15.852 4.27168 16.08 4.27168 16.326V19.704H19.7337V16.326C19.7337 15.828 20.1417 15.426 20.6337 15.426C20.8797 15.426 21.1077 15.528 21.2697 15.69C21.4257 15.858 21.5277 16.086 21.5277 16.332Z" fill="#C05600"/>
<path d="M17.1898 12.108L12.7678 16.53C12.7618 16.542 12.7498 16.548 12.7438 16.554C12.5818 16.716 12.3718 16.818 12.1618 16.848C12.1438 16.848 12.1258 16.854 12.1078 16.854C12.0718 16.86 12.0358 16.86 11.9998 16.86L11.8978 16.854C11.8798 16.854 11.8618 16.848 11.8438 16.848C11.6278 16.818 11.4238 16.716 11.2618 16.554C11.2558 16.548 11.2438 16.536 11.2378 16.53L6.81577 12.108C6.61177 11.904 6.50977 11.634 6.50977 11.364C6.50977 11.094 6.61177 10.824 6.81577 10.62C7.22377 10.212 7.88977 10.212 8.30377 10.62L10.9618 13.278V3.53999C10.9618 2.96399 11.4358 2.48999 12.0118 2.48999C12.2998 2.48999 12.5638 2.60999 12.7558 2.79599C12.9478 2.98799 13.0618 3.24599 13.0618 3.53999V13.278L15.7198 10.62C16.1278 10.212 16.7938 10.212 17.2078 10.62C17.5978 11.034 17.5978 11.7 17.1898 12.108Z" fill="#C05600"/>
</svg>
