<?xml version="1.0" encoding="utf-8"?>
<!-- Generator: Adobe Illustrator 27.0.1, SVG Export Plug-In . SVG Version: 6.00 Build 0)  -->
<svg version="1.1" id="Layer_1" xmlns="http://www.w3.org/2000/svg" xmlns:xlink="http://www.w3.org/1999/xlink" x="0px" y="0px"
	 viewBox="0 0 54.3 50" style="enable-background:new 0 0 54.3 50;" xml:space="preserve">
<style type="text/css">
	.st0{fill:currentColor;}
</style>
<path class="st0" d="M23.2,9.7H9.4c-0.6,0-1.1,0.5-1.1,1.1s0.5,1.1,1.1,1.1h13.8c0.6,0,1.1-0.5,1.1-1.1c0-0.3-0.1-0.5-0.3-0.7
	C23.8,9.8,23.5,9.7,23.2,9.7z M23.2,14.6H9.4c-0.6,0-1.1,0.5-1.1,1.1s0.5,1.1,1.1,1.1h13.8c0.6,0,1.1-0.5,1.1-1.1
	c0-0.3-0.1-0.5-0.3-0.7C23.8,14.8,23.5,14.6,23.2,14.6z M23.2,19.6H9.4c-0.6,0-1.1,0.5-1.1,1.1s0.5,1.1,1.1,1.1h13.8
	c0.6,0,1.1-0.5,1.1-1.1c0-0.3-0.1-0.5-0.3-0.7C23.8,19.8,23.5,19.6,23.2,19.6z M23.2,24.6H9.4c-0.6,0-1.1,0.5-1.1,1.1
	s0.5,1.1,1.1,1.1h13.8c0.6,0,1.1-0.5,1.1-1.1S23.8,24.6,23.2,24.6z M23.2,29.6H9.4c-0.6,0-1.1,0.5-1.1,1.1s0.5,1.1,1.1,1.1h13.8
	c0.6,0,1.1-0.5,1.1-1.1c0-0.3-0.1-0.5-0.3-0.8C23.8,29.7,23.5,29.6,23.2,29.6z M23.2,34.6H9.4c-0.6,0-1.1,0.5-1.1,1.1
	s0.5,1.1,1.1,1.1h13.8c0.6,0,1.1-0.5,1.1-1.1c0-0.3-0.1-0.5-0.3-0.8C23.8,34.7,23.5,34.6,23.2,34.6z M31.1,11.8h5.3
	c0.6,0,1.1-0.5,1.1-1.1S37,9.6,36.4,9.6h-5.3c-0.6,0-1.1,0.5-1.1,1.1S30.5,11.8,31.1,11.8z M31.1,16.8h5.3c0.6,0,1.1-0.5,1.1-1.1
	s-0.5-1.1-1.1-1.1h-5.3c-0.6,0-1.1,0.5-1.1,1.1S30.5,16.8,31.1,16.8z M31.1,21.8h5.3c0.6,0,1.1-0.5,1.1-1.1s-0.5-1.1-1.1-1.1h-5.3
	c-0.6,0-1.1,0.5-1.1,1.1S30.5,21.8,31.1,21.8z M31.1,26.8h5.3c0.6,0,1.1-0.5,1.1-1.1s-0.5-1.1-1.1-1.1h-5.3c-0.6,0-1.1,0.5-1.1,1.1
	S30.5,26.8,31.1,26.8z M31.1,31.8h5.5c0.6,0,1.1-0.5,1.1-1.1s-0.5-1.1-1.1-1.1h-5.5c-0.6,0-1.1,0.5-1.1,1.1S30.5,31.8,31.1,31.8z
	 M38,34.6h-7c-0.6,0-1.1,0.5-1.1,1.1s0.5,1.1,1.1,1.1h7c0.6,0,1.1-0.5,1.1-1.1S38.6,34.6,38,34.6z M53.9,8.3l-4.4-3.6
	c-0.1-0.1-0.1-0.1-0.2-0.1l-0.1-0.1c-0.1-0.1-0.3-0.1-0.4-0.1h-1.9V2.3c0-0.6-0.2-1.2-0.6-1.6c-0.4-0.4-1-0.7-1.6-0.7h-3.5
	C40,0,39,1,39,2.3v2.2h-7.8c-1.6,0-3.1,0.7-4,2c-1-1.3-2.5-2-4.1-2H5.5c-0.1,0-0.2,0-0.4,0.1H5c0,0-0.1,0.1-0.2,0.1L0.4,8.3
	C0.2,8.5,0,8.8,0,9.1v36c0,0.6,0.5,1.1,1.1,1.1h20.5c0.5,2.2,2.4,3.7,4.7,3.7H28c2.2,0,4.2-1.6,4.7-3.7h20.5c0.6,0,1.1-0.5,1.1-1.1
	v-36C54.2,8.8,54.1,8.5,53.9,8.3z M6.6,39.7V6.6h16.5c1.6,0,3,1.3,3,3v30.1H6.6z M41.1,29V2.3V2.2h0.1h3.5h0.1c0,0,0,0,0,0.1V29
	H41.1z M44.1,31.1l-1.2,2.3l-1.2-2.3C41.7,31.1,44.1,31.1,44.1,31.1z M39.3,30.3l-0.1,0.1h-0.1l2.9,5.8c0.2,0.4,0.5,0.6,0.9,0.6
	s0.8-0.2,0.9-0.6l2.9-5.6v-0.1l0,0v-0.1c0-0.1,0-0.2,0.1-0.3V6.6h0.8v33.1H28.1V9.6c0-1.6,1.3-3,3-3H39V30v0.1c0,0.1,0,0.2,0.1,0.3
	L39.3,30.3L39.3,30.3z M50.6,44.1H31.8c-0.6,0-1.1,0.5-1.1,1.1c0,1.5-1.2,2.7-2.7,2.7h-1.8c-1.5,0-2.7-1.2-2.7-2.7
	c0-0.6-0.5-1.1-1.1-1.1H3.7l2.2-2.2h42.4L50.6,44.1z M4.4,7.8v32.6l-2.3,2.2v-33L4.4,7.8z M52.1,9.6v33l-2.3-2.2V7.8L52.1,9.6z"/>
</svg>
