<svg width="23" height="24" viewBox="0 0 23 24" fill="none" xmlns="http://www.w3.org/2000/svg">
<path fill-rule="evenodd" clip-rule="evenodd" d="M13.1426 19.8319V17.0918C13.1456 17.0324 13.1373 16.973 13.1183 16.9169C13.0992 16.8608 13.0698 16.8092 13.0316 16.7649C12.9934 16.7207 12.9472 16.6848 12.8958 16.6592C12.8443 16.6336 12.7885 16.6189 12.7315 16.6158H10.2675C10.2106 16.6189 10.1548 16.6336 10.1033 16.6592C10.0518 16.6848 10.0056 16.7207 9.96746 16.7649C9.92928 16.8092 9.89982 16.8608 9.88077 16.9169C9.86171 16.973 9.85343 17.0324 9.85641 17.0918V19.8319C9.85343 19.8913 9.86171 19.9508 9.88077 20.0069C9.89982 20.063 9.92928 20.1146 9.96746 20.1588C10.0056 20.203 10.0518 20.2389 10.1033 20.2645C10.1548 20.2901 10.2106 20.3048 10.2675 20.3079H12.7325C12.8473 20.3015 12.955 20.2477 13.0319 20.1584C13.1088 20.0692 13.1486 19.9518 13.1426 19.8319V19.8319ZM13.1168 14.4378L13.3477 7.81761C13.347 7.76489 13.3351 7.71299 13.3129 7.66563C13.2907 7.61826 13.2587 7.57659 13.2193 7.54361C13.1373 7.45529 13.0287 7.39914 12.9117 7.3846H10.0883C9.97132 7.39914 9.86268 7.45529 9.7807 7.54361C9.74085 7.58186 9.7089 7.6282 9.68682 7.67979C9.66474 7.73137 9.65298 7.78712 9.65227 7.84362L9.87078 14.4348C9.87078 14.6228 10.0625 14.7668 10.3068 14.7668H12.6817C12.7804 14.7775 12.8795 14.7499 12.9599 14.6892C13.0404 14.6285 13.0966 14.539 13.1177 14.4378H13.1168ZM12.9375 0.965451L22.7962 21.2739C22.9344 21.556 23.0043 21.8691 22.9998 22.1858C22.9953 22.5026 22.9165 22.8133 22.7704 23.091C22.6346 23.3605 22.432 23.5871 22.1837 23.747C21.9354 23.9069 21.6504 23.9943 21.3587 24H1.64131C1.34956 23.9943 1.06463 23.9069 0.816302 23.747C0.567975 23.5871 0.365364 23.3605 0.22964 23.091C0.083488 22.8133 0.00471588 22.5026 0.000205271 22.1858C-0.00430534 21.8691 0.0655828 21.556 0.203764 21.2739L10.0625 0.965451C10.188 0.677542 10.3903 0.433418 10.6452 0.262225C10.9001 0.0910307 11.1969 0 11.5 0C11.8031 0 12.0999 0.0910307 12.3548 0.262225C12.6097 0.433418 12.812 0.677542 12.9375 0.965451V0.965451Z" fill="currentColor"/>
</svg>
