<svg width="70" height="70" viewBox="0 0 70 70" fill="none" xmlns="http://www.w3.org/2000/svg">
<path d="M44.8821 46.6583C44.9779 46.6582 45.0721 46.6333 45.1555 46.5861M44.8821 46.6583C44.7764 46.6585 44.673 46.6277 44.5846 46.5697C44.4642 46.4905 32.7374 38.9434 22.6144 39.54C22.5301 39.5449 22.4459 39.5505 22.3618 39.5566L22.4177 39.8032C22.5018 39.7973 22.5861 39.7919 22.6704 39.7871M44.8821 46.6583L44.8823 46.9083C44.8824 46.9083 44.8825 46.9083 44.8826 46.9083M44.8821 46.6583L44.8826 46.9083M45.1555 46.5861L19.3048 52.9108C19.3446 53.0869 19.4431 53.2443 19.584 53.3572C19.725 53.4701 19.9003 53.5318 20.0809 53.532H20.0813H20.1108V53.5324L20.1238 53.5317L24.7766 53.2911L24.7637 53.0414L24.7766 53.2911C24.8924 53.2851 25.0056 53.2539 25.1081 53.1996C25.2107 53.1453 25.3001 53.0693 25.3703 52.9769C25.4404 52.8845 25.4895 52.7778 25.5141 52.6644C25.5387 52.5511 25.5383 52.4337 25.5129 52.3205L25.5128 52.32L22.6704 39.7871M45.1555 46.5861C45.2428 46.5356 45.3144 46.4621 45.3624 46.3735C45.4105 46.2849 45.4331 46.1847 45.4279 46.0841L45.6775 46.0712L45.6775 46.071L44.1922 17.2247L44.1922 17.2244C44.1843 17.0725 44.1329 16.9259 44.0443 16.8022C43.9557 16.6784 43.8336 16.5827 43.6922 16.5262C43.5509 16.4697 43.3964 16.4548 43.2469 16.4834C43.0974 16.512 42.9592 16.5827 42.8487 16.6873L42.8485 16.6875C33.556 25.5 21.242 25.8338 21.0338 25.8381H21.0219V25.8378L21.0093 25.8385L14.6196 26.1611L14.6196 26.1611C13.2319 26.2314 11.8963 26.7118 10.7818 27.5414C9.66719 28.371 8.82379 29.5127 8.35827 30.8218C7.89275 32.1309 7.82604 33.5487 8.16659 34.8958C8.50711 36.2428 9.23951 37.4584 10.2711 38.389C10.9547 39.0087 11.7544 39.4866 12.6239 39.7952C13.4934 40.1038 14.4155 40.2369 15.3368 40.1868C15.3369 40.1868 15.337 40.1868 15.3371 40.1868L16.407 40.1311L19.3048 52.9105L45.1555 46.5861ZM22.6704 39.7871C27.6194 39.5066 32.9714 41.19 37.1462 42.9856C39.2708 43.8994 41.0829 44.8389 42.3711 45.5548C43.0151 45.9126 43.5279 46.2145 43.8831 46.4291C44.0607 46.5364 44.1988 46.6218 44.2942 46.6815C44.3419 46.7114 44.3789 46.7348 44.4047 46.7513L44.4351 46.7707L44.4437 46.7763L44.4462 46.7779L44.447 46.7784L44.4472 46.7786L44.4474 46.7787C44.5767 46.8635 44.728 46.9086 44.8826 46.9083M22.6704 39.7871L44.8826 46.9083M23.8219 38.1538C28.1484 38.1538 32.5841 39.4114 36.2864 40.8766C39.6736 42.2169 42.4604 43.7363 44.008 44.6435L42.6849 18.9597C36.5529 23.9724 28.9988 26.938 21.0856 27.4314L21.0826 27.4316L21.0826 27.4316L14.7006 27.7531L14.7001 27.7532C13.9875 27.7877 13.2889 27.9631 12.6446 28.2694C12.0002 28.5757 11.423 29.0067 10.9464 29.5375L10.8187 29.6797C10.1712 30.4503 9.74992 31.387 9.60385 32.3855C9.44842 33.4479 9.61162 34.5326 10.0728 35.5022C10.5339 36.4719 11.2723 37.283 12.1946 37.8329C13.1168 38.3828 14.1814 38.6469 15.2538 38.5916L15.2538 38.5916L21.6413 38.2638C22.3657 38.1885 23.0936 38.1517 23.8219 38.1538ZM23.8219 38.1538C23.8222 38.1538 23.8224 38.1538 23.8226 38.1538L23.8219 38.4038V38.1538ZM20.7107 51.9037L18.0282 40.0469L21.0653 39.8904L23.7531 51.7472L20.7107 51.9037Z" fill="currentColor" stroke="currentColor" stroke-width="0.5"/>
<path d="M56.0596 21.9586L56.0594 21.9584L55.9523 21.86C55.8749 21.7906 55.8119 21.7066 55.7667 21.613C55.7213 21.5187 55.6948 21.4164 55.6889 21.3119C55.683 21.2075 55.6977 21.1028 55.7322 21.004C55.7667 20.9052 55.8204 20.8142 55.8901 20.7362C55.9597 20.6581 56.0441 20.5945 56.1384 20.5491C56.2327 20.5036 56.335 20.4772 56.4394 20.4712C56.5439 20.4653 56.6485 20.48 56.7473 20.5146C56.8459 20.549 56.9368 20.6025 57.0148 20.672L57.138 20.7811L57.1413 20.7839L57.1412 20.784C60.0929 23.4889 61.851 27.2542 62.0299 31.2537C62.2088 35.253 60.7941 39.1599 58.0961 42.1174C58.0219 42.1999 57.9311 42.2659 57.8297 42.3109C57.7281 42.3561 57.6181 42.3793 57.507 42.3791C57.5068 42.3791 57.5066 42.3791 57.5065 42.3791L57.5072 42.1291C57.4012 42.129 57.2975 42.0981 57.2087 42.0402C57.1199 41.9822 57.0499 41.8998 57.0072 41.8028C56.9644 41.7058 56.9508 41.5985 56.9679 41.4939C56.985 41.3893 57.0321 41.2919 57.1036 41.2136C59.5599 38.5172 60.8471 34.957 60.6831 31.3132C60.5191 27.6694 58.9172 24.2392 56.2286 21.7744L56.0596 21.9586ZM56.0596 21.9586C58.6995 24.3788 60.2723 27.7467 60.4334 31.3244C60.5944 34.902 59.3306 38.3976 56.9189 41.0451L56.0596 21.9586Z" fill="currentColor" stroke="currentColor" stroke-width="0.5"/>
<path d="M51.9661 37.4619L51.9659 37.4617C51.8101 37.3192 51.7171 37.1206 51.7076 36.9097C51.698 36.6987 51.7726 36.4925 51.9149 36.3365M51.9661 37.4619L51.9149 36.3365M51.9661 37.4619C52.1222 37.6042 52.3283 37.6788 52.5393 37.6692C52.7503 37.6597 52.9488 37.5667 53.0913 37.4109L52.9068 37.2422M51.9661 37.4619L52.9068 37.2422M51.9149 36.3365L52.0996 36.5049L51.9149 36.3365C51.9149 36.3365 51.9149 36.3365 51.9149 36.3365ZM52.9068 37.2422L53.0913 37.4109C53.811 36.6237 54.3681 35.7021 54.7305 34.6989C55.0929 33.6958 55.2536 32.631 55.2032 31.5656C55.1529 30.5002 54.8926 29.4552 54.4372 28.4907C53.9818 27.5263 53.3403 26.6613 52.5496 25.9454L52.5139 25.913L52.514 25.9129M52.9068 37.2422L52.514 25.9129M52.514 25.9129L52.5082 25.908M52.514 25.9129L52.5082 25.908M52.5082 25.908C52.4302 25.8412 52.3395 25.7908 52.2416 25.7597C52.1437 25.7287 52.0405 25.7176 51.9383 25.7271C51.836 25.7366 51.7367 25.7666 51.6462 25.8152C51.5557 25.8638 51.4759 25.9301 51.4115 26.0102L51.4115 26.0102M52.5082 25.908L51.4115 26.0102M51.4115 26.0102L51.4111 26.0107M51.4115 26.0102L51.4111 26.0107M51.4111 26.0107C51.2782 26.1769 51.214 26.3877 51.2318 26.5997M51.4111 26.0107L51.2318 26.5997M51.2318 26.5997C51.2495 26.8111 51.3473 27.0078 51.5052 27.1495L51.2318 26.5997Z" fill="currentColor" stroke="currentColor" stroke-width="0.5"/>
</svg>
