<svg width="60" height="60" viewBox="0 0 60 60" fill="none" xmlns="http://www.w3.org/2000/svg">
<path d="M25.845 13.983H11.173C10.7 13.983 10.3105 14.3724 10.3105 14.8455C10.3105 15.3185 10.7 15.708 11.173 15.708H25.8355C26.3086 15.708 26.698 15.3185 26.698 14.8455C26.7072 14.3724 26.3178 13.983 25.8447 13.983H25.845Z" fill="currentColor"/>
<path d="M25.845 19.279H11.173C10.7 19.279 10.3105 19.6684 10.3105 20.1415C10.3105 20.6145 10.7 21.004 11.173 21.004H25.8355C26.3086 21.004 26.698 20.6145 26.698 20.1415C26.7072 19.6684 26.3178 19.279 25.8447 19.279H25.845Z" fill="currentColor"/>
<path d="M25.845 24.584H11.173C10.7 24.584 10.3105 24.9734 10.3105 25.4465C10.3105 25.9195 10.7 26.309 11.173 26.309H25.8355C26.3086 26.309 26.698 25.9195 26.698 25.4465C26.7072 24.9734 26.3178 24.584 25.8447 24.584H25.845Z" fill="currentColor"/>
<path d="M25.845 29.8795H11.173C10.7 29.8795 10.3105 30.269 10.3105 30.742C10.3105 31.2151 10.7 31.6045 11.173 31.6045H25.8355C26.3086 31.6045 26.698 31.2151 26.698 30.742C26.698 30.269 26.3178 29.8795 25.8447 29.8795H25.845Z" fill="currentColor"/>
<path d="M25.845 35.1845H11.173C10.7 35.1845 10.3105 35.574 10.3105 36.047C10.3105 36.5201 10.7 36.9095 11.173 36.9095H25.8355C26.3086 36.9095 26.698 36.5201 26.698 36.047C26.7072 35.5648 26.3178 35.1845 25.8447 35.1845H25.845Z" fill="currentColor"/>
<path d="M25.845 40.48H11.173C10.7 40.48 10.3105 40.8694 10.3105 41.3425C10.3105 41.8155 10.7 42.205 11.173 42.205H25.8355C26.3086 42.205 26.698 41.8155 26.698 41.3425C26.7072 40.8694 26.3178 40.48 25.8447 40.48H25.845Z" fill="currentColor"/>
<path d="M34.155 15.708H39.738C40.211 15.708 40.6005 15.3185 40.6005 14.8455C40.6005 14.3724 40.211 13.983 39.738 13.983H34.155C33.6819 13.983 33.2925 14.3724 33.2925 14.8455C33.2925 15.3277 33.6819 15.708 34.155 15.708Z" fill="currentColor"/>
<path d="M34.155 21.013H39.738C40.211 21.013 40.6005 20.6236 40.6005 20.1505C40.6005 19.6775 40.211 19.288 39.738 19.288H34.155C33.6819 19.288 33.2925 19.6775 33.2925 20.1505C33.2925 20.6236 33.6819 21.013 34.155 21.013Z" fill="currentColor"/>
<path d="M34.155 26.309H39.738C40.211 26.309 40.6005 25.9195 40.6005 25.4465C40.6005 24.9734 40.211 24.584 39.738 24.584H34.155C33.6819 24.584 33.2925 24.9734 33.2925 25.4465C33.2925 25.9195 33.6819 26.309 34.155 26.309Z" fill="currentColor"/>
<path d="M34.155 31.6045H39.738C40.211 31.6045 40.6005 31.2151 40.6005 30.742C40.6005 30.269 40.211 29.8795 39.738 29.8795H34.155C33.6819 29.8795 33.2925 30.269 33.2925 30.742C33.2925 31.2149 33.6819 31.6045 34.155 31.6045Z" fill="currentColor"/>
<path d="M34.155 36.9095H39.9515C40.4245 36.9095 40.814 36.5201 40.814 36.047C40.814 35.574 40.4245 35.1845 39.9515 35.1845H34.155C33.6819 35.1845 33.2925 35.574 33.2925 36.047C33.2925 36.5201 33.6819 36.9095 34.155 36.9095Z" fill="currentColor"/>
<path d="M41.556 40.48H34.1645C33.6915 40.48 33.302 40.8694 33.302 41.3425C33.302 41.8155 33.6915 42.205 34.1645 42.205H41.556C42.029 42.205 42.4185 41.8155 42.4185 41.3425C42.4185 40.8694 42.0289 40.48 41.556 40.48Z" fill="currentColor"/>
<path d="M58.185 12.4625L53.5294 8.65994C53.4831 8.62284 53.4274 8.5951 53.3718 8.56717C53.3532 8.55799 53.3346 8.53943 53.3069 8.53006C53.205 8.49295 53.0936 8.46522 52.9823 8.46522H50.7286L50.7284 5.92402C50.7376 5.35822 50.5151 4.82967 50.1255 4.42167C49.7266 4.01366 49.1796 3.79102 48.6045 3.79102H44.9412C43.7727 3.79102 42.8174 4.74627 42.8174 5.91487V8.46526H34.2849C32.4949 8.46526 30.9183 9.38342 29.9909 10.7747C29.0636 9.38347 27.4869 8.46526 25.6877 8.46526H7.01815C6.90682 8.46526 6.7955 8.493 6.69354 8.53011C6.67499 8.54866 6.65643 8.55784 6.6287 8.5764C6.57303 8.60413 6.51736 8.63206 6.47108 8.66917L1.81543 12.4717C1.61133 12.6387 1.5 12.8799 1.5 13.1395V51.387C1.5 51.86 1.88945 52.2495 2.3625 52.2495H24.2965C24.7045 54.4938 26.6801 56.2096 29.0358 56.2096H30.9555C33.3205 56.2096 35.2866 54.5032 35.6948 52.2495H57.6377C58.1108 52.2495 58.5002 51.86 58.5002 51.387V13.1305C58.5002 12.8707 58.3889 12.6295 58.185 12.4627V12.4625ZM56.7753 49.3095L53.8446 46.3974V11.1549L56.7753 13.5476V49.3095ZM48.4378 36.214L46.7591 39.4601L45.0897 36.214H48.4378ZM7.88127 45.896V10.199H25.6973C27.5893 10.199 29.1287 11.7292 29.1381 13.6212V45.8862L7.88107 45.8864L7.88127 45.896ZM30.8633 13.6585V13.6399C30.8633 11.7479 32.4027 10.1991 34.2947 10.1991H42.8272L42.8087 35.3326C42.8087 35.3418 42.8178 35.3512 42.8178 35.3697C42.8178 35.4531 42.8364 35.5459 42.8735 35.6295C42.8827 35.6572 42.8921 35.6758 42.9012 35.7037C42.9104 35.7129 42.9104 35.7223 42.9104 35.7408L45.9895 41.7413C46.138 42.0288 46.4346 42.2144 46.7593 42.2144C47.0839 42.2144 47.3806 42.0382 47.529 41.7507L50.6267 35.7597C50.6358 35.7505 50.6358 35.732 50.6452 35.7226C50.6544 35.704 50.6638 35.6763 50.673 35.6578C50.7007 35.5744 50.7192 35.4908 50.7192 35.4074C50.7192 35.3982 50.7284 35.3888 50.7284 35.3796V35.222L50.7376 10.71V10.2278H52.1288V45.9248L30.8633 45.9242L30.8633 13.6585ZM44.9508 5.52499H48.6141C48.7625 5.52499 48.8553 5.59921 48.9016 5.6455C48.9479 5.69179 49.0129 5.78456 49.0129 5.91445V5.92363L48.9943 34.4886L44.5426 34.4794L44.5611 5.92395C44.552 5.70149 44.7281 5.52531 44.9508 5.52531L44.9508 5.52499ZM6.15627 11.1545V46.4065L3.22562 49.3186V13.5381L6.15627 11.1545ZM34.9163 50.524C34.4432 50.524 34.0538 50.9134 34.0538 51.3865C34.0538 53.0929 32.6626 54.4748 30.9655 54.4748H29.0457C27.3393 54.4748 25.9574 53.0836 25.9574 51.3865C25.9574 50.9134 25.568 50.524 25.0949 50.524H4.46842L7.38052 47.621H52.63L55.5421 50.524H34.9163Z" fill="currentColor"/>
</svg>
