<svg width="60" height="61" viewBox="0 0 60 61" fill="none" xmlns="http://www.w3.org/2000/svg">
<path d="M18.1464 20.4852C18.1464 17.5326 20.607 15.072 23.5596 15.072C26.5122 15.072 28.9728 17.5326 28.9728 20.4852C28.9728 23.4378 26.5122 25.8984 23.5596 25.8984C20.607 25.7753 18.1464 23.4378 18.1464 20.4852ZM23.5596 28.2359C30.6951 28.2359 36.4774 33.649 36.9695 40.7846C28.9728 47.305 17.7774 47.0589 10.1497 40.7846C10.6418 33.772 16.4241 28.2359 23.5596 28.2359ZM55.1774 58.3773C54.4392 58.2543 53.332 57.6392 52.1017 56.5319L55.6695 53.0872C56.6537 54.3175 57.3919 55.4247 57.5149 56.1629C57.5149 56.778 55.9156 58.3773 55.1774 58.3773ZM53.9471 51.2418L50.2563 54.8096C47.6728 52.226 44.8432 48.7813 42.6287 45.7056L43.7359 44.5984L44.8432 43.4911C47.9188 45.8286 51.4866 48.7813 53.9471 51.2418ZM45.3353 39.8003L38.8149 46.1977L36.6004 44.1063C39.307 42.2609 41.3984 40.1694 43.1208 37.5859L45.3353 39.8003ZM44.5971 26.0214C44.228 30.8194 42.2596 35.2484 39.0609 38.8161C37.9537 33.1569 33.7708 28.4819 28.3576 26.6365C30.203 25.1602 31.3103 22.9457 31.3103 20.4852C31.3103 16.1793 27.7425 12.6115 23.4366 12.6115C19.1306 12.6115 15.5629 16.1793 15.5629 20.4852C15.5629 22.9457 16.6701 25.1602 18.5155 26.6365C12.9793 28.3589 8.91945 33.0339 7.81221 38.8161C0.307595 30.5734 0.430621 17.6556 8.42734 9.65886C10.2727 7.81347 12.4872 6.33715 14.8247 5.22991C22.8214 1.78517 32.0484 3.50754 38.1997 9.65886C38.9379 10.397 39.553 11.0122 40.0451 11.8733C43.4899 15.6872 44.9662 20.8543 44.5971 26.0214ZM3.50628 12.1194C-2.15293 21.3464 -0.92267 33.403 6.95102 41.1536C14.0866 48.2892 25.1589 50.2576 34.5089 45.3365L37.0925 47.9201C38.0767 48.9043 39.6761 48.9043 40.6603 47.9201L41.0294 47.551C43.7359 51.2418 50.7484 60.3458 54.9313 60.8379H55.1774C57.2688 60.8379 60.0985 58.0083 59.8524 55.7938C59.3603 51.6109 50.3794 44.5984 46.5655 41.8918L46.9346 41.5227C47.9188 40.5385 47.9188 38.9392 46.9346 37.9549L44.4741 35.3714C45.9504 32.5418 46.9346 29.3431 47.0576 26.1444C47.4267 21.2233 46.1965 16.3023 43.6129 12.1194L41.8905 9.53584V9.65886C41.3984 9.04373 40.7833 8.30557 40.1682 7.69044C38.4458 5.96807 36.4774 4.49175 34.2629 3.38451L32.1714 2.4003C26.7583 0.321156 20.607 0.321156 15.1938 2.4003L12.7333 3.63057C10.5188 4.7378 8.55037 6.21412 6.828 7.93649C6.21286 8.55162 5.72076 9.16676 5.22865 9.78189L3.50628 12.1194Z" fill="currentColor"/>
</svg>
