<svg width="42" height="43" viewBox="0 0 42 43" fill="none" xmlns="http://www.w3.org/2000/svg">
<circle cx="21" cy="21.9321" r="21" fill="currentColor"/>
<path d="M29.7539 28.6502L26.2383 25.1346C26.0625 24.994 25.8516 24.8885 25.6406 24.8885H25.0781C26.0273 23.658 26.625 22.1111 26.625 20.3885C26.625 16.3807 23.3203 13.076 19.3125 13.076C15.2695 13.076 12 16.3807 12 20.3885C12 24.4315 15.2695 27.701 19.3125 27.701C21 27.701 22.5469 27.1385 23.8125 26.1541V26.7518C23.8125 26.9627 23.8828 27.1736 24.0586 27.3494L27.5391 30.8299C27.8906 31.1815 28.418 31.1815 28.7344 30.8299L29.7188 29.8455C30.0703 29.5291 30.0703 29.0018 29.7539 28.6502ZM19.3125 24.8885C16.8164 24.8885 14.8125 22.8846 14.8125 20.3885C14.8125 17.9276 16.8164 15.8885 19.3125 15.8885C21.7734 15.8885 23.8125 17.9276 23.8125 20.3885C23.8125 22.8846 21.7734 24.8885 19.3125 24.8885Z" fill="white"/>
</svg>
