<svg width="40" height="41" viewBox="0 0 40 41" fill="none" xmlns="http://www.w3.org/2000/svg">
<g clip-path="url(#clip0_1582_138062)">
<path d="M9.9944 0.309082C7.68628 0.309082 5.71429 1.90012 5.15406 4.05138H1.2549C0.560224 4.05138 0 4.6116 0 5.30628C0 6.00096 0.560224 6.56118 1.2549 6.56118H5.17647C5.73669 8.71244 7.68627 10.3035 10.0168 10.3035C12.3473 10.3035 14.2969 8.69003 14.8571 6.56118H38.7675C39.4622 6.56118 40.0224 6.00096 40.0224 5.30628C40.0224 4.6116 39.4622 4.05138 38.7675 4.05138H14.8347C14.2745 1.90012 12.3249 0.309082 9.9944 0.309082ZM9.9944 2.81889C11.3838 2.81889 12.5042 3.93933 12.5042 5.32869C12.5042 6.71805 11.3838 7.83849 9.9944 7.83849C8.60504 7.83849 7.48459 6.71805 7.48459 5.32869C7.48459 3.93933 8.60504 2.81889 9.9944 2.81889ZM30.0056 15.3007C27.6975 15.3007 25.7255 16.9141 25.1653 19.043H1.2549C0.560224 19.0654 0 19.6256 0 20.2979C0 20.9926 0.560224 21.5528 1.2549 21.5528H25.1653C25.7255 23.704 27.6751 25.2951 30.0056 25.2951C32.3361 25.2951 34.2857 23.704 34.8459 21.5528H38.7675C39.4622 21.5528 40.0224 20.9926 40.0224 20.2979C40.0224 19.6032 39.4622 19.043 38.7675 19.043H34.8459C34.2857 16.8917 32.3361 15.3007 30.0056 15.3007ZM30.0056 17.8105C31.395 17.8105 32.5154 18.9309 32.5154 20.3203C32.5154 21.7096 31.395 22.8301 30.0056 22.8301C28.6162 22.8301 27.4958 21.7096 27.4958 20.3203C27.4958 18.9309 28.6162 17.8105 30.0056 17.8105ZM15.014 30.3147C12.7059 30.3147 10.7339 31.9057 10.1737 34.057H1.2549C0.560224 34.057 0 34.6172 0 35.3119C0 36.0066 0.560224 36.5668 1.2549 36.5668H10.1737C10.7339 38.718 12.6835 40.3091 15.014 40.3091C17.3445 40.3091 19.2941 38.6956 19.8543 36.5668H38.7675C39.4622 36.5668 40.0224 36.0066 40.0224 35.3119C40.0224 34.6172 39.4622 34.057 38.7675 34.057H19.8319C19.2717 31.9057 17.3221 30.3147 14.9916 30.3147H15.014ZM15.014 32.8245C16.4034 32.8245 17.5238 33.9449 17.5238 35.3343C17.5238 36.7236 16.4034 37.8441 15.014 37.8441C13.6247 37.8441 12.5042 36.7236 12.5042 35.3343C12.5042 33.9449 13.6247 32.8245 15.014 32.8245Z" fill="currentColor"/>
</g>
<defs>
<clipPath id="clip0_1582_138062">
<rect width="40" height="40" fill="currentColor" transform="translate(0 0.309082)"/>
</clipPath>
</defs>
</svg>
