<?xml version="1.0" encoding="utf-8"?>
<!-- Generator: Adobe Illustrator 27.0.1, SVG Export Plug-In . SVG Version: 6.00 Build 0)  -->
<svg version="1.1" id="Layer_1" xmlns="http://www.w3.org/2000/svg" xmlns:xlink="http://www.w3.org/1999/xlink" x="0px" y="0px"
	 viewBox="0 0 54.3 37.3" style="enable-background:new 0 0 54.3 37.3;" xml:space="preserve">
<style type="text/css">
	.st0{fill:currentColor;}
</style>
<path class="st0" d="M35.9,0.1c-0.3-0.1-0.6,0-0.9,0.2c-9.4,8.9-21.8,9.2-21.9,9.2L6.7,9.8c-1.9,0.1-3.6,0.9-4.9,2.3s-1.9,3.2-1.8,5.1
	s0.9,3.6,2.3,4.9c1.4,1.2,3.2,1.9,5.1,1.8l1.1-0.1l2.9,12.8c0.1,0.4,0.4,0.6,0.8,0.6l4.7-0.2c0.2,0,0.5-0.1,0.6-0.3s0.2-0.4,0.1-0.7
	l-2.9-12.6c10.1-0.6,21.7,6.9,21.9,7c0.2,0.2,0.6,0.2,0.8,0c0.3-0.2,0.4-0.4,0.4-0.7l-1.5-29C36.4,0.5,36.2,0.2,35.9,0.1z
	 M36.2,28.3c-3.1-1.8-11.9-6.5-20.3-6.5c0,0,0,0-0.1,0c-0.7,0-1.4,0-2.1,0.1l-6.4,0.3c-1.5,0.1-2.9-0.4-3.9-1.4S1.7,18.5,1.6,17
	c-0.1-1.4,0.4-2.7,1.3-3.8H3c1-1.1,2.3-1.7,3.8-1.8l6.4-0.3c7.9-0.5,15.6-3.5,21.7-8.5L36.2,28.3z M13.2,23.6l2.7,11.9l-3.1,0.2
	l-2.7-11.9L13.2,23.6z M49.4,4.4L49.4,4.4c-0.5-0.4-1-0.4-1.3-0.1c-0.1,0.2-0.2,0.4-0.2,0.6s0.1,0.4,0.3,0.5l0.1,0.1l0,0
	C51,8,52.5,11.3,52.7,15s-1.1,7.1-3.5,9.8c-0.2,0.2-0.3,0.6-0.1,0.9c0.1,0.3,0.4,0.5,0.7,0.5c0.2,0,0.4-0.1,0.6-0.3
	c2.7-3,4.1-6.9,4-10.9C54.1,10.8,52.4,7.1,49.4,4.4z M44.7,9.5c-0.2-0.1-0.4-0.2-0.6-0.2c-0.2,0-0.4,0.1-0.5,0.3
	c-0.3,0.3-0.2,0.8,0.1,1.1c1.3,1.2,2,2.8,2.1,4.5s-0.5,3.4-1.7,4.7c-0.3,0.3-0.3,0.8,0.1,1.1c0.2,0.1,0.3,0.2,0.5,0.2
	s0.4-0.1,0.6-0.3c1.4-1.6,2.2-3.7,2.1-5.9C47.3,13.1,46.4,11,44.7,9.5z"/>
</svg>
