<svg width="70" height="70" viewBox="0 0 70 70" fill="none" xmlns="http://www.w3.org/2000/svg">
<path d="M19.6875 37.1875C11.2438 37.1875 4.375 43.0749 4.375 50.3125C4.39413 52.0423 4.78424 53.7478 5.51899 55.3139C6.25374 56.88 7.31601 58.2702 8.63406 59.3906C8.49777 60.9882 7.88809 62.5088 6.88297 63.758C6.7112 63.9292 6.60126 64.1527 6.57046 64.3932C6.53966 64.6338 6.58975 64.8778 6.71283 65.0868C6.83592 65.2957 7.02501 65.4578 7.25034 65.5475C7.47567 65.6372 7.72444 65.6494 7.95747 65.5822C10.2802 64.8718 12.5156 63.9023 14.6215 62.692C16.2646 63.187 17.9714 63.4382 19.6875 63.4375C28.1313 63.4375 35 57.5501 35 50.3125C35 43.0749 28.1313 37.1875 19.6875 37.1875ZM19.6875 61.25C18.036 61.2508 16.3953 60.9849 14.8286 60.4625C14.6775 60.4108 14.5168 60.3934 14.3581 60.4115C14.1994 60.4296 14.0468 60.4828 13.9112 60.5672C12.7035 61.2959 11.4421 61.9315 10.1377 62.4684C10.5243 61.3607 10.7722 60.2095 10.8758 59.0408C10.8927 58.8627 10.8655 58.6831 10.7967 58.5179C10.7279 58.3527 10.6195 58.2069 10.4812 58.0934C9.28619 57.1735 8.3135 55.9964 7.63515 54.6495C6.95681 53.3026 6.59021 51.8203 6.5625 50.3125C6.5625 44.2819 12.4505 39.375 19.6875 39.375C26.9245 39.375 32.8125 44.2819 32.8125 50.3125C32.8125 56.3431 26.9245 61.25 19.6875 61.25ZM61.3659 26.5781C62.684 25.4577 63.7463 24.0675 64.481 22.5014C65.2158 20.9353 65.6059 19.2298 65.625 17.5C65.625 10.2624 58.7562 4.375 50.3125 4.375C41.8688 4.375 35 10.2624 35 17.5C35 24.7376 41.8688 30.625 50.3125 30.625C52.0286 30.6257 53.7354 30.3745 55.3785 29.8795C57.4844 31.0898 59.7198 32.0593 62.0425 32.7697C62.2754 32.8362 62.5238 32.8235 62.7487 32.7336C62.9736 32.6438 63.1623 32.4818 63.2852 32.2731C63.4081 32.0644 63.4583 31.8208 63.4278 31.5806C63.3974 31.3403 63.2881 31.1169 63.117 30.9455C62.1119 29.6963 61.5022 28.1757 61.3659 26.5781ZM59.862 29.6565C58.5577 29.1196 57.2962 28.484 56.0886 27.7552C55.9167 27.6496 55.7189 27.5938 55.5171 27.5939C55.3994 27.5936 55.2825 27.6127 55.171 27.6505C53.6045 28.1727 51.9638 28.4384 50.3125 28.4375C43.0755 28.4375 37.1875 23.5306 37.1875 17.5C37.1875 11.4694 43.0755 6.5625 50.3125 6.5625C57.5495 6.5625 63.4375 11.4694 63.4375 17.5C63.4098 19.0079 63.0432 20.4903 62.3648 21.8372C61.6864 23.1842 60.7137 24.3613 59.5186 25.2813C59.3802 25.3948 59.2719 25.5405 59.2031 25.7057C59.1343 25.8709 59.1071 26.0505 59.124 26.2287C59.2276 27.3973 59.4755 28.5486 59.862 29.6563V29.6565ZM20.7033 44.4379C20.6222 44.2347 20.482 44.0606 20.301 43.9379C20.1199 43.8153 19.9062 43.7497 19.6875 43.7497C19.4688 43.7497 19.2551 43.8153 19.074 43.9379C18.893 44.0606 18.7528 44.2347 18.6717 44.4379L14.2967 55.3754C14.2434 55.5088 14.2169 55.6513 14.2187 55.795C14.2205 55.9386 14.2506 56.0805 14.3072 56.2125C14.3639 56.3445 14.4459 56.4641 14.5488 56.5644C14.6516 56.6647 14.7732 56.7437 14.9066 56.797C15.04 56.8503 15.1826 56.8768 15.3262 56.875C15.4699 56.8732 15.6117 56.8431 15.7437 56.7865C15.8758 56.7299 15.9953 56.6478 16.0956 56.545C16.1959 56.4421 16.275 56.3205 16.3283 56.1871L17.3656 53.5938H22.0094L23.0467 56.1871C23.1 56.3205 23.1791 56.4421 23.2794 56.545C23.3797 56.6478 23.4992 56.7299 23.6313 56.7865C23.7633 56.8431 23.9051 56.8732 24.0488 56.875C24.1924 56.8768 24.335 56.8503 24.4684 56.797C24.6018 56.7437 24.7234 56.6647 24.8262 56.5644C24.9291 56.4641 25.0111 56.3445 25.0678 56.2125C25.1244 56.0805 25.1545 55.9386 25.1563 55.795C25.1581 55.6513 25.1316 55.5088 25.0783 55.3754L20.7033 44.4379ZM18.2406 51.4062L19.6875 47.7886L21.1344 51.4062H18.2406ZM54.1796 38.4137C54.2837 38.5147 54.3667 38.6354 54.4237 38.7687C54.4807 38.9021 54.5107 39.0454 54.5118 39.1904C54.5129 39.3355 54.4851 39.4793 54.4301 39.6135C54.3751 39.7477 54.294 39.8696 54.1915 39.9722C54.0889 40.0747 53.967 40.1559 53.8328 40.2109C53.6986 40.2659 53.5548 40.2936 53.4098 40.2925C53.2647 40.2914 53.1214 40.2615 52.988 40.2045C52.8547 40.1474 52.734 40.0645 52.633 39.9604L51.4062 38.7338V47.0312C51.4045 48.4811 50.8278 49.8711 49.8026 50.8964C48.7774 51.9216 47.3874 52.4983 45.9375 52.5H38.2812C37.9912 52.5 37.713 52.3848 37.5079 52.1796C37.3027 51.9745 37.1875 51.6963 37.1875 51.4062C37.1875 51.1162 37.3027 50.838 37.5079 50.6329C37.713 50.4277 37.9912 50.3125 38.2812 50.3125H45.9375C46.8074 50.3115 47.6415 49.9655 48.2566 49.3504C48.8718 48.7352 49.2178 47.9012 49.2188 47.0312V38.7338L47.992 39.9604C47.7858 40.1603 47.5093 40.2712 47.2221 40.269C46.9349 40.2668 46.6601 40.1517 46.4571 39.9487C46.254 39.7456 46.1389 39.4707 46.1368 39.1836C46.1346 38.8964 46.2455 38.6198 46.4454 38.4137L49.5392 35.3205C49.6407 35.2189 49.7613 35.1383 49.894 35.0833C50.0266 35.0283 50.1689 35 50.3125 35C50.4561 35 50.5984 35.0283 50.731 35.0833C50.8637 35.1383 50.9843 35.2189 51.0858 35.3205L54.1796 38.4137ZM15.8204 31.5863C15.7163 31.4853 15.6333 31.3646 15.5763 31.2313C15.5193 31.0979 15.4893 30.9546 15.4882 30.8096C15.4871 30.6645 15.5149 30.5207 15.5699 30.3865C15.6249 30.2523 15.706 30.1304 15.8085 30.0278C15.9111 29.9253 16.033 29.8441 16.1672 29.7891C16.3014 29.7341 16.4452 29.7064 16.5902 29.7075C16.7353 29.7086 16.8786 29.7385 17.012 29.7955C17.1453 29.8526 17.266 29.9355 17.367 30.0396L18.5938 31.2662V22.9688C18.5955 21.5189 19.1722 20.1289 20.1974 19.1036C21.2226 18.0784 22.6126 17.5017 24.0625 17.5H31.7188C32.0088 17.5 32.287 17.6152 32.4921 17.8204C32.6973 18.0255 32.8125 18.3037 32.8125 18.5938C32.8125 18.8838 32.6973 19.162 32.4921 19.3671C32.287 19.5723 32.0088 19.6875 31.7188 19.6875H24.0625C23.1926 19.6885 22.3585 20.0345 21.7434 20.6496C21.1282 21.2648 20.7822 22.0988 20.7812 22.9688V31.2662L22.008 30.0396C22.109 29.9355 22.2297 29.8526 22.363 29.7955C22.4964 29.7385 22.6397 29.7086 22.7848 29.7075C22.9298 29.7064 23.0736 29.7341 23.2078 29.7891C23.342 29.8441 23.4639 29.9253 23.5665 30.0278C23.669 30.1304 23.7501 30.2523 23.8051 30.3865C23.8601 30.5207 23.8879 30.6645 23.8868 30.8096C23.8857 30.9546 23.8557 31.0979 23.7987 31.2313C23.7416 31.3646 23.6587 31.4853 23.5546 31.5863L20.4608 34.6795C20.3593 34.7811 20.2387 34.8617 20.106 34.9167C19.9733 34.9717 19.8311 35 19.6875 35C19.5439 35 19.4017 34.9717 19.269 34.9167C19.1363 34.8617 19.0157 34.7811 18.9142 34.6795L15.8204 31.5863ZM55.7812 13.125H51.4062V12.0312C51.4062 11.7412 51.291 11.463 51.0859 11.2579C50.8808 11.0527 50.6026 10.9375 50.3125 10.9375C50.0224 10.9375 49.7442 11.0527 49.5391 11.2579C49.334 11.463 49.2188 11.7412 49.2188 12.0312V13.125H44.8438C44.5537 13.125 44.2755 13.2402 44.0704 13.4454C43.8652 13.6505 43.75 13.9287 43.75 14.2188C43.75 14.5088 43.8652 14.787 44.0704 14.9921C44.2755 15.1973 44.5537 15.3125 44.8438 15.3125H46.1721C46.6912 17.1038 47.5707 18.7702 48.7566 20.2097C47.8132 20.9685 46.7411 21.5518 45.5914 21.9317C45.4515 21.974 45.3214 22.044 45.2089 22.1374C45.0964 22.2309 45.0038 22.346 44.9366 22.4759C44.8694 22.6058 44.8289 22.7478 44.8176 22.8936C44.8062 23.0395 44.8242 23.1861 44.8705 23.3248C44.9168 23.4635 44.9904 23.5916 45.0871 23.7013C45.1837 23.8111 45.3014 23.9004 45.4331 23.9639C45.5649 24.0274 45.708 24.0638 45.8541 24.071C46.0002 24.0782 46.1462 24.0561 46.2836 24.0058C47.7562 23.5211 49.1234 22.7611 50.3125 21.7662C51.5016 22.7611 52.8688 23.5211 54.3414 24.0058C54.4788 24.0561 54.6248 24.0782 54.7709 24.071C54.917 24.0638 55.0601 24.0274 55.1919 23.9639C55.3236 23.9004 55.4413 23.8111 55.5379 23.7013C55.6346 23.5916 55.7082 23.4635 55.7545 23.3248C55.8008 23.1861 55.8188 23.0395 55.8074 22.8936C55.7961 22.7478 55.7556 22.6058 55.6884 22.4759C55.6212 22.346 55.5286 22.2309 55.4161 22.1374C55.3036 22.044 55.1735 21.974 55.0336 21.9317C53.8839 21.5518 52.8118 20.9685 51.8684 20.2097C53.0543 18.7702 53.9338 17.1038 54.4529 15.3125H55.7812C56.0713 15.3125 56.3495 15.1973 56.5546 14.9921C56.7598 14.787 56.875 14.5088 56.875 14.2188C56.875 13.9287 56.7598 13.6505 56.5546 13.4454C56.3495 13.2402 56.0713 13.125 55.7812 13.125ZM50.3125 18.6677C49.51 17.6626 48.8849 16.5279 48.4641 15.3125H52.1609C51.7401 16.5279 51.115 17.6626 50.3125 18.6677Z" fill="currentColor"/>
</svg>
