<?xml version="1.0" encoding="utf-8"?>
<!-- Generator: Adobe Illustrator 27.0.1, SVG Export Plug-In . SVG Version: 6.00 Build 0)  -->
<svg version="1.1" id="Layer_1" xmlns="http://www.w3.org/2000/svg" xmlns:xlink="http://www.w3.org/1999/xlink" x="0px" y="0px"
	 viewBox="0 0 54.3 54.3" style="enable-background:new 0 0 54.3 54.3;" xml:space="preserve">
<style type="text/css">
	.st0{fill:currentColor;}
</style>
<path class="st0" d="M16.5,17.8c0-2.7,2.2-4.9,4.9-4.9s4.9,2.2,4.9,4.9s-2.2,4.9-4.9,4.9C18.7,22.6,16.5,20.5,16.5,17.8L16.5,17.8z M21.4,24.8
	c6.5,0,11.7,4.9,12.1,11.4c-7.2,5.9-17.4,5.7-24.3,0C9.7,29.8,14.9,24.8,21.4,24.8z M50,52.1c-0.7-0.1-1.7-0.7-2.8-1.7l3.2-3.1
	c0.9,1.1,1.6,2.1,1.7,2.8C52.1,50.6,50.7,52.1,50,52.1z M48.9,45.6l-3.4,3.3c-2.3-2.3-4.9-5.5-6.9-8.2l1-1l1-1
	C43.4,40.7,46.7,43.4,48.9,45.6L48.9,45.6z M41.1,35.3l-5.9,5.8l-2-1.9c2.5-1.7,4.3-3.6,5.9-5.9L41.1,35.3L41.1,35.3z M40.4,22.8
	c-0.3,4.3-2.1,8.4-5,11.6c-1-5.1-4.8-9.4-9.7-11c1.7-1.3,2.7-3.3,2.7-5.6c0-3.9-3.2-7.1-7.1-7.1s-7.1,3.2-7.1,7.1
	c0,2.2,1,4.2,2.7,5.6c-5,1.6-8.7,5.8-9.7,11C0.3,26.9,0.4,15.2,7.7,8c1.7-1.7,3.7-3,5.8-4c7.2-3.1,15.6-1.6,21.2,4
	c0.7,0.7,1.2,1.2,1.7,2C39.4,13.4,40.8,18.1,40.4,22.8L40.4,22.8z M3.2,10.2c-5.1,8.4-4,19.3,3.1,26.3c6.5,6.5,16.5,8.2,25,3.8
	l2.3,2.3c0.9,0.9,2.3,0.9,3.2,0l0.3-0.3c2.5,3.3,8.8,11.6,12.6,12H50c1.9,0,4.5-2.6,4.2-4.6c-0.4-3.8-8.6-10.1-12-12.6l0.3-0.3
	c0.9-0.9,0.9-2.3,0-3.2l-2.2-2.3c1.3-2.6,2.2-5.5,2.3-8.4c0.3-4.5-0.8-8.9-3.1-12.7L38,7.9V8c-0.4-0.6-1-1.2-1.6-1.8
	c-1.6-1.6-3.3-2.9-5.3-3.9l-1.9-0.9c-4.9-1.9-10.5-1.9-15.4,0l-2.2,1.1c-2,1-3.8,2.3-5.3,3.9C5.7,7,5.3,7.5,4.9,8.1L3.2,10.2z"/>
</svg>
