<?xml version="1.0" encoding="utf-8"?>
<!-- Generator: Adobe Illustrator 27.0.1, SVG Export Plug-In . SVG Version: 6.00 Build 0)  -->
<svg version="1.1" id="Layer_1" xmlns="http://www.w3.org/2000/svg" xmlns:xlink="http://www.w3.org/1999/xlink" x="0px" y="0px"
	 viewBox="0 0 54.3 54.1" style="enable-background:new 0 0 54.3 54.1;" xml:space="preserve">
<style type="text/css">
	.st0{fill:currentColor;}
</style>
<path class="st0" 
d="M21.8,2.2h10.7l1,7.3l2.2-0.3L34.4,0H19.9l-1.3,9.2l2.2,0.3L21.8,2.2z M46,10l5.4,9.3l-5.8,4.5l1.3,1.8l7.3-5.8L47,7.2
	l-8.6,3.5l0.8,2L46,10z M45.6,30.3l5.8,4.6L46,44.2l-6.8-2.8l-0.8,2l8.6,3.5l7.2-12.6l-7.3-5.7L45.6,30.3z M32.5,52H21.8l-1-7.3
	L18.6,45l1.3,9.1h14.5l1.3-9.1l-2.2-0.3L32.5,52z M8.3,44.2l-5.4-9.3l5.8-4.6l-1.3-1.7l-7.3,5.7l7.2,12.6l8.6-3.5l-0.8-2L8.3,44.2z
	 M8.7,23.8l-5.8-4.5L8.3,10l6.8,2.7l0.8-2L7.3,7.2L0.1,19.8l7.3,5.8L8.7,23.8z M27.1,10.8c-9,0-16.2,7.3-16.2,16.2
	s7.3,16.2,16.2,16.2S43.4,36,43.4,27.1S36.1,10.8,27.1,10.8z M27.1,41.1C19.4,41.1,13,34.8,13,27c0-7.7,6.3-14.1,14.1-14.1
	c7.7,0,14.1,6.3,14.1,14.1S34.9,41.1,27.1,41.1z M28.8,24.7h-5.7v2.2h3.5v5.3h-3.5v2.2h9.2v-2.2h-3.5V24.7z M27.3,19.8
	c1,0,1.9,0.9,1.9,1.9s-0.9,1.9-1.9,1.9s-1.9-0.9-1.9-1.9S26.3,19.8,27.3,19.8z"/>
</svg>
