<svg width="210" height="210" viewBox="0 0 210 210" fill="none" xmlns="http://www.w3.org/2000/svg">
<mask id="mask0_5670_195445" style="mask-type:alpha" maskUnits="userSpaceOnUse" x="0" y="0" width="210" height="210">
<rect width="210" height="210" fill="#C9C9C9"/>
</mask>
<g mask="url(#mask0_5670_195445)">
<rect width="210" height="210" fill="#C9C9C9"/>
<g clip-path="url(#clip0_5670_195445)">
<path d="M159.413 83.8825C158.946 78.0341 156.373 75.4608 153.8 74.2912V73.3554C153.8 66.1034 153.098 55.5763 151.695 48.5582C151.461 46.6867 150.993 44.8153 150.291 42.9438C147.719 34.5221 142.339 26.8022 135.088 21.4217C127.603 15.8072 117.078 13 107.722 13C98.366 13 87.8406 15.8072 80.3558 21.4217C73.105 26.8022 67.7253 34.2882 65.1524 42.9438C64.6846 44.8153 64.2168 46.6867 63.749 48.5582C62.3457 55.5763 61.644 65.8695 61.644 73.3554V74.2912C58.8372 75.4608 56.4982 78.0341 55.7965 83.8825C55.3287 88.3273 57.1999 92.3042 58.1355 93.9418C59.0711 97.9187 61.4101 102.363 65.6202 103.065C66.088 104.937 66.7897 106.808 67.4914 108.68C67.4914 108.836 67.5694 108.914 67.7253 108.914V109.148C70.9999 117.569 75.9118 124.587 82.227 129.968C82.227 130.904 82.227 131.605 81.9931 132.307C81.2914 138.53 83.069 142.951 66.3219 150.25L63.6087 150.952L106.576 177.504L151.531 151.092L149.613 150.554C132.305 143.068 134.41 138.39 133.942 132.307C133.942 131.371 133.708 130.436 133.708 129.5C139.789 124.353 144.701 117.101 147.742 108.914L147.976 108.446C148.678 106.574 149.145 104.703 149.847 102.831C153.823 102.13 156.162 97.6847 157.098 93.9418C158.033 92.3042 159.905 88.3273 159.437 83.8825H159.413Z" fill="#5C5C5C"/>
<path d="M196.837 172.31C194.966 165.76 190.99 162.251 186.312 160.847L154.642 151.958L106.553 180.217L60.4512 151.724L24.6881 160.824C20.0102 162.228 16.0339 165.971 14.1627 172.287L2 246H209L196.837 172.31Z" fill="#5C5C5C"/>
</g>
</g>
<defs>
<clipPath id="clip0_5670_195445">
<rect width="207" height="233" fill="white" transform="translate(2 13)"/>
</clipPath>
</defs>
</svg>
