<svg width="26" height="27" viewBox="0 0 26 27" fill="none" xmlns="http://www.w3.org/2000/svg">
<path fill-rule="evenodd" clip-rule="evenodd" d="M18.9577 3.61243C18.9577 2.71543 18.2297 1.98743 17.3327 1.98743H8.66602C7.76902 1.98743 7.04102 2.71543 7.04102 3.61243V7.40409C7.04102 7.70309 7.28368 7.94576 7.58268 7.94576H18.416C18.715 7.94576 18.9577 7.70309 18.9577 7.40409V3.61243ZM17.8743 3.61243V6.86243H8.12435V3.61243C8.12435 3.31343 8.36702 3.07076 8.66602 3.07076H17.3327C17.6317 3.07076 17.8743 3.31343 17.8743 3.61243Z" fill="#C05600" stroke="#C05600" stroke-width="0.75"/>
<path fill-rule="evenodd" clip-rule="evenodd" d="M18.4163 18.7791H21.6663C22.5633 18.7791 23.2913 18.0522 23.2913 17.1541V8.48743C23.2913 7.59043 22.5633 6.86243 21.6663 6.86243C18.2528 6.86243 7.74659 6.86243 4.33301 6.86243C3.43601 6.86243 2.70801 7.59043 2.70801 8.48743V17.1541C2.70801 18.0522 3.43601 18.7791 4.33301 18.7791C5.10651 18.7791 6.24509 18.7791 7.58301 18.7791C7.88201 18.7791 8.12467 18.5364 8.12467 18.2374C8.12467 17.9384 7.88201 17.6958 7.58301 17.6958H4.33301C4.03401 17.6958 3.79134 17.4531 3.79134 17.1541V8.48743C3.79134 8.18843 4.03401 7.94576 4.33301 7.94576H21.6663C21.9653 7.94576 22.208 8.18843 22.208 8.48743V17.1541C22.208 17.4531 21.9653 17.6958 21.6663 17.6958H18.4163C18.1173 17.6958 17.8747 17.9384 17.8747 18.2374C17.8747 18.5364 18.1173 18.7791 18.4163 18.7791Z" fill="#C05600" stroke="#C05600" stroke-width="0.75"/>
<path fill-rule="evenodd" clip-rule="evenodd" d="M18.9577 14.4457C18.9577 14.1467 18.715 13.9041 18.416 13.9041H7.58268C7.28368 13.9041 7.04102 14.1467 7.04102 14.4457V24.1957C7.04102 24.4947 7.28368 24.7374 7.58268 24.7374H18.416C18.715 24.7374 18.9577 24.4947 18.9577 24.1957V14.4457ZM17.8743 14.9874V23.6541H8.12435V14.9874H17.8743Z" fill="#C05600" stroke="#C05600" stroke-width="0.75"/>
<path fill-rule="evenodd" clip-rule="evenodd" d="M19.4997 13.9041H6.49967C6.20067 13.9041 5.95801 14.1467 5.95801 14.4457C5.95801 14.7447 6.20067 14.9874 6.49967 14.9874H19.4997C19.7987 14.9874 20.0413 14.7447 20.0413 14.4457C20.0413 14.1467 19.7987 13.9041 19.4997 13.9041Z" fill="#C05600" stroke="#C05600" stroke-width="0.75"/>
<path fill-rule="evenodd" clip-rule="evenodd" d="M15.166 17.1541H10.8327C10.5337 17.1541 10.291 17.3967 10.291 17.6957C10.291 17.9947 10.5337 18.2374 10.8327 18.2374H15.166C15.465 18.2374 15.7077 17.9947 15.7077 17.6957C15.7077 17.3967 15.465 17.1541 15.166 17.1541Z" fill="#C05600" stroke="#C05600" stroke-width="0.75"/>
<path fill-rule="evenodd" clip-rule="evenodd" d="M15.166 20.4041H10.8327C10.5337 20.4041 10.291 20.6467 10.291 20.9457C10.291 21.2447 10.5337 21.4874 10.8327 21.4874H15.166C15.465 21.4874 15.7077 21.2447 15.7077 20.9457C15.7077 20.6467 15.465 20.4041 15.166 20.4041Z" fill="#C05600" stroke="#C05600" stroke-width="0.75"/>
<path fill-rule="evenodd" clip-rule="evenodd" d="M19.4993 10.1124H17.3327C17.0337 10.1124 16.791 10.3551 16.791 10.6541C16.791 10.9531 17.0337 11.1958 17.3327 11.1958H19.4993C19.7983 11.1958 20.041 10.9531 20.041 10.6541C20.041 10.3551 19.7983 10.1124 19.4993 10.1124Z" fill="#C05600" stroke="#C05600" stroke-width="0.75"/>
</svg>
