<?xml version="1.0" encoding="UTF-8"?>
<svg width="126px" height="126px" viewBox="0 0 130 126" version="1.1" xmlns="http://www.w3.org/2000/svg" xmlns:xlink="http://www.w3.org/1999/xlink">
<title>status</title>
<style type="text/css">
    .st0{fill:currentColor;}
</style>
    <g id="Page-1" stroke="none" stroke-width="1" fill="none" fill-rule="evenodd">
        <g id="status" transform="translate(0.428000, 0.429000)" fill="currentColor" fill-rule="nonzero">
            <path d="M116.752,31.163 C111.157,21.577 103.567,13.987 93.981,8.392 C84.393,2.797 73.926,-3.55271368e-15 62.573,-3.55271368e-15 C51.221,-3.55271368e-15 40.751,2.797 31.165,8.392 C21.578,13.986 13.988,21.576 8.393,31.163 C2.797,40.75 0,51.22 0,62.571 C0,73.923 2.798,84.391 8.392,93.979 C13.987,103.564 21.577,111.155 31.164,116.75 C40.751,122.345 51.22,125.142 62.572,125.142 C73.924,125.142 84.394,122.345 93.98,116.75 C103.566,111.156 111.156,103.565 116.751,93.979 C122.345,84.392 125.142,73.922 125.142,62.571 C125.142,51.219 122.345,40.749 116.752,31.163 Z M103.144,53.039 L58.905,97.278 C57.873,98.31 56.624,98.827 55.157,98.827 C53.745,98.827 52.523,98.31 51.491,97.278 L21.997,67.786 C21.02,66.807 20.531,65.587 20.531,64.12 C20.531,62.599 21.019,61.349 21.997,60.371 L29.411,53.039 C30.444,52.007 31.665,51.491 33.078,51.491 C34.491,51.491 35.713,52.007 36.745,53.039 L55.158,71.452 L88.399,38.292 C89.431,37.26 90.653,36.744 92.065,36.744 C93.476,36.744 94.7,37.26 95.731,38.292 L103.145,45.625 C104.124,46.602 104.612,47.851 104.612,49.372 C104.612,50.839 104.124,52.061 103.144,53.039 Z" id="Shape"></path>
        </g>
    </g>
</svg>
