<svg width="60" height="60" viewBox="0 0 60 60" fill="none" xmlns="http://www.w3.org/2000/svg">
<g clip-path="url(#clip0_5418_194975)">
<path d="M31.5001 42.2002H52.4001H52.5001C52.7001 42.2002 53.0001 42.1002 53.1001 41.9002C53.3001 41.7002 53.4001 41.5002 53.4001 41.2002C53.4001 40.9002 53.3001 40.7002 53.2001 40.5002C53.0001 40.3002 52.8001 40.2002 52.5001 40.2002H31.5001H31.4001C30.9001 40.3002 30.6001 40.7002 30.6001 41.3002C30.6001 41.8002 31.0001 42.2002 31.5001 42.2002Z" fill="currentColor"/>
<path d="M42.5 54.0996H22.4C21.9 54.0996 21.5 54.5996 21.5 55.0996C21.5 55.6996 21.9 56.0996 22.4 56.0996H42.5C42.8 56.0996 43 55.9996 43.2 55.7996C43.4 55.5996 43.4 55.3996 43.4 55.0996C43.4 54.7996 43.3 54.5996 43.2 54.3996C43 54.1996 42.8 54.1996 42.5 54.0996Z" fill="currentColor"/>
<path d="M22.3998 51.7998H42.4998C42.7998 51.7998 42.9998 51.6998 43.1998 51.4998C43.3998 51.2998 43.3998 51.0998 43.3998 50.7998C43.3998 50.4998 43.2998 50.2998 43.1998 50.0998C42.9998 49.8998 42.7998 49.7998 42.4998 49.7998H22.4998H22.3998H22.2998C21.7998 49.7998 21.3998 50.2998 21.4998 50.8998C21.5998 51.3998 21.9998 51.7998 22.3998 51.7998Z" fill="currentColor"/>
<path d="M50.5 51.9C50.5 51.5 50.7 51.1 51 50.8C51.3 50.5 51.6 50.4 52 50.4L56.6 50.5L50.5 56.6V51.9ZM16.7 16.2V3.6C16.7 3.4 16.6 2.6 16.4 2.2H56.6C57.4 2 58.1 2.7 58.1 3.6V48.4L52 48.3C51.1 48.3 50.2 48.7 49.5 49.3C48.8 50 48.4 50.9 48.4 51.9V58H18.2C17.3 58 16.7 57.3 16.7 56.5V42L14.6 38.6V56.5C14.6 58.5 16.2 60.1 18.2 60.1H49.8L59.9 50L60 49.9V3.6C60.1 1.6 58.5 0 56.5 0H13.1C11.1 0 9.5 1.6 9.5 3.6V9.7H14.6V16.3L16.7 16.2ZM14.6 3V3.2C14.6 3.3 14.6 3.4 14.6 3.5V7.6H11.5V3.6C11.5 2.7 12.2 2 13.1 2C13.2 2 13.3 2 13.3 2C13.6 2 14.5 2.2 14.6 3Z" fill="currentColor"/>
<path d="M31.5001 47H52.5001C52.8001 47 53.0001 46.9 53.2001 46.7C53.4001 46.5 53.5001 46.3 53.5001 46C53.5001 45.7 53.4001 45.5 53.2001 45.3C53.0001 45.1 52.8001 45 52.5001 45H31.6001H31.5001H31.1001C30.8001 45.2 30.6001 45.5 30.6001 46C30.6001 46.5 31.0001 47 31.5001 47Z" fill="currentColor"/>
<path d="M21.7002 34.8997L22.0002 32.6997L24.1002 31.4997C24.2002 31.3997 24.3002 31.1997 24.3002 31.0997L24.2002 30.6997V30.5997L23.7002 28.6997L25.2002 26.6997C25.2002 26.4997 25.2002 26.2997 25.1002 26.1997L24.8002 25.7997L23.6002 24.1997L24.2002 21.7997C24.2002 21.5997 24.2002 21.4997 24.0002 21.3997L23.7002 21.1997L23.6002 21.0997L21.9002 20.0997L21.6002 17.5997C21.6002 17.3997 21.4002 17.2997 21.3002 17.2997L18.8002 16.9997L17.6002 14.7997C17.5002 14.6997 17.3002 14.5997 17.2002 14.5997L14.8002 15.1997L13.4002 14.1997C12.6002 13.5997 12.0002 13.9997 11.8002 14.1997L10.4002 15.2997L8.5002 14.7997C8.1002 14.6997 7.6002 14.8997 7.4002 15.2997L6.4002 16.9997L4.4002 17.2997C3.9002 17.3997 3.6002 17.6997 3.5002 18.1997L3.2002 20.1997L1.5002 21.1997C1.1002 21.3997 0.900195 21.8997 1.0002 22.2997L1.5002 24.1997L0.300195 25.7997C0.00019531 26.1997 0.00019531 26.6997 0.300195 26.9997L1.5002 28.5997L1.0002 30.4997C0.800195 30.9997 1.0002 31.4997 1.4002 31.6997L3.1002 32.6997L3.4002 34.6997C3.4002 34.7997 3.4002 34.7997 3.4002 34.8997L0.200195 46.5997C0.100195 46.9997 0.300195 47.4997 0.700195 47.6997C1.1002 47.8997 1.6002 47.8997 1.9002 47.5997L4.9002 44.6997L6.1002 48.6997C6.2002 49.0997 6.6002 49.3997 7.1002 49.3997C7.6002 49.3997 8.0002 49.0997 8.1002 48.5997L10.9002 37.9997L11.6002 38.4997C12.3002 38.9997 12.8002 38.7997 13.3002 38.4997L14.0002 37.9997L16.9002 48.6997C17.0002 49.0997 17.4002 49.3997 17.9002 49.3997C18.4002 49.3997 18.8002 49.0997 18.9002 48.6997L20.1002 44.6997L23.1002 47.5997C23.4002 47.8997 23.9002 47.9997 24.3002 47.6997C24.7002 47.4997 24.9002 46.9997 24.8002 46.5997L21.7002 34.8997ZM7.0002 44.6997L6.4002 42.5997C6.3002 42.2997 6.0002 41.9997 5.7002 41.8997C5.6002 41.8997 5.5002 41.8997 5.4002 41.8997C5.1002 41.8997 4.9002 41.9997 4.7002 42.1997L3.1002 43.6997L5.3002 35.6997L6.2002 35.7997L7.6002 37.8997C7.7002 37.9997 8.10019 38.0997 8.4002 37.9997L8.9002 37.8997L7.0002 44.6997ZM14.0002 35.4997L12.4002 36.6997L11.0002 35.6997C10.8002 35.5997 10.6002 35.4997 10.4002 35.4997C10.3002 35.4997 10.2002 35.4997 10.1002 35.4997L8.4002 35.8997L7.7002 34.2997C7.5002 33.9997 7.2002 33.8997 7.0002 33.8997L5.3002 33.6997L5.1002 31.9997C5.1002 31.6997 4.9002 31.3997 4.6002 31.2997L3.1002 30.3997L3.5002 28.6997C3.6002 28.3997 3.5002 28.0997 3.3002 27.7997L2.3002 26.3997L3.3002 24.9997C3.5002 24.7997 3.6002 24.3997 3.5002 24.0997L3.1002 22.3997L4.6002 21.4997C4.9002 21.2997 5.1002 21.0997 5.1002 20.7997L5.3002 19.0997L7.0002 18.9997C7.3002 18.9997 7.6002 18.7997 7.7002 18.4997L8.6002 16.9997L10.3002 17.3997C10.6002 17.4997 10.9002 17.3997 11.2002 17.1997L12.6002 16.1997L14.2002 17.3997C14.3002 17.4997 14.4002 17.4997 14.5002 17.4997L16.5002 16.9997L17.5002 18.7997C17.6002 18.8997 17.7002 18.9997 17.8002 18.9997L19.8002 19.2997L20.1002 21.2997C20.1002 21.3997 20.2002 21.4997 20.3002 21.5997L22.1002 22.5997L21.6002 24.5997C21.6002 24.6997 21.6002 24.7997 21.7002 24.8997L22.9002 26.4997L21.5002 27.9997C21.4002 28.0997 21.4002 28.1997 21.4002 28.2997L21.9002 30.2997L20.1002 31.2997C20.0002 31.3997 19.9002 31.4997 19.9002 31.5997L19.6002 33.5997L17.6002 33.8997C17.5002 33.8997 17.4002 33.9997 17.3002 34.0997L16.3002 35.8997L14.3002 35.3997C14.2002 35.3997 14.1002 35.3997 14.0002 35.4997ZM20.2002 42.1997C19.9002 41.9997 19.6002 41.8997 19.2002 41.9997C18.9002 42.0997 18.6002 42.3997 18.5002 42.6997L17.9002 44.7997L16.1002 37.9997L17.1002 38.0997C17.3002 38.0997 17.4002 38.0997 17.5002 37.8997L17.7002 37.5997C17.7002 37.5997 17.7002 37.4997 17.8002 37.4997L18.8002 35.7997L19.7002 35.6997L21.8002 43.6997L20.2002 42.1997Z" fill="currentColor"/>
<path d="M20.7003 26.3992C20.7003 21.8992 17.0003 18.1992 12.5003 18.1992C8.00029 18.1992 4.30029 21.8992 4.30029 26.3992C4.30029 30.8992 8.00029 34.5992 12.5003 34.5992C17.0003 34.5992 20.7003 30.8992 20.7003 26.3992ZM12.5003 32.5992C9.10029 32.5992 6.30029 29.7992 6.30029 26.3992C6.30029 22.9992 9.10029 20.1992 12.5003 20.1992C15.9003 20.1992 18.7003 22.9992 18.7003 26.3992C18.7003 29.7992 15.9003 32.5992 12.5003 32.5992Z" fill="currentColor"/>
<path d="M17.8004 24.6994C17.7004 24.3994 17.4004 24.0994 17.0004 24.0994L14.5004 23.6994L13.4004 21.3994C13.2004 21.0994 12.9004 20.8994 12.6004 20.8994C12.2004 20.8994 11.9004 21.0994 11.7004 21.3994L10.6004 23.6994L8.00036 23.9994C7.60036 24.0994 7.40036 24.2994 7.20036 24.5994C7.10036 24.8994 7.20036 25.2994 7.40036 25.5994L9.20036 27.3994L8.80036 29.8994C8.70036 30.2994 8.90036 30.5994 9.20036 30.7994C9.50036 30.9994 9.90036 30.9994 10.2004 30.8994L12.5004 29.6994L14.8004 30.8994C14.9004 30.9994 15.0004 30.9994 15.2004 30.9994C15.4004 30.9994 15.6004 30.8994 15.8004 30.7994C16.1004 30.5994 16.2004 30.1994 16.2004 29.8994L15.8004 27.3994L17.6004 25.5994C17.8004 25.3994 17.9004 24.9994 17.8004 24.6994ZM14.0004 26.3994C13.8004 26.5994 13.7004 26.8994 13.7004 27.1994L13.9004 28.2994L12.9004 27.7994C12.8004 27.6994 12.6004 27.6994 12.5004 27.6994C12.3004 27.6994 12.2004 27.6994 12.1004 27.7994L11.1004 28.2994L11.3004 27.1994C11.3004 26.8994 11.2004 26.5994 10.9004 26.3994L10.1004 25.5994L11.2004 25.3994C11.5004 25.3994 11.8004 25.1994 11.9004 24.8994L12.4004 23.8994L12.9004 24.8994C13.0004 25.1994 13.3004 25.3994 13.6004 25.3994L14.7004 25.5994L14.0004 26.3994Z" fill="currentColor"/>
<path d="M39.2998 12.5006H42.4998C43.7998 12.5006 44.7998 13.5006 44.7998 14.8006V15.5006L44.6998 15.4006C44.3998 15.1006 43.7998 15.1006 43.4998 15.4006C43.1998 15.7006 43.1998 16.3006 43.4998 16.6006L45.0998 18.2006C45.1998 18.2006 45.1998 18.3006 45.2998 18.3006C45.3998 18.3006 45.4998 18.4006 45.5998 18.4006C45.6998 18.4006 45.7998 18.4006 45.8998 18.3006C45.9998 18.3006 46.0998 18.2006 46.1998 18.1006L47.7998 16.5006C48.0998 16.2006 48.0998 15.6006 47.7998 15.3006C47.4998 15.0006 46.8998 15.0006 46.5998 15.3006L46.4998 15.4006V14.7006C46.4998 12.4006 44.6998 10.6006 42.3998 10.6006H39.1998C38.6998 10.6006 38.2998 11.0006 38.2998 11.5006C38.2998 12.0006 38.8998 12.5006 39.2998 12.5006Z" fill="currentColor"/>
<path d="M38.4997 29.3002H35.2997C33.9997 29.3002 32.9997 28.3002 32.9997 27.0002V26.3002L33.0997 26.4002C33.3997 26.7002 33.9997 26.7002 34.2997 26.4002C34.5997 26.1002 34.5997 25.5002 34.2997 25.2002L32.6997 23.6002C32.5997 23.5002 32.4997 23.5002 32.3997 23.4002C32.1997 23.3002 31.8997 23.3002 31.6997 23.4002C31.5997 23.4002 31.4997 23.5002 31.3997 23.6002L29.7997 25.2002C29.4997 25.5002 29.4997 26.1002 29.7997 26.4002C30.0997 26.7002 30.6997 26.7002 30.9997 26.4002L31.0997 26.3002V27.0002C31.0997 29.3002 32.8997 31.1002 35.1997 31.1002H38.3997C38.8997 31.1002 39.2997 30.7002 39.2997 30.2002C39.2997 29.7002 38.9997 29.3002 38.4997 29.3002Z" fill="currentColor"/>
<path d="M37.2998 18.4002C37.4998 18.4002 37.6998 18.2002 37.6998 18.0002V5.6002C37.6998 5.4002 37.4998 5.2002 37.2998 5.2002H23.6998C23.4998 5.2002 23.2998 5.4002 23.2998 5.6002V18.1002C23.2998 18.3002 23.4998 18.5002 23.6998 18.5002H24.8998V22.1002C24.8998 22.1002 24.8998 22.1002 24.8998 22.2002C24.8998 22.3002 24.8998 22.3002 24.9998 22.4002C24.9998 22.4002 24.9998 22.5002 25.0998 22.5002C25.0998 22.5002 25.0998 22.5002 25.1998 22.5002L25.7998 22.8002C25.8998 22.8002 25.8998 22.8002 25.9998 22.8002C25.9998 22.8002 25.9998 22.8002 26.0998 22.8002C26.0998 22.8002 26.1998 22.8002 26.1998 22.7002L31.5998 18.4002H37.2998ZM31.1998 16.9002C31.0998 16.9002 30.9998 16.9002 30.9998 17.0002L26.4998 20.5002V17.7002V17.3002C26.4998 17.1002 26.2998 16.9002 26.0998 16.9002H24.8998V6.8002H36.1998V16.9002H31.1998Z" fill="currentColorv"/>
<path d="M54.1997 19.2998H40.5997C40.3997 19.2998 40.1997 19.4998 40.1997 19.6998V32.1998C40.1997 32.3998 40.3997 32.5998 40.5997 32.5998H46.3997L51.7997 36.8998C51.8997 36.8998 51.8997 36.9998 51.9997 36.9998H52.0997C52.0997 36.9998 52.0997 36.9998 52.1997 36.9998L52.7997 36.6998C52.7997 36.6998 52.7997 36.6998 52.8997 36.6998L52.9997 36.5998C52.9997 36.4998 53.0997 36.4998 53.0997 36.3998C53.0997 36.3998 53.0997 36.3998 53.0997 36.2998V32.6998H54.2997C54.4997 32.6998 54.6997 32.4998 54.6997 32.2998V19.6998C54.5997 19.4998 54.3997 19.2998 54.1997 19.2998ZM51.3997 31.2998V34.4998L46.9997 31.0998V30.9998C46.8997 30.9998 46.7997 30.9998 46.6997 30.9998H41.6997V20.8998H52.9997V30.9998H51.7997C51.5997 30.9998 51.3997 31.0998 51.3997 31.2998Z" fill="currentColor"/>
<path d="M47.9997 23.2C47.9997 23.1 47.8997 23 47.7997 23H46.9997C46.8997 23 46.7997 23.1 46.7997 23.2L44.6997 28.4C44.6997 28.5 44.6997 28.6 44.6997 28.6C44.6997 28.7 44.7997 28.7 44.8997 28.7H45.5997C45.6997 28.7 45.7997 28.7 45.8997 28.6C45.9997 28.5 45.9997 28.5 46.0997 28.4L46.4997 27.4H48.3997L48.7997 28.4C48.7997 28.5 48.8997 28.6 48.9997 28.6C49.0997 28.7 49.1997 28.7 49.2997 28.7H49.9997C50.0997 28.7 50.1997 28.7 50.1997 28.6C50.1997 28.5 50.2997 28.4 50.1997 28.4L47.9997 23.2ZM46.8997 26.3L47.3997 24.9L47.8997 26.3H46.8997Z" fill="currentColor"/>
<path d="M33.4 14.0006C32.6 13.8006 32 13.6006 31.4 13.2006C31.9 12.6006 32.2 12.0006 32.5 11.3006H33.2C33.3 11.3006 33.4 11.2006 33.4 11.1006V10.4006C33.4 10.3006 33.3 10.2006 33.2 10.2006H31.1V9.30059C31.1 9.20059 31 9.10059 30.9 9.10059H30.2C30.1 9.10059 30 9.20059 30 9.30059V10.0006H27.9C27.8 10.0006 27.7 10.1006 27.7 10.2006V11.0006C27.7 11.1006 27.8 11.2006 27.9 11.2006H28.6C28.9 12.0006 29.3 12.6006 29.7 13.2006C29.2 13.6006 28.5 13.8006 27.7 14.0006C27.6 14.0006 27.6 14.1006 27.5 14.2006C27.5 14.3006 27.5 14.4006 27.5 14.4006C27.6 14.6006 27.8 14.9006 27.9 15.0006C27.9 15.1006 28 15.1006 28.1 15.1006H28.2C29.1 14.8006 29.8 14.4006 30.5 14.0006C31.1 14.5006 31.9 14.9006 32.8 15.1006C32.9 15.1006 33 15.1006 33.1 15.0006C33.2 14.8006 33.4 14.5006 33.6 14.3006C33.7 14.2006 33.7 14.1006 33.7 14.1006C33.6 14.1006 33.5 14.0006 33.4 14.0006ZM31.2 11.3006C31 11.7006 30.8 12.1006 30.5 12.4006C30.2 12.1006 30 11.7006 29.8 11.3006H31.2Z" fill="currentColor"/>
</g>
<defs>
<clipPath id="clip0_5418_194975">
<rect width="60" height="60" fill="currentColor"/>
</clipPath>
</defs>
</svg>
