<svg width="60" height="60" viewBox="0 0 60 60" fill="none" xmlns="http://www.w3.org/2000/svg">
<g clip-path="url(#clip0_5418_194962)">
<path d="M25.5002 17.8002C26.5002 17.8002 27.5002 17.4002 28.2002 16.7002C28.9002 16.0002 29.3002 15.0002 29.3002 14.0002C29.3002 13.0002 28.9002 12.0002 28.2002 11.3002C27.5002 10.6002 26.5002 10.2002 25.5002 10.2002C24.5002 10.2002 23.5002 10.6002 22.8002 11.3002C22.1002 12.0002 21.7002 13.0002 21.7002 14.0002C21.7002 15.0002 22.1002 16.0002 22.8002 16.7002C23.5002 17.4002 24.5002 17.8002 25.5002 17.8002ZM23.7002 13.9002C23.7002 13.4002 23.9002 13.0002 24.2002 12.7002C24.5002 12.4002 25.0002 12.2002 25.4002 12.2002C25.8002 12.2002 26.3002 12.4002 26.6002 12.7002C26.9002 13.0002 27.1002 13.5002 27.1002 13.9002C27.1002 14.4002 26.9002 14.8002 26.6002 15.1002C26.3002 15.4002 25.8002 15.6002 25.4002 15.6002C24.9002 15.6002 24.5002 15.4002 24.2002 15.1002C23.9002 14.8002 23.7002 14.4002 23.7002 13.9002Z" fill="currentColor"/>
<path d="M19.3003 21.9004V26.1004C19.3003 26.4004 19.4003 26.7004 19.6003 26.9004C19.8003 27.1004 20.1003 27.2004 20.4003 27.2004H30.7003C31.0003 27.2004 31.2003 27.1004 31.5003 26.9004C31.7003 26.7004 31.8003 26.4004 31.8003 26.1004V21.8004C31.8003 20.8004 31.3003 19.9004 30.5003 19.4004C29.6003 18.8004 28.5003 18.7004 27.6003 19.1004C26.3003 19.6004 24.9003 19.6004 23.7003 19.1004C22.7003 18.7004 21.6003 18.9004 20.8003 19.4004C19.8003 20.0004 19.3003 20.9004 19.3003 21.9004ZM22.8003 21.1004C24.6003 21.8004 26.5003 21.8004 28.2003 21.1004C28.5003 21.0004 28.9003 21.0004 29.2003 21.2004C29.4003 21.4004 29.6003 21.6004 29.6003 21.9004V25.1004H21.4003V21.9004C21.4003 21.6004 21.5003 21.4004 21.8003 21.2004C22.1003 21.0004 22.4003 20.9004 22.8003 21.1004Z" fill="currentColor"/>
<path d="M46.4002 51.8C45.9002 51.8 45.5002 51.8 45.0002 51.8V51.9H44.9002V57.9H5.3002V2.1H6.9002V22.3C6.9002 22.7 7.1002 23 7.4002 23.2C7.7002 23.4 8.10019 23.4 8.4002 23.2L11.7002 21.6L14.9002 23.2C15.2002 23.4 15.6002 23.4 15.9002 23.2C16.2002 23 16.4002 22.7 16.4002 22.3V2.1H44.7002V6.3H19.2002C18.8002 6.3 18.5002 6.5 18.3002 6.8C18.1002 7.1 18.1002 7.5 18.3002 7.9C18.5002 8.2 18.8002 8.4 19.2002 8.4H44.9002V26.7H45.0002C45.2002 26.7 45.3002 26.7 45.5002 26.7C46.0002 26.7 46.4002 26.7 46.9002 26.7H47.0002V2C47.0002 1.5 46.8002 1 46.4002 0.6C46.0002 0.2 45.5002 0 45.0002 0H5.2002C4.7002 0 4.2002 0.2 3.8002 0.6C3.4002 1 3.2002 1.5 3.2002 2V58C3.2002 58.5 3.4002 59 3.8002 59.4C4.1002 59.8 4.6002 60 5.2002 60H45.0002C45.5002 60 46.0002 59.8 46.4002 59.4C46.8002 59 47.0002 58.5 47.0002 58V51.7H46.9002C46.7002 51.7 46.6002 51.8 46.4002 51.8ZM11.2002 13.9C11.5002 14.1 11.9002 14.1 12.3002 13.9C12.6002 13.7 12.8002 13.4 12.8002 13V2.1H14.4002V20.6L12.2002 19.5C11.9002 19.4 11.5002 19.4 11.2002 19.5L9.0002 20.7V2.1H10.6002V13C10.7002 13.4 10.9002 13.7 11.2002 13.9Z" fill="currentColor"/>
<path d="M13.4001 44.9998H34.8001L34.7001 44.7998C34.4001 44.1998 34.2001 43.5998 34.0001 42.8998V42.7998H13.4001C13.0001 42.7998 12.7001 42.9998 12.5001 43.2998C12.3001 43.5998 12.3001 43.9998 12.5001 44.3998C12.6001 44.7998 13.0001 44.9998 13.4001 44.9998Z" fill="currentColor"/>
<path d="M13.4001 40.3002H33.5001V40.2002C33.5001 40.0002 33.5001 39.9002 33.5001 39.7002C33.5001 39.5002 33.5001 39.4002 33.5001 39.2002C33.5001 38.9002 33.5001 38.6002 33.5001 38.3002V38.2002H13.4001C13.0001 38.2002 12.7001 38.4002 12.5001 38.7002C12.3001 39.0002 12.3001 39.4002 12.5001 39.8002C12.6001 40.1002 13.0001 40.3002 13.4001 40.3002Z" fill="currentColor"/>
<path d="M13.4001 35.6004H34.0001V35.5004C34.2001 34.9004 34.5001 34.2004 34.7001 33.6004L34.8001 33.4004H13.4001C13.0001 33.4004 12.7001 33.6004 12.5001 33.9004C12.3001 34.2004 12.3001 34.6004 12.5001 35.0004C12.6001 35.4004 13.0001 35.6004 13.4001 35.6004Z" fill="currentColor"/>
<path d="M36.6001 30.8998C37.2001 30.1998 37.9001 29.5998 38.7001 28.9998L39.0001 28.7998H13.4001C13.0001 28.7998 12.7001 28.9998 12.5001 29.2998C12.3001 29.5998 12.3001 29.9998 12.5001 30.3998C12.7001 30.6998 13.0001 30.8998 13.4001 30.8998H36.6001Z" fill="currentColor"/>
<path d="M53.6 31.4998C51.5 29.3998 48.8 28.2998 45.9 28.2998C43 28.2998 40.2 29.3998 38.2 31.4998C36.1 33.5998 35 36.2998 35 39.1998C35 42.0998 36.1 44.8998 38.2 46.8998C40.3 48.9998 43 50.0998 45.9 50.0998C48.8 50.0998 51.6 48.9998 53.6 46.8998C55.7 44.7998 56.8 42.0998 56.8 39.1998C56.8 36.2998 55.7 33.5998 53.6 31.4998ZM54.7 39.1998C54.7 41.4998 53.8 43.6998 52.1 45.3998C50.4 47.0998 48.2 47.9998 45.9 47.9998C43.6 47.9998 41.3 47.0998 39.7 45.3998C38 43.6998 37.1 41.4998 37.1 39.1998C37.1 36.8998 38 34.5998 39.7 32.9998C41.4 31.2998 43.6 30.3998 45.9 30.3998C48.2 30.3998 50.5 31.2998 52.1 32.9998C53.8 34.6998 54.7 36.8998 54.7 39.1998Z" fill="currentColor"/>
<path d="M51.4003 34.8998C51.0003 34.7998 50.6003 34.8998 50.4003 35.1998L43.8003 41.8998L40.7003 38.6998C40.4003 38.3998 40.0003 38.2998 39.7003 38.3998C39.3003 38.4998 39.0003 38.7998 38.9003 39.0998C38.8003 39.4998 38.9003 39.8998 39.2003 40.0998L43.1003 44.0998C43.3003 44.2998 43.6003 44.3998 43.9003 44.3998C44.2003 44.3998 44.5003 44.2998 44.7003 44.0998L52.0003 36.5998C52.3003 36.2998 52.4003 35.8998 52.3003 35.5998C52.0003 35.2998 51.7003 34.9998 51.4003 34.8998Z" fill="currentColor"/>
<path d="M39.5001 55.4998C39.7001 55.6998 40.0001 55.7998 40.2001 55.7998C40.5001 55.7998 40.8001 55.6998 41.0001 55.4998C41.2001 55.2998 41.3001 54.9998 41.3001 54.6998V53.7998C41.3001 53.1998 41.1001 52.5998 40.6001 52.1998C40.2001 51.7998 39.6001 51.4998 39.0001 51.4998H37.3001C36.7001 51.4998 36.1001 51.6998 35.7001 52.1998L35.0001 52.8998C34.9001 52.9998 34.8001 52.9998 34.7001 52.8998L34.0001 52.1998C33.6001 51.7998 33.0001 51.4998 32.4001 51.4998H31.7001V49.3998C31.7001 48.5998 31.4001 47.7998 30.9001 47.1998C30.3001 46.5998 29.5001 46.2998 28.7001 46.2998C27.9001 46.2998 27.1001 46.5998 26.5001 47.1998C25.9001 47.7998 25.6001 48.5998 25.7001 49.3998C25.7001 49.7998 25.9001 50.0998 26.2001 50.2998C26.5001 50.4998 26.9001 50.4998 27.3001 50.2998C27.6001 50.0998 27.8001 49.7998 27.8001 49.3998C27.8001 49.0998 28.0001 48.7998 28.3001 48.5998C28.6001 48.3998 28.9001 48.3998 29.2001 48.5998C29.5001 48.7998 29.7001 49.0998 29.7001 49.3998V51.4998H29.0001C28.2001 51.4998 27.4001 51.8998 27.0001 52.6998C26.6001 53.4998 26.6001 54.2998 27.0001 54.9998C27.4001 55.6998 28.2001 56.1998 29.0001 56.1998H29.5001C30.1001 56.1998 30.7001 55.9998 31.1001 55.4998C31.5001 55.0998 31.8001 54.4998 31.8001 53.8998V53.6998H32.5001C32.6001 53.6998 32.6001 53.6998 32.6001 53.7998L33.2001 54.3998C33.6001 54.7998 34.2001 55.0998 34.8001 55.0998C35.4001 55.0998 36.0001 54.8998 36.4001 54.3998L37.1001 53.6998L37.2001 53.5998H39.0001C39.1001 53.5998 39.2001 53.6998 39.2001 53.7998V54.6998C39.2001 54.9998 39.3001 55.2998 39.5001 55.4998ZM29.6001 53.6998V53.8998C29.6001 53.9998 29.5001 54.0998 29.4001 54.0998H28.9001C28.8001 54.0998 28.7001 53.9998 28.7001 53.8998C28.7001 53.7998 28.8001 53.6998 28.9001 53.6998H29.6001Z" fill="currentColor"/>
</g>
<defs>
<clipPath id="clip0_5418_194962">
<rect width="60" height="60" fill="currentColor"/>
</clipPath>
</defs>
</svg>
