<?xml version="1.0" encoding="utf-8"?>
<!-- Generator: Adobe Illustrator 27.0.1, SVG Export Plug-In . SVG Version: 6.00 Build 0)  -->
<svg version="1.1" id="Layer_1" xmlns="http://www.w3.org/2000/svg" xmlns:xlink="http://www.w3.org/1999/xlink" x="0px" y="0px"
	 viewBox="0 0 54.3 51.1" style="enable-background:new 0 0 54.3 51.1;" xml:space="preserve">
<style type="text/css">
	.st0{fill:currentColor;}
</style>
<path class="st0" d="M50.8,0H3.5C1.6,0,0,1.6,0,3.5v31.4c0,1.9,1.6,3.5,3.5,3.5h25.7c0.5,0.9,1.2,1.2,1.7,1.4l-3.8,6.8c-0.2,0.4-0.2,0.8,0.1,1.1
	c0.3,0.3,0.7,0.4,1.1,0.3l3.4-1.2l0.7,3.5c0.1,0.4,0.4,0.7,0.9,0.8h0.1c0.4,0,0.7-0.2,0.8-0.5l3.9-6.8c0.2,0,0.4,0,0.6,0l3.9,6.8
	c0.2,0.3,0.5,0.5,0.9,0.5h0.2c0.4-0.1,0.7-0.4,0.8-0.8l0.7-3.5l3.4,1.2c0.4,0.1,0.8,0,1.1-0.3s0.3-0.8,0.1-1.1L46,39.8
	c0,0,0.1,0,0.1-0.1c0.5-0.3,1.2-0.6,1.6-1.3h3.4c1.9,0,3.5-1.6,3.5-3.5V3.5C54.3,1.6,52.7,0,50.8,0z M46.8,34.2L46.8,34.2L46.8,34.2
	L46.8,34.2z M46.5,34L46.5,34l-0.3,0.3l0,0c-0.7,0.9-0.6,1.9-0.5,2.4c0.1,0.9-0.2,1-0.8,1.3c-0.4,0.2-1,0.5-1.4,1l0,0l-0.2,0.4
	c-0.1,0.1-0.1,0.2-0.2,0.3c-0.2,0.6-0.5,1.1-1.4,0.9c-1.3-0.2-2,0.3-2.6,0.7s-0.9,0.6-1.5,0c-0.7-0.7-1.3-0.8-1.9-0.8
	c-0.2,0-0.4,0-0.6,0.1c-0.7,0.1-1.1,0.1-1.7-1c-0.5-1.1-1.2-1.4-1.8-1.7c-0.7-0.3-1-0.4-0.8-1.3c0.2-1-0.1-2-0.8-2.7
	c-0.3-0.3-0.4-1,0-1.4c1-1.1,0.8-2.1,0.7-2.7c0-0.1,0-0.2,0-0.3c0-0.6,0.3-0.8,0.9-1.1c0.7-0.3,1.5-0.7,1.8-1.9
	c0.1-0.4,0.5-0.8,1.2-0.7c0.6,0.1,1.7,0.3,2.8-0.7c0.4-0.4,1-0.4,1.4,0c0.9,0.8,2.2,1,2.8,0.7c0.5-0.1,1,0.2,1.2,0.7
	c0.4,1.2,1.2,1.6,1.9,2c0.7,0.3,1,0.5,0.9,1.3c-0.3,1.2,0.2,2.3,0.8,2.8C47.1,33.2,46.7,33.8,46.5,34z M41.3,42.6
	c0.2,0,0.4,0.1,0.7,0.1c1.3,0,2-0.7,2.4-1.2l2.1,3.8l-2-0.7l0,0c-0.3-0.1-0.5-0.1-0.8,0.1c-0.2,0.1-0.4,0.4-0.5,0.7l-0.4,2L40.3,43
	C40.9,42.6,41,42.6,41.3,42.6z M32.2,41.6c0.6,0.8,1.4,1.2,2.5,1.2c0.2,0,0.4,0,0.6-0.1c0.3-0.1,0.5-0.1,1,0.3l-2.5,4.4l-0.4-2
	c-0.1-0.3-0.2-0.5-0.5-0.7c-0.1-0.1-0.3-0.1-0.5-0.1c-0.1,0-0.2,0-0.3,0.1l-2,0.7L32.2,41.6z M28.9,30.1c0.1,0.7,0,0.9-0.3,1.1
	c-0.2,0.2-0.5,0.5-0.6,1.1H10.3c-0.4-2.1-2-3.7-4.1-4.1v-18c2.1-0.4,3.7-2,4.1-4.1H44c0.4,2.1,2,3.7,4.1,4.1v18
	c-0.2,0-0.3,0.1-0.5,0.1c-0.3-0.8-1.1-1.2-1.7-1.5c-0.5-0.3-0.9-0.5-1-0.9c-0.2-0.8-0.8-1.5-1.6-1.9c-0.7-0.3-1.5-0.4-2-0.2
	c-0.5,0.1-0.8-0.2-1-0.3c-1.2-1-2.9-1-4,0.1c-0.4,0.4-0.7,0.3-1.1,0.2c-1.5-0.3-3,0.6-3.4,2.1c-0.1,0.3-0.4,0.6-0.7,0.7
	C29.7,27,28.6,28.2,28.9,30.1z M47.9,35.4L47.9,35.4c0.7-0.7,1-1.6,0.9-2.4c-0.1-0.8-0.4-1.5-0.8-1.9c-0.2-0.2-0.3-0.5-0.3-0.7
	c0.5-0.2,0.9-0.3,1.3-0.3c0.5-0.1,1.1-0.1,1.1-1V9.4c0-0.5-0.4-1-1-1c-1.8,0-3.2-1.4-3.2-3.2c0-0.5-0.4-1-1-1H9.4c-0.5,0-1,0.4-1,1
	C8.4,7,7,8.4,5.2,8.4c-0.5,0-1,0.4-1,1v19.7c0,0.5,0.4,1,1,1c1.8,0,3.2,1.4,3.2,3.2c0,0.5,0.4,1,1,1H28c0.2,0.5,0.4,0.8,0.6,1
	c0.3,0.3,0.4,0.5,0.3,1.1c0,0,0,0.1,0,0.2H3.5c-0.8,0-1.5-0.7-1.5-1.5V3.5C2,2.7,2.7,2,3.5,2h47.2c0.8,0,1.5,0.7,1.5,1.5v31.6
	c-0.1,0.8-0.7,1.4-1.5,1.4h-3.1c0,0,0,0,0-0.1C47.6,35.7,47.8,35.5,47.9,35.4z M38.3,26.9c-3.5,0-6.4,2.9-6.4,6.4s2.9,6.4,6.4,6.4
	s6.4-2.9,6.4-6.4S41.8,26.9,38.3,26.9z M42.7,33.2c0,2.4-2,4.4-4.4,4.4c-2.5,0-4.5-2-4.5-4.4s2-4.4,4.5-4.4S42.7,30.8,42.7,33.2z
	 M23,20.5L23,20.5l-1.3-3.1c-0.1-0.2-0.2-0.3-0.4-0.3c-0.2,0-0.3,0.1-0.4,0.3l-1.3,3.1l0,0l-0.9,2.2c-0.1,0.2,0,0.5,0.2,0.6
	s0.5,0,0.6-0.2l0.8-1.9h2l0.8,1.9c0.1,0.2,0.2,0.3,0.4,0.3c0.1,0,0.1,0,0.2,0c0.2-0.1,0.3-0.4,0.2-0.6L23,20.5L23,20.5z M20.7,20.2
	l0.6-1.5l0.6,1.5H20.7z M38.5,8.7H27c-1,0-1.8,0.8-1.8,1.8v4.9h-9.7c-1,0-1.8,0.8-1.8,1.8v6.6c0,1,0.8,1.8,1.8,1.8h1.3v3.1
	c0,0.2,0.1,0.3,0.3,0.4c0.1,0,0.1,0,0.2,0s0.2,0,0.3-0.1l3.4-3.4h6c1,0,1.8-0.8,1.8-1.8v-4.9H33l3.4,3.4c0.1,0.1,0.2,0.1,0.3,0.1
	s0.1,0,0.2,0c0.2-0.1,0.3-0.2,0.3-0.4v-3.1h1.3c1,0,1.8-0.8,1.8-1.8v-6.6C40.3,9.5,39.5,8.7,38.5,8.7z M27.9,18.4v5.3
	c0,0.5-0.4,0.9-0.9,0.9h-6.2c-0.1,0-0.2,0.1-0.3,0.1l-2.8,2.8V25c0-0.2-0.2-0.4-0.4-0.4h-1.8c-0.5,0-0.9-0.4-0.9-0.9v-6.6
	c0-0.5,0.4-0.9,0.9-0.9H27c0.5,0,0.9,0.4,0.9,0.9V18.4L27.9,18.4z M35.1,15.8c0.2,0.1,0.4,0.3,0.3,0.6c-0.1,0.2-0.2,0.3-0.4,0.3
	h-0.1c-0.9-0.3-1.5-0.7-2.1-1.1c-0.5,0.4-1.2,0.8-2.1,1.1c-0.1,0-0.1,0-0.1,0c-0.2,0-0.4-0.1-0.4-0.3c-0.1-0.2,0.1-0.5,0.3-0.6
	c0.7-0.2,1.3-0.5,1.7-0.9c-0.9-1-1.1-2.1-1.1-2.7h-0.4c-0.2,0-0.4-0.2-0.4-0.4s0.2-0.4,0.4-0.4h1.8V11c0-0.2,0.2-0.4,0.4-0.4
	s0.4,0.2,0.4,0.4v0.4H35c0.2,0,0.4,0.2,0.4,0.4s-0.2,0.4-0.4,0.4h-0.4c0,0.6-0.2,1.7-1.1,2.7C33.9,15.2,34.4,15.5,35.1,15.8
	L35.1,15.8z M32.8,14.3c0.7-0.8,0.9-1.6,0.9-2.1h-1.8C31.9,12.7,32.1,13.5,32.8,14.3z"/>
</svg>
