<?xml version="1.0" encoding="utf-8"?><!DOCTYPE svg PUBLIC "-//W3C//DTD SVG 1.1//EN" "http://www.w3.org/Graphics/SVG/1.1/DTD/svg11.dtd"><svg xmlns="http://www.w3.org/2000/svg" xmlns:xlink="http://www.w3.org/1999/xlink"><symbol fill="none" viewBox="0 0 60 60" id="documents" xmlns="http://www.w3.org/2000/svg"><path d="M48 9h-6V3H6v42h6v6h6v6h36V21.9l-6-6V9ZM21 54V18h22.5v7.5H51V54H21Zm-6-42h30v3H18v33h-3V12ZM9 6h30v3H12v33H9V6Zm37.5 16.5v-3.9l3.9 3.9h-3.9Z" fill="currentColor"/><path d="M24 40.5v3h24v-3H24ZM24 46.5v3h24v-3H24ZM48 34.5H24v3h24v-3ZM48 28.5H24v3h24v-3Z" fill="currentColor"/></symbol><symbol fill="none" viewBox="0 0 62 61" id="exam" xmlns="http://www.w3.org/2000/svg"><g clip-path="url(#ba)" fill="currentColor" stroke="currentColor"><path d="M23.43 41.353a.622.622 0 0 1-.628-.628c0-.063.012-.138.025-.201l2.085-6.357c.025-.1.088-.176.15-.251L55.428 3.84a3.575 3.575 0 0 1 5.063.026 3.575 3.575 0 0 1-.025 5.062L30.1 39.004a.772.772 0 0 1-.238.15l-6.231 2.161a.57.57 0 0 1-.201.038Zm2.638-6.658-1.646 5.012 4.9-1.696 30.25-29.975a2.31 2.31 0 0 0 .026-3.278 2.332 2.332 0 0 0-1.646-.691h-.012c-.616 0-1.194.238-1.633.665l-30.24 29.963Z"/><path d="M29.66 39.054a.59.59 0 0 1-.439-.189l-4.045-4.045a.633.633 0 0 1 .013-.892.614.614 0 0 1 .866 0l4.046 4.046a.645.645 0 0 1 0 .892.59.59 0 0 1-.44.188Z"/><path d="M38.38 58.25H8.605a.622.622 0 0 1-.629-.628l-.062-7.35H.628A.622.622 0 0 1 0 49.645V1.466C0 1.114.276.838.628.838H50.88c.352 0 .629.276.629.628v7.6a.622.622 0 0 1-.629.629.622.622 0 0 1-.628-.628V2.094H1.256v46.922h7.287c.351 0 .628.277.628.628l.063 7.35h29.145c.352 0 .629.276.629.628a.63.63 0 0 1-.629.628ZM50.88 36.114a.622.622 0 0 1-.629-.628v-17.94c0-.351.277-.628.628-.628.352 0 .629.277.629.629v17.94a.622.622 0 0 1-.629.627Z"/><path d="M8.543 58.25a.59.59 0 0 1-.44-.188L.251 50.21a.625.625 0 0 1 .126-.88.641.641 0 0 1 .754 0l7.851 7.852a.633.633 0 0 1-.012.892.598.598 0 0 1-.427.176ZM46.784 60.838c-7.261 0-13.14-5.88-13.14-13.14 0-7.262 5.879-13.142 13.14-13.142 7.261 0 13.14 5.88 13.14 13.141-.012 7.249-5.891 13.128-13.14 13.14Zm0-25.15c-6.633 0-12.01 5.376-12.01 12.01 0 6.632 5.377 12.01 12.01 12.01s12.01-5.378 12.01-12.01c0-6.634-5.377-12.01-12.01-12.01Z"/><path d="M53.643 52.597a.623.623 0 0 1-.327-.1l-6.909-4.272a.617.617 0 0 1-.301-.528v-8.543c0-.351.276-.628.628-.628.351 0 .628.277.628.628v8.191l6.608 4.083a.63.63 0 0 1 .2.867.617.617 0 0 1-.527.302ZM55.854 13.187a.59.59 0 0 1-.44-.188l-4.082-4.083a.633.633 0 0 1-.013-.892.633.633 0 0 1 .892-.013l.013.013 4.083 4.083a.622.622 0 0 1 0 .892.637.637 0 0 1-.453.188ZM21.47 51.365c-.377 0-.741-.05-1.106-.15-.917-.252-1.633-.804-2.324-1.345-.854-.665-1.595-1.23-2.575-1.155-1.382.1-2.211 1.394-2.575 2.148a.64.64 0 0 1-.817.34.64.64 0 0 1-.34-.817c.013-.026.013-.038.026-.063.829-1.734 2.11-2.752 3.605-2.865 1.458-.113 2.513.704 3.443 1.42.628.477 1.206.942 1.884 1.118a2.86 2.86 0 0 0 1.86-.1 4.41 4.41 0 0 1-.516-.465c-.88-.93-1.193-2.098-.841-3.216.389-1.27 1.23-2.086 2.286-2.249a2.372 2.372 0 0 1 2.324 1.03c.679.993.603 2.362-.213 3.731-.189.34-.415.654-.679.943 1.03.288 2.35.364 3.895-.038a.635.635 0 0 1 .766.452.641.641 0 0 1-.452.766c-1.91.478-3.807.377-5.29-.238a4.004 4.004 0 0 1-2.361.753Zm2.374-6.143c-.05 0-.113 0-.163.013-.565.088-1.03.59-1.269 1.382-.213.678-.012 1.382.553 1.972.213.226.465.427.741.578.327-.314.603-.666.83-1.043.552-.942.64-1.821.25-2.4a1.14 1.14 0 0 0-.942-.502ZM23.367 9.632H11.935a.622.622 0 0 1-.629-.628c0-.352.277-.628.629-.628h11.432c.352 0 .628.276.628.628a.622.622 0 0 1-.628.628ZM19.221 13.275h-7.286a.622.622 0 0 1-.629-.628c0-.352.277-.628.629-.628h7.286c.352 0 .628.276.628.628a.622.622 0 0 1-.628.628ZM9.045 13.652H4.9a.622.622 0 0 1-.628-.628V8.878c0-.352.277-.628.628-.628h4.146c.352 0 .628.276.628.628v4.146a.622.622 0 0 1-.628.628Zm-3.517-1.256h2.89v-2.89h-2.89v2.89ZM23.367 20.624H11.935a.622.622 0 0 1-.629-.628c0-.352.277-.628.629-.628h11.432c.352 0 .628.276.628.628a.622.622 0 0 1-.628.628ZM26.884 24.267h-14.95a.622.622 0 0 1-.627-.628c0-.351.276-.628.628-.628h14.95c.351 0 .627.277.627.628a.622.622 0 0 1-.628.628ZM9.045 24.644H4.9a.622.622 0 0 1-.628-.628v-4.145c0-.352.277-.629.628-.629h4.146c.352 0 .628.277.628.629v4.145a.622.622 0 0 1-.628.628Zm-3.517-1.256h2.89v-2.89h-2.89v2.89ZM22.362 31.617H11.935a.622.622 0 0 1-.629-.628c0-.352.277-.629.629-.629h10.427c.352 0 .628.277.628.629a.622.622 0 0 1-.628.628ZM19.221 35.26h-7.286a.622.622 0 0 1-.629-.628c0-.352.277-.628.629-.628h7.286c.352 0 .628.276.628.628a.622.622 0 0 1-.628.628ZM9.045 35.637H4.9a.622.622 0 0 1-.628-.628v-4.146c0-.352.277-.628.628-.628h4.146c.352 0 .628.276.628.628v4.146a.622.622 0 0 1-.628.628ZM5.528 34.38h2.89v-2.89h-2.89v2.89Z"/></g><defs><clipPath id="ba"><path fill="currentColor" transform="translate(0 .838)" d="M0 0h61.528v60H0z"/></clipPath></defs></symbol><symbol stroke-miterlimit="10" style="fill-rule:nonzero;clip-rule:evenodd;stroke-linecap:round;stroke-linejoin:round" viewBox="0 0 60 60" xml:space="preserve" id="heart-money" xmlns="http://www.w3.org/2000/svg"><clipPath id="ca"><path d="M0 0h60v60H0z"/></clipPath><g clip-path="url(#ca)" fill="currentColor" stroke="currentColor" stroke-linecap="butt" stroke-linejoin="miter" stroke-width=".5"><path d="m30.391 56.44.16.245.002-.001.005-.003.02-.013.076-.051.296-.198c.258-.175.634-.432 1.108-.765.948-.665 2.287-1.632 3.852-2.839l.019-.014.016-.018a.991.991 0 0 0-1.16-1.567l-.027.013-.024.019c-2.163 1.673-3.87 2.86-4.717 3.415-1.936-1.324-8.746-6.145-15.155-12.632-3.3-3.34-6.485-7.115-8.845-11.075-2.36-3.961-3.883-8.09-3.883-12.142a13.63 13.63 0 0 1 26.895-3.09.992.992 0 0 0 1.934-.002 13.63 13.63 0 0 1 26.93 3.09v.002c0 4.173-1.623 8.792-4.85 13.731a.988.988 0 0 0-.152.748l.286-.056-.286.056c.025.13.076.252.15.362l.241-.163-.242.163a.993.993 0 0 0 .64.421l.054-.286-.054.286a.991.991 0 0 0 1.02-.441c3.427-5.23 5.183-10.212 5.183-14.814a15.64 15.64 0 0 0-15.626-15.64 15.529 15.529 0 0 0-14.245 9.213A15.62 15.62 0 0 0 .15 18.813l30.24 37.627Zm0 0 .16.245m-.16-.244.16.244M14.89 44.92l-.001-.001C5.12 35.46.15 26.69.15 18.814L14.89 44.921Zm0 0a111.043 111.043 0 0 0 14.575 11.761M14.89 44.922l14.575 11.76m0 0 .005.003m-.005-.003.005.003m0 0a.992.992 0 0 0 1.08 0m-1.08 0h1.08"/><path d="M45.795 29.486a.991.991 0 0 1 1.402 0c.186.186.29.438.29.701v2.25c2.823.82 4.9 2.99 4.9 5.61a.991.991 0 1 1-1.983 0c0-1.462-1.14-2.843-2.916-3.53v7.95c1.255.499 2.448 1.108 3.342 1.95.948.893 1.557 2.045 1.557 3.576 0 2.62-2.125 4.789-4.9 5.61v2.25a.991.991 0 1 1-1.982 0V53.95c-.176.01-.348.01-.51.01h-.01c-.15 0-.296-.01-.43-.02l-.002-.001-.089-.007v1.92a.991.991 0 1 1-1.983 0v-2.248c-2.822-.821-4.9-2.991-4.9-5.611a.991.991 0 1 1 1.984 0c0 1.492 1.154 2.844 2.916 3.529v-8.699c-1.241-.446-2.429-.958-3.321-1.666-.952-.756-1.578-1.746-1.578-3.11 0-2.62 2.125-4.789 4.899-5.61v-2.25c0-.263.105-.515.29-.7m3.024 0h-3.023m3.023 0a.992.992 0 0 0-.29.7v1.921m.29-2.622-.29 2.622m-2.733-2.622.206.206m-.206-.206-4.899 8.561c0-2.512 2.1-4.64 4.9-5.389v-2.47a.7.7 0 0 1 .205-.495m-.206-.207a.992.992 0 0 1 1.692.701v1.903c.175-.01.348-.01.51-.01h.01c.15 0 .296.01.429.021h.003l.089.007m-2.733-2.622 2.733 2.622m-2.527-2.415a.7.7 0 0 1 .99 0h-.99Zm2.54 4.39v7.665l-.65-.219h-.001l-.389-.13v-7.315a6.501 6.501 0 0 1 1.04 0Zm4.886 14.202h.006c-.137 1.376-1.24 2.6-2.901 3.238v-6.905c1.758.805 2.895 1.807 2.895 3.375v.292Zm-7.902-7.577c-.803-.31-1.498-.653-2.01-1.056-.587-.462-.906-.981-.906-1.605 0-1.494 1.138-2.846 2.916-3.53v6.19Zm3.024 3.17v8.079a6.501 6.501 0 0 1-1.04 0v-8.43l1.04.35Z"/></g></symbol><symbol fill="none" viewBox="0 0 64 64" id="resources" xmlns="http://www.w3.org/2000/svg"><path d="m24.413 11.663.123.018.018-.124 1.161-8.2h12.57l1.161 8.2.018.124.124-.018 1.92-.271.123-.018-.017-.124-1.41-9.975-.014-.107H23.81l-.014.107-1.41 9.975-.017.124.123.018 1.92.271ZM54.599 29.93l.077.1.099-.078 7.932-6.212.085-.067-.054-.094-8.075-13.99-.054-.094-.1.04-9.348 3.763-.116.047.046.116.724 1.803.047.117.116-.047 7.683-3.101 6.285 10.892-6.522 5.105-.098.077.077.098 1.196 1.526ZM54.508 54.464l.101.04.054-.093 8.075-13.99.054-.094-.085-.067-7.932-6.212-.099-.077-.077.098-1.196 1.526-.077.098.098.077 6.522 5.105-6.285 10.892-7.683-3.1-.116-.048-.047.117-.724 1.803-.046.116.116.047 9.347 3.762ZM40.08 62.832h.11l.015-.107 1.409-9.975.018-.124-.124-.018-1.92-.271-.124-.018-.018.124-1.16 8.2h-12.57l-1.162-8.2-.018-.124-.123.018-1.92.271-.124.018.017.124 1.41 9.975.015.107h16.27ZM9.337 54.41l.054.095.1-.04 9.349-3.763.115-.047-.046-.116-.724-1.803-.047-.117-.116.047-7.683 3.102-6.285-10.893 6.522-5.105.098-.077-.077-.098-1.196-1.526-.077-.098-.098.077-7.932 6.212-.086.067.054.094 8.075 13.99ZM9.226 29.952l.098.077.077-.098 1.196-1.526.077-.098-.098-.077-6.522-5.105 6.285-10.893 7.683 3.102.116.047.047-.117.724-1.803.046-.116-.115-.047-9.348-3.762-.101-.04-.054.093-8.075 13.99-.054.094.086.067 7.932 6.212ZM13.56 32c0 10.167 8.273 18.44 18.44 18.44 10.167 0 18.44-8.273 18.44-18.44 0-10.167-8.273-18.44-18.44-18.44-10.167 0-18.44 8.273-18.44 18.44Zm2.19-.006c0-8.962 7.288-16.25 16.25-16.25 8.956 0 16.25 7.294 16.25 16.25 0 8.955-7.294 16.25-16.25 16.25s-16.25-7.288-16.25-16.25Z" fill="currentColor" stroke="currentColor" stroke-width=".25"/><path d="M33.616 39.294h.125v-9.888h-6.178v2.189h3.989v7.699h2.065Z" fill="currentColor" stroke="currentColor" stroke-width=".25"/><path d="M37.723 38.2v-.125h-10.16v2.189h10.16v-2.065ZM32.116 27.865a2.064 2.064 0 1 0 0-4.13 2.064 2.064 0 0 0 0 4.13Z" fill="currentColor" stroke="currentColor" stroke-width=".25"/></symbol><symbol stroke-miterlimit="10" style="fill-rule:nonzero;clip-rule:evenodd;stroke-linecap:round;stroke-linejoin:round" viewBox="0 0 40 41" xml:space="preserve" id="settings" xmlns="http://www.w3.org/2000/svg"><clipPath id="ea"><path d="M0 0h40v41H0z"/></clipPath><g clip-path="url(#ea)"><path d="M9.994.838a5.022 5.022 0 0 0-4.84 3.742h-3.9C.56 4.58 0 5.14 0 5.835 0 6.53.56 7.09 1.255 7.09h3.921a5.003 5.003 0 0 0 4.84 3.742c2.331 0 4.28-1.613 4.841-3.742h23.91c.695 0 1.255-.56 1.255-1.255 0-.695-.56-1.255-1.255-1.255H14.835A5.003 5.003 0 0 0 9.995.838Zm0 2.51c1.39 0 2.51 1.12 2.51 2.51 0 1.389-1.12 2.51-2.51 2.51-1.389 0-2.51-1.121-2.51-2.51 0-1.39 1.121-2.51 2.51-2.51ZM30.006 15.83c-2.308 0-4.28 1.613-4.84 3.742H1.254C.56 19.594 0 20.154 0 20.827c0 .694.56 1.255 1.255 1.255h23.91a5.003 5.003 0 0 0 9.68 0h3.922c.695 0 1.255-.56 1.255-1.255 0-.695-.56-1.255-1.255-1.255h-3.921a5.002 5.002 0 0 0-4.84-3.742Zm0 2.51c1.389 0 2.51 1.12 2.51 2.51 0 1.388-1.121 2.509-2.51 2.509-1.39 0-2.51-1.12-2.51-2.51 0-1.39 1.12-2.51 2.51-2.51ZM15.014 30.842a5.022 5.022 0 0 0-4.84 3.743h-8.92C.56 34.586 0 35.146 0 35.84c0 .694.56 1.255 1.255 1.255h8.919a5.002 5.002 0 0 0 4.84 3.742c2.33 0 4.28-1.614 4.84-3.742h18.913c.695 0 1.255-.56 1.255-1.255 0-.695-.56-1.255-1.255-1.255H19.832a5.002 5.002 0 0 0-4.84-3.742h.022Zm0 2.51c1.39 0 2.51 1.12 2.51 2.51 0 1.39-1.12 2.51-2.51 2.51-1.39 0-2.51-1.12-2.51-2.51 0-1.39 1.12-2.51 2.51-2.51Z" fill="currentColor"/></g></symbol><symbol stroke-miterlimit="10" style="fill-rule:nonzero;clip-rule:evenodd;stroke-linecap:round;stroke-linejoin:round" viewBox="0 0 70 70" xml:space="preserve" id="speaker" xmlns="http://www.w3.org/2000/svg"><clipPath id="fa"><path d="M0 0h70v70H0z"/></clipPath><g clip-path="url(#fa)" fill="currentColor" stroke="currentColor" stroke-linecap="butt" stroke-linejoin="miter" stroke-width=".5"><path d="M47.724 50.025a.717.717 0 0 0 .353-.093m-.353.093a.697.697 0 0 1-.384-.114c-.155-.102-15.29-9.843-28.354-9.073l-.326.022.072.318c.108-.008.217-.014.326-.02m28.666 8.867v.323m0-.323v.323m.353-.416-33.362 8.162a1.03 1.03 0 0 0 1.001.802h.055l6.005-.31-.016-.323.016.322a1.028 1.028 0 0 0 .95-1.252v-.001l-3.668-16.175m29.019 8.775a.704.704 0 0 0 .351-.648l.323-.017-1.917-37.228a1.028 1.028 0 0 0-1.734-.694C33.106 22.72 17.214 23.15 16.945 23.155h-.032l-8.246.417a9.062 9.062 0 0 0-5.612 15.781 9.007 9.007 0 0 0 6.537 2.32l1.382-.072 3.74 16.493 33.362-8.162Zm-29.019-8.775c6.387-.362 13.294 1.81 18.682 4.128a75.297 75.297 0 0 1 6.743 3.316 62.526 62.526 0 0 1 2.482 1.454l.143.09.04.025.01.007.003.002.001.001c.168.11.363.168.563.168m-28.667-9.19 28.667 9.19m-27.18-11.299c5.583 0 11.307 1.623 16.085 3.514a74.23 74.23 0 0 1 9.966 4.862l-1.708-33.147A48.847 48.847 0 0 1 17.013 25.21h-.004l-8.237.416a6.964 6.964 0 0 0-4.845 2.302l-.164.184a7.004 7.004 0 0 0 5.723 11.501l8.244-.423a26.478 26.478 0 0 1 2.814-.142Zm0 0v.323-.323Zm-4.016 17.746-3.462-15.302 3.92-.202 3.468 15.302-3.926.202ZM62.15 18.148l-.14-.127a1.029 1.029 0 0 1 1.372-1.533l.16.14.003.004a19.51 19.51 0 0 1 1.233 27.533 1.017 1.017 0 0 1-.76.337h-.001v-.322a.706.706 0 0 1-.52-1.182 17.786 17.786 0 0 0-1.13-25.087l-.218.237Zm0 0a17.464 17.464 0 0 1 1.108 24.633L62.15 18.148ZM56.866 38.157a1.028 1.028 0 0 1-.066-1.453m.066 1.453-.066-1.453m.066 1.453a1.029 1.029 0 0 0 1.453-.066l-.239-.218m-1.214.284 1.214-.284m-1.28-1.169.239.217-.239-.217Zm1.28 1.169.239.218a10.448 10.448 0 0 0-.7-14.797l-.046-.042m.507 14.62-.506-14.62m0 0-.008-.007m.008.007-.008-.007m0 0a.987.987 0 0 0-1.113-.12.99.99 0 0 0-.302.252m1.415-.132-1.415.132m0 0a1.074 1.074 0 0 0-.232.761m.231-.76-.231.76m0 0c.023.273.149.527.353.71l-.353-.71Z"/></g></symbol><symbol stroke-miterlimit="10" style="fill-rule:nonzero;clip-rule:evenodd;stroke-linecap:round;stroke-linejoin:round" viewBox="0 0 75 75" xml:space="preserve" id="toolkit" xmlns="http://www.w3.org/2000/svg"><path d="M6.688.219A6.54 6.54 0 0 0 .125 6.78V68.25a6.54 6.54 0 0 0 6.563 6.563H68.25a6.54 6.54 0 0 0 6.563-6.563V6.781C74.71 3.19 71.84.22 68.25.22H6.687Zm0 2.031H68.25c2.462 0 4.5 2.068 4.5 4.531V68.25h-.094c0 2.463-2.069 4.5-4.531 4.5H6.687c-2.461 0-4.53-2.037-4.53-4.5V6.781c0-2.463 2.069-4.531 4.53-4.531Zm44.78 8.875c-.32 0-.627.118-.78.375l-4.5 6.344s-.023.125-.126.125v.093c0 .103-.093.21-.093.313v26.156l-4.625 2.875v-2.343c0-1.13-.094-2.278-.094-3.407 0-4.413-.698-9.122-2.031-11.687.82 0 1.406-.72 1.406-1.438v-1.843c0-.822-.586-1.438-1.406-1.438 1.436-1.026 2.134-2.88 2.031-5.344-.308-6.568-4.107-8.397-4.313-8.5-.512-.205-1.004-.004-1.312.406-1.128 1.95-4.718 8.4-4 10.657a4.453 4.453 0 0 0 2.031 2.687c-.82 0-1.437.72-1.437 1.438v1.843c0 .822.617 1.438 1.437 1.438-1.436 2.566-2.25 7.172-2.25 11.688 0 1.334-.093 2.674-.093 3.906-.103 2.976-.219 5.528.5 7.375l-4.625 2.781V15.281c0-.616-.385-1-1-1H16.03c-.615 0-1.031.384-1.031 1V62.72l-1.125.718c-.41.206-.634.715-.531 1.126.102.41.518.718 1.031.718h47.188c.615 0 1.03-.415 1.03-1.031v-27.5c0-.308-.192-.732-.5-.938a.94.94 0 0 0-1.03 0l-4.126 2.376v-19.72c0-.102.01-.21-.093-.312v-.093s.009-.094-.094-.094L52.344 11.5c-.205-.257-.555-.375-.875-.375ZM36.845 13.75c.82.821 2.17 2.564 2.375 6.156.102 1.54-.225 3.393-1.969 3.907-.718.205-1.532.089-2.25-.22-.718-.41-1.232-1-1.438-1.718-.205-.924 1.435-4.738 3.282-8.125Zm14.656.219 2.469 3.594h-5.032l2.563-3.594Zm-34.469 2.25h8.125v39.813l-8.125 5.124v-4.593h1.344c.616 0 1.031-.416 1.031-1.032 0-.615-.415-1.031-1.031-1.031h-1.344v-2.25h1.344c.616 0 1.031-.416 1.031-1.031 0-.616-.415-1.032-1.031-1.032h-1.344v-2.25h2.875c.616 0 1.032-.415 1.032-1.03 0-.616-.416-1.032-1.032-1.032h-2.875v-2.25h1.344c.616 0 1.031-.416 1.031-1.031 0-.616-.415-1.032-1.031-1.032h-1.344v-2.25h1.344c.616 0 1.031-.415 1.031-1.03 0-.616-.415-1.032-1.031-1.032h-1.344v-2.156h2.875c.616 0 1.032-.416 1.032-1.032 0-.615-.416-1-1.032-1h-2.875v-2.28h1.344c.616 0 1.031-.416 1.031-1.032 0-.616-.415-1-1.031-1h-1.344v-2.281h1.344c.616 0 1.031-.385 1.031-1 0-.616-.415-1.032-1.031-1.032h-1.344v-2.28h2.875c.616 0 1.032-.385 1.032-1 0-.616-.416-1.032-1.032-1.032h-2.875v-3.906Zm31 3.281H50.5v22.563L48.031 43.5v-24Zm4.5 0h2.375v19.906l-2.375 1.438V19.5Zm-18.25 7.688H38.5v.718h-4.219v-.718Zm2.157 2.687c.82 0 2.656 3.99 2.656 11.688 0 1.231.022 2.37.125 3.5 0 1.231.102 2.357 0 3.28v.188l-5.563 3.282c-.41-1.437-.29-3.685-.187-6.25.102-1.232.093-2.564.093-4 0-7.595 2.055-11.688 2.876-11.688Zm24.093 8.719v24.718H18.188L47.5 46.189l8.938-5.25 4.093-2.344Zm-6.875 8.812L38.5 56.438c-.41.205-.634.714-.531 1.124.102.411.518.72 1.031.72h15.188c.615 0 1.03-.385 1.03-1V48.25c0-.308-.223-.741-.53-.844a.94.94 0 0 0-1.032 0Zm-.5 2.563v6.281H42.688l10.468-6.281Z" fill="currentColor"/></symbol><symbol stroke-miterlimit="10" style="fill-rule:nonzero;clip-rule:evenodd;stroke-linecap:round;stroke-linejoin:round" viewBox="0 0 70 70" xml:space="preserve" id="translation" xmlns="http://www.w3.org/2000/svg"><path d="M17.575 37.484c-9.606 0-17.42 6.698-17.42 14.932A13.754 13.754 0 0 0 5 62.744a9.17 9.17 0 0 1-1.992 4.969 1.243 1.243 0 0 0 1.222 2.075 36.83 36.83 0 0 0 7.582-3.288 19.95 19.95 0 0 0 5.763.848c9.606 0 17.42-6.698 17.42-14.932s-7.814-14.932-17.42-14.932Zm0 27.375c-1.879.001-3.745-.301-5.528-.895a1.225 1.225 0 0 0-1.043.119 31.57 31.57 0 0 1-4.294 2.163c.44-1.26.722-2.57.84-3.9a1.242 1.242 0 0 0-.449-1.078 11.436 11.436 0 0 1-4.458-8.852c0-6.86 6.699-12.443 14.932-12.443s14.932 5.582 14.932 12.443S25.808 64.86 17.575 64.86Zm47.416-39.445a13.753 13.753 0 0 0 4.846-10.328c0-8.234-7.815-14.932-17.42-14.932-9.607 0-17.421 6.698-17.421 14.932s7.814 14.932 17.42 14.932c1.953.001 3.894-.285 5.764-.848a36.837 36.837 0 0 0 7.581 3.288 1.244 1.244 0 0 0 1.223-2.075 9.17 9.17 0 0 1-1.993-4.969Zm-1.71 3.502a31.574 31.574 0 0 1-4.294-2.163 1.241 1.241 0 0 0-1.043-.119 17.446 17.446 0 0 1-5.528.896c-8.233 0-14.932-5.583-14.932-12.444 0-6.86 6.699-12.443 14.932-12.443 8.234 0 14.932 5.582 14.932 12.443a11.437 11.437 0 0 1-4.458 8.853 1.242 1.242 0 0 0-.45 1.078c.119 1.33.4 2.639.84 3.9ZM18.73 45.733a1.245 1.245 0 0 0-2.312 0l-4.977 12.443a1.244 1.244 0 0 0 2.311.924l1.18-2.95h5.284l1.18 2.95a1.246 1.246 0 0 0 2.024.429 1.245 1.245 0 0 0 .287-1.353l-4.977-12.443Zm-2.802 7.928 1.646-4.116 1.646 4.115H15.93Zm40.887-14.782a1.244 1.244 0 1 1-1.76 1.76l-1.395-1.396v9.44a6.229 6.229 0 0 1-6.222 6.222h-8.71a1.244 1.244 0 0 1 0-2.489h8.71a3.738 3.738 0 0 0 3.733-3.733v-9.44l-1.396 1.396a1.245 1.245 0 0 1-1.76-1.76l3.52-3.519a1.24 1.24 0 0 1 1.76 0l3.52 3.52Zm-43.64-7.767a1.245 1.245 0 1 1 1.759-1.76l1.396 1.396v-9.44a6.23 6.23 0 0 1 6.221-6.222h8.71a1.244 1.244 0 0 1 0 2.489h-8.71a3.737 3.737 0 0 0-3.733 3.733v9.44l1.396-1.396a1.248 1.248 0 0 1 1.365-.285 1.246 1.246 0 0 1 .395 2.045l-3.52 3.519a1.242 1.242 0 0 1-1.76 0l-3.52-3.52Zm45.462-21.003H53.66V8.865a1.244 1.244 0 0 0-2.49 0v1.244h-4.976a1.244 1.244 0 0 0 0 2.489h1.51a15.586 15.586 0 0 0 2.941 5.571 11.504 11.504 0 0 1-3.6 1.96 1.244 1.244 0 1 0 .787 2.359 13.93 13.93 0 0 0 4.583-2.548A13.93 13.93 0 0 0 57 22.488a1.243 1.243 0 1 0 .787-2.36 11.504 11.504 0 0 1-3.6-1.959 15.584 15.584 0 0 0 2.94-5.571h1.51a1.244 1.244 0 0 0 0-2.489Zm-6.222 6.306a12.864 12.864 0 0 1-2.103-3.817h4.206a12.861 12.861 0 0 1-2.103 3.817Z" fill="currentColor"/></symbol></svg>