<?xml version="1.0" encoding="utf-8"?>
<!-- Generator: Adobe Illustrator 27.0.1, SVG Export Plug-In . SVG Version: 6.00 Build 0)  -->
<svg version="1.1" id="Layer_1" xmlns="http://www.w3.org/2000/svg" xmlns:xlink="http://www.w3.org/1999/xlink" x="0px" y="0px"
	 viewBox="0 0 54.3 54" style="enable-background:new 0 0 54.3 54;" xml:space="preserve">
<style type="text/css">
	.st0{fill:currentColor;}
</style>
<path class="st0" d="M13.6,0c-3.1,0-5.8,2.1-6.5,5H1.8C0.9,5,0.1,5.8,0.1,6.7s0.8,1.7,1.7,1.7h5.3c0.8,2.9,3.4,5,6.5,5s5.8-2.2,6.5-5h32.3
	c0.9,0,1.7-0.8,1.7-1.7S53.4,5,52.5,5H20.2C19.4,2.1,16.8,0,13.6,0z M13.6,3.4c1.9,0,3.4,1.5,3.4,3.4s-1.5,3.4-3.4,3.4
	s-3.4-1.5-3.4-3.4S11.8,3.4,13.6,3.4z M40.6,20.2c-3.1,0-5.8,2.2-6.5,5H1.8c-0.9,0-1.7,0.8-1.7,1.7c0,0.9,0.8,1.7,1.7,1.7h32.3
	c0.8,2.9,3.4,5,6.5,5s5.8-2.1,6.5-5h5.3c0.9,0,1.7-0.8,1.7-1.7c0-0.9-0.8-1.7-1.7-1.7h-5.3C46.4,22.4,43.8,20.2,40.6,20.2z
	 M40.6,23.6c1.9,0,3.4,1.5,3.4,3.4s-1.5,3.4-3.4,3.4s-3.4-1.5-3.4-3.4C37.2,25.1,38.8,23.6,40.6,23.6z M20.4,40.5
	c-3.1,0-5.8,2.1-6.5,5h-12c-0.9,0-1.7,0.8-1.7,1.7s0.8,1.7,1.7,1.7h12c0.8,2.9,3.4,5,6.5,5s5.8-2.2,6.5-5h25.5
	c0.9,0,1.7-0.8,1.7-1.7s-0.8-1.7-1.7-1.7H26.9C26.2,42.6,23.5,40.5,20.4,40.5L20.4,40.5z M20.4,43.9c1.9,0,3.4,1.5,3.4,3.4
	s-1.5,3.4-3.4,3.4S17,49.2,17,47.3S18.5,43.9,20.4,43.9z"/>
</svg>
