<?xml version="1.0" encoding="utf-8"?>
<!-- Generator: Adobe Illustrator 27.0.1, SVG Export Plug-In . SVG Version: 6.00 Build 0)  -->
<svg version="1.1" id="Layer_1" xmlns="http://www.w3.org/2000/svg" xmlns:xlink="http://www.w3.org/1999/xlink" x="0px" y="0px"
	 viewBox="0 0 54.3 61.1" style="enable-background:new 0 0 54.3 61.1;" xml:space="preserve">
<style type="text/css">
	.st0{fill:currentColor;}
</style>
<path class="st0" 
d="M47.4,15.5V6.8h-6.6V0H0v47.3h6.6v6.9h6.9v6.9h40.8V22.6L47.4,15.5z M51.4,22.5h-5.9l-0.1-6.1L51.4,22.5z M2,2h36.8v4.8H6.6
	v38.5H2V2z M8.6,52.2v-4.9v-1V8.8h31.2h1h4.6v4.9H13.5v38.5H8.6z M15.5,59.1V15.7h27.9l0.1,8.8h8.8v34.6H15.5z M20,29.6h27.7v2H20
	V29.6z M20,36.5h27.7v2H20V36.5z M20,43.1h27.7v2H20V43.1z M20,50.1h27.7v2H20V50.1z"/>
</svg>
