<?xml version="1.0" encoding="utf-8"?><svg xmlns="http://www.w3.org/2000/svg" xmlns:xlink="http://www.w3.org/1999/xlink"><symbol fill="none" viewBox="0 0 70 66" id="certificate" xmlns="http://www.w3.org/2000/svg"><g clip-path="url(#aa)" fill="currentColor"><path d="M65.032.838H4.048A4.05 4.05 0 0 0 0 4.886V45.48a4.05 4.05 0 0 0 4.048 4.047h33.45c.733 1.609 2.083 1.77 2.525 2.04l-5.16 9.175a.818.818 0 0 0 .087.918c.216.259.572.356.896.237l4.836-1.727 1.014 5.02a.804.804 0 0 0 .67.636h.129a.79.79 0 0 0 .702-.41l5.137-9.12c.53.118.82.096 1.21.02l5.137 9.1c.14.259.421.41.702.41h.13a.817.817 0 0 0 .669-.637l1.014-5.019 4.836 1.727c.313.119.669.022.896-.237a.818.818 0 0 0 .086-.918l-5.149-9.12c.842-.497 2.019-.81 2.558-2.084h4.61a4.049 4.049 0 0 0 4.047-4.047V4.886A4.05 4.05 0 0 0 65.032.838ZM12.36 42.513c-.367-2.774-2.57-4.987-5.343-5.343V13.197c2.774-.367 4.987-2.57 5.343-5.343H56.72c.367 2.774 2.57 4.987 5.343 5.343V37.17c-.486.064-.95.183-1.403.356-.486-2.234-3.174-2.008-3.627-3.551-.583-1.943-2.795-2.882-4.177-2.332-.96.151-1.479-.42-1.651-.54a3.407 3.407 0 0 0-4.62.076c-.659.615-1.274.518-1.867.421-1.857-.313-3.4.799-3.886 2.386a1.783 1.783 0 0 1-1.22 1.208c-1.522.464-2.666 1.932-2.385 3.93.313 2.104-.788 1.36-1.252 3.4H12.359v-.011ZM42.85 62.74l-.766-3.8a.786.786 0 0 0-.4-.539.85.85 0 0 0-.399-.108.784.784 0 0 0-.27.043l-3.68 1.317 3.691-6.552c.648 1.371 1.716 1.986 3.173 1.954 1.09-.022 1.198-.497 2.645.594L42.84 62.75l.011-.01Zm14.01-4.404a.849.849 0 0 0-.669.054.844.844 0 0 0-.4.54l-.765 3.81-4.005-7.102c1.544-1.166 1.446-.594 2.72-.594 2.116 0 2.904-1.705 3.109-1.953l3.691 6.551-3.68-1.306Zm-1.1-6.843c-.378.69-.616 2.234-2.548 1.878-3.011-.583-3.465 2.73-5.515.853-2.505-2.342-3.789.971-5.462-2.472-1.144-2.634-3.897-1.382-3.368-4.145.227-1.263-.14-2.31-.863-3.065-.605-.637-.713-1.695.01-2.483 1.382-1.478.789-3 .789-3.55 0-2.332 2.763-1.22 3.594-4.049.248-.798 1.014-1.424 2.072-1.252.691.12 1.997.335 3.238-.83.724-.67 1.77-.67 2.483 0 .971.895 2.46 1.133 3.249.809a1.847 1.847 0 0 1 2.062 1.263c.852 2.925 4.144 1.791 3.55 4.49-.28 1.36.217 2.59.907 3.195 1.242 1.446-.518 2.882-.064 2.428-1.123 1.188-.95 2.418-.842 3.152.377 2.59-2.062 1.587-3.27 3.8l-.023-.022Zm11.71-6.012a2.432 2.432 0 0 1-2.428 2.428h-4.36c0-.14-.022-.291-.044-.453-.216-1.49.313-1.576.41-1.802h.011c1.393-1.49 1.09-3.832-.065-4.782a1.806 1.806 0 0 1-.399-1.522c1.792-1.015 3.087-.194 3.087-1.425V12.441a.815.815 0 0 0-.81-.81 4.597 4.597 0 0 1-4.587-4.587.815.815 0 0 0-.81-.81H11.604a.815.815 0 0 0-.81.81 4.597 4.597 0 0 1-4.587 4.588.815.815 0 0 0-.81.81v25.483c0 .443.368.81.81.81a4.597 4.597 0 0 1 4.588 4.587c0 .443.367.81.81.81h24.393c.432 1.684 1.554 1.608 1.263 3.173-.032.194-.065.389-.075.605H4.047a2.432 2.432 0 0 1-2.429-2.43V4.887a2.432 2.432 0 0 1 2.429-2.429h60.984a2.432 2.432 0 0 1 2.429 2.429V45.48h.01Z" stroke="currentColor" stroke-width=".7"/><path d="M48.939 35.486c-4.307 0-7.815 3.497-7.815 7.804 0 4.306 3.508 7.804 7.815 7.804a7.808 7.808 0 0 0 7.804-7.804 7.808 7.808 0 0 0-7.804-7.804Zm0 13.989c-3.422 0-6.196-2.774-6.196-6.185 0-3.411 2.785-6.185 6.196-6.185a6.191 6.191 0 0 1 6.185 6.185 6.191 6.191 0 0 1-6.185 6.185Z" stroke="currentColor" stroke-width=".7"/><path d="M29.154 26.775v-.021L27.48 22.77a.564.564 0 0 0-.53-.356.564.564 0 0 0-.528.356l-1.662 3.983v.021l-1.198 2.85a.567.567 0 1 0 1.047.442l1.047-2.504h2.569l1.047 2.504a.575.575 0 0 0 .744.314.559.559 0 0 0 .303-.745l-1.188-2.85.022-.01Zm-3-.356.809-1.943.81 1.943h-1.62Z"/><path d="M49.23 11.567H34.378a2.29 2.29 0 0 0-2.288 2.288v6.282H19.526a2.29 2.29 0 0 0-2.288 2.288v8.57a2.29 2.29 0 0 0 2.288 2.289h1.716v3.994a.575.575 0 0 0 .572.572.58.58 0 0 0 .41-.162l4.393-4.404h7.761a2.29 2.29 0 0 0 2.288-2.288v-6.282h5.473l4.393 4.404a.58.58 0 0 0 .41.161.575.575 0 0 0 .572-.572v-3.993h1.716a2.29 2.29 0 0 0 2.289-2.289v-8.57a2.29 2.29 0 0 0-2.289-2.288ZM35.522 24.13v6.854c0 .626-.518 1.144-1.144 1.144H26.38a.63.63 0 0 0-.41.162l-3.595 3.594V32.69a.576.576 0 0 0-.572-.572h-2.288a1.152 1.152 0 0 1-1.144-1.144v-8.57c0-.626.518-1.144 1.144-1.144h14.852c.626 0 1.144.518 1.144 1.144v1.716l.011.01Zm9.315-3.4a.571.571 0 0 1-.367 1.08c-1.122-.379-1.997-.854-2.677-1.393-.669.529-1.543 1.014-2.676 1.392a.567.567 0 0 1-.723-.356.576.576 0 0 1 .355-.723c.918-.302 1.641-.68 2.202-1.101a5.691 5.691 0 0 1-1.446-3.497h-.561a.576.576 0 0 1-.572-.572c0-.313.259-.572.572-.572h2.288v-.573c0-.313.26-.572.572-.572.313 0 .572.26.572.572v.572h2.288c.313 0 .573.26.573.573 0 .313-.26.572-.573.572h-.56a5.757 5.757 0 0 1-1.447 3.497c.561.42 1.284.799 2.202 1.1h-.022Z"/><path d="M41.815 18.874c.917-1.036 1.122-2.126 1.155-2.73h-2.31a4.454 4.454 0 0 0 1.155 2.73Z"/></g><defs><clipPath id="aa"><path fill="currentColor" transform="translate(0 .838)" d="M0 0h69.08v65H0z"/></clipPath></defs></symbol><symbol fill="none" viewBox="0 0 60 45" id="chat" xmlns="http://www.w3.org/2000/svg"><path d="M40.834 0c-4.72 0-9.044 1.237-12.422 3.36a31.495 31.495 0 0 0-4.818-.365c-6.389 0-12.188 1.898-16.485 5.052C2.813 11.201 0 15.72 0 20.781 0 26.931 3.981 32 10 35.104v8.23a1.669 1.669 0 0 0 1.505 1.645c.41.04.82-.073 1.151-.318l8.698-6.328h2.24c8.613 0 16.274-3.222 20.443-8.62l5.026 3.334a1.669 1.669 0 0 0 2.604-1.38v-5.964C56.48 23.223 60 19.128 60 14.167c0-4.082-2.34-7.714-5.833-10.209C50.673 1.463 45.987 0 40.834 0Zm0 3.334c4.51 0 8.565 1.304 11.406 3.333 2.84 2.029 4.427 4.678 4.427 7.5 0 3.628-2.812 7.036-7.344 9.062a1.667 1.667 0 0 0-.99 1.51v3.777l-4.895-3.255A1.666 1.666 0 0 0 42.5 25h-1.666c-4.51 0-8.566-1.33-11.407-3.36-2.84-2.028-4.426-4.652-4.426-7.473 0-2.822 1.586-5.471 4.426-7.5 2.841-2.03 6.896-3.333 11.407-3.333Zm-17.24 2.994c.42 0 .836.01 1.25.026-1.968 2.21-3.177 4.886-3.177 7.813 0 4.082 2.34 7.687 5.833 10.182 3.493 2.495 8.18 3.985 13.333 3.985C37.317 32.294 30.955 35 23.593 35h-2.76a1.666 1.666 0 0 0-.99.313l-6.51 4.74v-5.886a1.667 1.667 0 0 0-.963-1.537c-5.788-2.66-9.037-6.82-9.037-11.848 0-3.835 2.112-7.377 5.755-10.052 3.644-2.676 8.778-4.401 14.505-4.401Z" fill="currentColor"/></symbol><symbol fill="none" viewBox="0 0 60 60" id="documents" xmlns="http://www.w3.org/2000/svg"><path d="M48 9h-6V3H6v42h6v6h6v6h36V21.9l-6-6V9ZM21 54V18h22.5v7.5H51V54H21Zm-6-42h30v3H18v33h-3V12ZM9 6h30v3H12v33H9V6Zm37.5 16.5v-3.9l3.9 3.9h-3.9Z" fill="currentColor"/><path d="M24 40.5v3h24v-3H24ZM24 46.5v3h24v-3H24ZM48 34.5H24v3h24v-3ZM48 28.5H24v3h24v-3Z" fill="currentColor"/></symbol><symbol fill="none" viewBox="0 0 23 24" id="error" xmlns="http://www.w3.org/2000/svg"><path fill-rule="evenodd" clip-rule="evenodd" d="M13.143 19.832v-2.74a.471.471 0 0 0-.111-.327.437.437 0 0 0-.3-.15h-2.464a.42.42 0 0 0-.3.15.459.459 0 0 0-.112.327v2.74a.471.471 0 0 0 .111.327.436.436 0 0 0 .3.149h2.466a.427.427 0 0 0 .299-.15.465.465 0 0 0 .11-.326Zm-.026-5.394.23-6.62a.37.37 0 0 0-.128-.274.505.505 0 0 0-.307-.16h-2.824a.505.505 0 0 0-.307.16.415.415 0 0 0-.129.3l.219 6.59c0 .189.191.333.436.333h2.375a.391.391 0 0 0 .278-.078c.08-.06.137-.15.158-.251h-.001ZM12.937.965l9.86 20.309a2.01 2.01 0 0 1-.027 1.817c-.135.27-.338.496-.586.656a1.58 1.58 0 0 1-.825.253H1.64a1.58 1.58 0 0 1-.825-.253 1.674 1.674 0 0 1-.586-.656 2.006 2.006 0 0 1-.026-1.817L10.063.965a1.63 1.63 0 0 1 .582-.703 1.532 1.532 0 0 1 1.71 0c.255.171.457.416.582.703Z" fill="currentColor"/></symbol><symbol fill="none" viewBox="0 0 62 61" id="exam" xmlns="http://www.w3.org/2000/svg"><g clip-path="url(#ea)" fill="currentColor" stroke="currentColor"><path d="M23.43 41.353a.622.622 0 0 1-.628-.628c0-.063.012-.138.025-.201l2.085-6.357c.025-.1.088-.176.15-.251L55.428 3.84a3.575 3.575 0 0 1 5.063.026 3.575 3.575 0 0 1-.025 5.062L30.1 39.004a.772.772 0 0 1-.238.15l-6.231 2.161a.57.57 0 0 1-.201.038Zm2.638-6.658-1.646 5.012 4.9-1.696 30.25-29.975a2.31 2.31 0 0 0 .026-3.278 2.332 2.332 0 0 0-1.646-.691h-.012c-.616 0-1.194.238-1.633.665l-30.24 29.963Z"/><path d="M29.66 39.054a.59.59 0 0 1-.439-.189l-4.045-4.045a.633.633 0 0 1 .013-.892.614.614 0 0 1 .866 0l4.046 4.046a.645.645 0 0 1 0 .892.59.59 0 0 1-.44.188Z"/><path d="M38.38 58.25H8.605a.622.622 0 0 1-.629-.628l-.062-7.35H.628A.622.622 0 0 1 0 49.645V1.466C0 1.114.276.838.628.838H50.88c.352 0 .629.276.629.628v7.6a.622.622 0 0 1-.629.629.622.622 0 0 1-.628-.628V2.094H1.256v46.922h7.287c.351 0 .628.277.628.628l.063 7.35h29.145c.352 0 .629.276.629.628a.63.63 0 0 1-.629.628ZM50.88 36.114a.622.622 0 0 1-.629-.628v-17.94c0-.351.277-.628.628-.628.352 0 .629.277.629.629v17.94a.622.622 0 0 1-.629.627Z"/><path d="M8.543 58.25a.59.59 0 0 1-.44-.188L.251 50.21a.625.625 0 0 1 .126-.88.641.641 0 0 1 .754 0l7.851 7.852a.633.633 0 0 1-.012.892.598.598 0 0 1-.427.176ZM46.784 60.838c-7.261 0-13.14-5.88-13.14-13.14 0-7.262 5.879-13.142 13.14-13.142 7.261 0 13.14 5.88 13.14 13.141-.012 7.249-5.891 13.128-13.14 13.14Zm0-25.15c-6.633 0-12.01 5.376-12.01 12.01 0 6.632 5.377 12.01 12.01 12.01s12.01-5.378 12.01-12.01c0-6.634-5.377-12.01-12.01-12.01Z"/><path d="M53.643 52.597a.623.623 0 0 1-.327-.1l-6.909-4.272a.617.617 0 0 1-.301-.528v-8.543c0-.351.276-.628.628-.628.351 0 .628.277.628.628v8.191l6.608 4.083a.63.63 0 0 1 .2.867.617.617 0 0 1-.527.302ZM55.854 13.187a.59.59 0 0 1-.44-.188l-4.082-4.083a.633.633 0 0 1-.013-.892.633.633 0 0 1 .892-.013l.013.013 4.083 4.083a.622.622 0 0 1 0 .892.637.637 0 0 1-.453.188ZM21.47 51.365c-.377 0-.741-.05-1.106-.15-.917-.252-1.633-.804-2.324-1.345-.854-.665-1.595-1.23-2.575-1.155-1.382.1-2.211 1.394-2.575 2.148a.64.64 0 0 1-.817.34.64.64 0 0 1-.34-.817c.013-.026.013-.038.026-.063.829-1.734 2.11-2.752 3.605-2.865 1.458-.113 2.513.704 3.443 1.42.628.477 1.206.942 1.884 1.118a2.86 2.86 0 0 0 1.86-.1 4.41 4.41 0 0 1-.516-.465c-.88-.93-1.193-2.098-.841-3.216.389-1.27 1.23-2.086 2.286-2.249a2.372 2.372 0 0 1 2.324 1.03c.679.993.603 2.362-.213 3.731-.189.34-.415.654-.679.943 1.03.288 2.35.364 3.895-.038a.635.635 0 0 1 .766.452.641.641 0 0 1-.452.766c-1.91.478-3.807.377-5.29-.238a4.004 4.004 0 0 1-2.361.753Zm2.374-6.143c-.05 0-.113 0-.163.013-.565.088-1.03.59-1.269 1.382-.213.678-.012 1.382.553 1.972.213.226.465.427.741.578.327-.314.603-.666.83-1.043.552-.942.64-1.821.25-2.4a1.14 1.14 0 0 0-.942-.502ZM23.367 9.632H11.935a.622.622 0 0 1-.629-.628c0-.352.277-.628.629-.628h11.432c.352 0 .628.276.628.628a.622.622 0 0 1-.628.628ZM19.221 13.275h-7.286a.622.622 0 0 1-.629-.628c0-.352.277-.628.629-.628h7.286c.352 0 .628.276.628.628a.622.622 0 0 1-.628.628ZM9.045 13.652H4.9a.622.622 0 0 1-.628-.628V8.878c0-.352.277-.628.628-.628h4.146c.352 0 .628.276.628.628v4.146a.622.622 0 0 1-.628.628Zm-3.517-1.256h2.89v-2.89h-2.89v2.89ZM23.367 20.624H11.935a.622.622 0 0 1-.629-.628c0-.352.277-.628.629-.628h11.432c.352 0 .628.276.628.628a.622.622 0 0 1-.628.628ZM26.884 24.267h-14.95a.622.622 0 0 1-.627-.628c0-.351.276-.628.628-.628h14.95c.351 0 .627.277.627.628a.622.622 0 0 1-.628.628ZM9.045 24.644H4.9a.622.622 0 0 1-.628-.628v-4.145c0-.352.277-.629.628-.629h4.146c.352 0 .628.277.628.629v4.145a.622.622 0 0 1-.628.628Zm-3.517-1.256h2.89v-2.89h-2.89v2.89ZM22.362 31.617H11.935a.622.622 0 0 1-.629-.628c0-.352.277-.629.629-.629h10.427c.352 0 .628.277.628.629a.622.622 0 0 1-.628.628ZM19.221 35.26h-7.286a.622.622 0 0 1-.629-.628c0-.352.277-.628.629-.628h7.286c.352 0 .628.276.628.628a.622.622 0 0 1-.628.628ZM9.045 35.637H4.9a.622.622 0 0 1-.628-.628v-4.146c0-.352.277-.628.628-.628h4.146c.352 0 .628.276.628.628v4.146a.622.622 0 0 1-.628.628ZM5.528 34.38h2.89v-2.89h-2.89v2.89Z"/></g><defs><clipPath id="ea"><path fill="currentColor" transform="translate(0 .838)" d="M0 0h61.528v60H0z"/></clipPath></defs></symbol><symbol fill="none" viewBox="0 0 60 60" id="heart-money" xmlns="http://www.w3.org/2000/svg"><path d="m30.324 52.656.137.21v-.001h.001l.005-.004.017-.01.065-.044.254-.17c.221-.15.544-.37.95-.655.813-.57 1.96-1.4 3.302-2.434l.016-.013.014-.015a.85.85 0 0 0-.994-1.343l-.023.011-.02.016c-1.855 1.434-3.32 2.453-4.045 2.928-1.66-1.135-7.498-5.268-12.991-10.829-2.829-2.863-5.56-6.099-7.583-9.494C7.405 27.413 6.1 23.874 6.1 20.4a11.684 11.684 0 0 1 23.056-2.65.85.85 0 0 0 1.658 0v-.001A11.684 11.684 0 0 1 53.9 20.398v.002c0 3.577-1.391 7.537-4.158 11.771a.848.848 0 0 0-.13.642l.245-.049-.245.049a.85.85 0 0 0 .128.31l.207-.14-.207.14a.851.851 0 0 0 .549.36l.046-.245-.046.246a.85.85 0 0 0 .873-.379c2.938-4.483 4.444-8.754 4.444-12.699A13.408 13.408 0 0 0 42.211 6.998a13.312 13.312 0 0 0-12.212 7.898A13.39 13.39 0 0 0 4.4 20.4l25.924 32.256Zm0 0 .137.21m-.137-.21.137.21M17.035 42.78v-.001C8.66 34.67 4.4 27.15 4.4 20.4l12.635 22.38Zm0 0A95.198 95.198 0 0 0 29.53 52.863M17.035 42.781 29.53 52.863m0 0 .004.003m-.004-.003.004.003m0 0a.85.85 0 0 0 .926 0m-.926 0h.927" fill="currentColor" stroke="currentColor" stroke-width=".5"/><path d="M43.529 29.549a.85.85 0 0 1 1.202 0 .85.85 0 0 1 .249.601v1.928c2.42.704 4.2 2.564 4.2 4.81a.85.85 0 1 1-1.7 0c0-1.254-.977-2.437-2.5-3.026v6.815c1.076.428 2.099.95 2.865 1.671.813.766 1.335 1.753 1.335 3.066 0 2.247-1.822 4.105-4.2 4.81v1.928a.85.85 0 1 1-1.7 0v-1.63c-.15.008-.298.008-.437.008h-.009c-.127 0-.253-.01-.367-.019h-.002l-.077-.006v1.647a.85.85 0 1 1-1.7 0v-1.928c-2.419-.704-4.2-2.564-4.2-4.81a.85.85 0 0 1 1.7 0c0 1.279.99 2.438 2.5 3.025v-7.457c-1.064-.382-2.082-.82-2.847-1.428-.816-.649-1.353-1.497-1.353-2.666 0-2.247 1.822-4.105 4.2-4.81V30.15a.85.85 0 0 1 .249-.601m2.592 0h-2.592m2.592 0a.85.85 0 0 0-.249.601v1.647m.249-2.248-.249 2.248m-2.343-2.248.177.177m-.177-.177-4.199 7.339c0-2.154 1.8-3.978 4.2-4.62V30.15a.6.6 0 0 1 .176-.424m-.177-.177a.85.85 0 0 1 1.451.601v1.63c.15-.008.298-.008.437-.008h.009c.127 0 .253.01.367.019h.003l.076.006m-2.343-2.248 2.343 2.248m-2.166-2.071a.6.6 0 0 1 .848 0h-.848Zm2.178 3.764v6.57l-.558-.187-.334-.111V33.49a5.58 5.58 0 0 1 .892 0Zm4.188 12.174h.006c-.118 1.18-1.064 2.229-2.488 2.776v-5.92c1.508.691 2.482 1.55 2.482 2.894v.25Zm-6.774-6.495c-.689-.266-1.284-.56-1.723-.905-.503-.397-.777-.841-.777-1.376 0-1.28.976-2.44 2.5-3.026v5.306Zm2.592 2.717v6.926a5.58 5.58 0 0 1-.892 0v-7.226l.892.3Z" fill="currentColor" stroke="currentColor" stroke-width=".5"/></symbol><symbol fill="none" viewBox="0 0 64 64" id="info-gear" xmlns="http://www.w3.org/2000/svg"><path d="m24.413 11.663.123.018.018-.124 1.161-8.2h12.57l1.161 8.2.018.124.124-.018 1.92-.271.123-.018-.017-.124-1.41-9.975-.014-.107H23.81l-.014.107-1.41 9.975-.017.124.123.018 1.92.271ZM54.599 29.93l.077.1.099-.078 7.932-6.212.085-.067-.054-.094-8.075-13.99-.054-.094-.1.04-9.348 3.763-.116.047.046.116.724 1.803.047.117.116-.047 7.683-3.101 6.285 10.892-6.522 5.105-.098.077.077.098 1.196 1.526ZM54.508 54.464l.101.04.054-.093 8.075-13.99.054-.094-.085-.067-7.932-6.212-.099-.077-.077.098-1.196 1.526-.077.098.098.077 6.522 5.105-6.285 10.892-7.683-3.1-.116-.048-.047.117-.724 1.803-.046.116.116.047 9.347 3.762ZM40.08 62.832h.11l.015-.107 1.409-9.975.018-.124-.124-.018-1.92-.271-.124-.018-.018.124-1.16 8.2h-12.57l-1.162-8.2-.018-.124-.123.018-1.92.271-.124.018.017.124 1.41 9.975.015.107h16.27ZM9.337 54.41l.054.095.1-.04 9.349-3.763.115-.047-.046-.116-.724-1.803-.047-.117-.116.047-7.683 3.102-6.285-10.893 6.522-5.105.098-.077-.077-.098-1.196-1.526-.077-.098-.098.077-7.932 6.212-.086.067.054.094 8.075 13.99ZM9.226 29.952l.098.077.077-.098 1.196-1.526.077-.098-.098-.077-6.522-5.105 6.285-10.893 7.683 3.102.116.047.047-.117.724-1.803.046-.116-.115-.047-9.348-3.762-.101-.04-.054.093-8.075 13.99-.054.094.086.067 7.932 6.212ZM13.56 32c0 10.167 8.273 18.44 18.44 18.44 10.167 0 18.44-8.273 18.44-18.44 0-10.167-8.273-18.44-18.44-18.44-10.167 0-18.44 8.273-18.44 18.44Zm2.19-.006c0-8.962 7.288-16.25 16.25-16.25 8.956 0 16.25 7.294 16.25 16.25 0 8.955-7.294 16.25-16.25 16.25s-16.25-7.288-16.25-16.25Z" fill="currentColor" stroke="currentColor" stroke-width=".25"/><path d="M33.616 39.294h.125v-9.888h-6.178v2.189h3.989v7.699h2.065Z" fill="currentColor" stroke="currentColor" stroke-width=".25"/><path d="M37.723 38.2v-.125h-10.16v2.189h10.16v-2.065ZM32.116 27.865a2.064 2.064 0 1 0 0-4.13 2.064 2.064 0 0 0 0 4.13Z" fill="currentColor" stroke="currentColor" stroke-width=".25"/></symbol><symbol fill="none" viewBox="0 0 70 70" id="megaphone" xmlns="http://www.w3.org/2000/svg"><path d="M44.882 46.658c.096 0 .19-.025.274-.072m-.274.072a.54.54 0 0 1-.297-.088c-.12-.08-11.848-7.627-21.97-7.03-.085.005-.17.01-.253.017l.056.246.252-.016m22.212 6.871v.25m0-.25v.25m.274-.322-25.851 6.325a.797.797 0 0 0 .776.621h.043l4.653-.24-.013-.25.013.25a.796.796 0 0 0 .736-.971v-.001L22.67 39.787m22.486 6.8a.546.546 0 0 0 .272-.503l.25-.013-1.486-28.846a.796.796 0 0 0-1.343-.538c-9.293 8.813-21.607 9.147-21.815 9.151h-.025l-6.39.323a7.022 7.022 0 0 0-4.348 12.228 6.978 6.978 0 0 0 5.066 1.798l1.07-.056 2.898 12.78 25.85-6.325Zm-22.486-6.8c4.95-.28 10.301 1.403 14.476 3.199a58.364 58.364 0 0 1 5.225 2.569 48.424 48.424 0 0 1 1.923 1.127l.11.07.031.019.009.005.002.002h.001c.13.086.281.13.436.13m-22.213-7.12 22.213 7.12m-21.061-8.754c4.326 0 8.762 1.257 12.464 2.723a57.514 57.514 0 0 1 7.722 3.767L42.685 18.96a37.85 37.85 0 0 1-21.6 8.471h-.002l-6.382.322a5.395 5.395 0 0 0-3.755 1.785l-.127.142a5.427 5.427 0 0 0 4.435 8.912l6.387-.328a20.519 20.519 0 0 1 2.18-.11Zm0 0v.25-.25Zm-3.111 13.75-2.683-11.857 3.037-.157 2.688 11.857-3.042.157ZM56.06 21.959l-.108-.099a.797.797 0 0 1 1.063-1.188l.123.11.003.002a15.117 15.117 0 0 1 .955 21.333.789.789 0 0 1-.589.262v-.25a.548.548 0 0 1-.403-.915 13.781 13.781 0 0 0-.875-19.44l-.17.185Zm0 0a13.532 13.532 0 0 1 .859 19.086l-.86-19.086ZM51.966 37.462a.797.797 0 0 1-.051-1.126m.051 1.126-.051-1.126m.051 1.126a.797.797 0 0 0 1.125-.051l-.184-.169m-.94.22.94-.22m-.992-.905.185.168-.185-.169Zm.992.905.184.169a8.095 8.095 0 0 0-.541-11.466l-.036-.032m.393 11.33-.393-11.33m0 0-.006-.005m.006.005-.006-.005m0 0a.767.767 0 0 0-1.097.102m1.097-.102-1.097.102m0 0a.832.832 0 0 0-.18.59m.18-.59-.18.59m0 0a.832.832 0 0 0 .274.55l-.273-.55Z" fill="currentColor" stroke="currentColor" stroke-width=".5"/></symbol><symbol fill="none" viewBox="0 0 60 60" id="notes" xmlns="http://www.w3.org/2000/svg"><path d="M25.845 13.983H11.173a.867.867 0 0 0-.863.862c0 .473.39.863.863.863h14.662c.474 0 .863-.39.863-.863a.853.853 0 0 0-.853-.862ZM25.845 19.279H11.173a.867.867 0 0 0-.863.863c0 .473.39.862.863.862h14.662c.474 0 .863-.39.863-.863a.853.853 0 0 0-.853-.862ZM25.845 24.584H11.173a.867.867 0 0 0-.863.863c0 .473.39.862.863.862h14.662c.474 0 .863-.39.863-.863a.853.853 0 0 0-.853-.862ZM25.845 29.88H11.173a.867.867 0 0 0-.863.862c0 .473.39.863.863.863h14.662c.474 0 .863-.39.863-.863a.859.859 0 0 0-.853-.863ZM25.845 35.184H11.173a.867.867 0 0 0-.863.863c0 .473.39.863.863.863h14.662c.474 0 .863-.39.863-.863a.847.847 0 0 0-.853-.862ZM25.845 40.48H11.173a.867.867 0 0 0-.863.863c0 .472.39.862.863.862h14.662c.474 0 .863-.39.863-.862a.853.853 0 0 0-.853-.863ZM34.155 15.708h5.583c.473 0 .862-.39.862-.863a.867.867 0 0 0-.862-.862h-5.583a.867.867 0 0 0-.863.862c0 .483.39.863.863.863ZM34.155 21.013h5.583c.473 0 .862-.39.862-.863a.867.867 0 0 0-.862-.862h-5.583a.867.867 0 0 0-.863.863c0 .473.39.862.863.862ZM34.155 26.309h5.583c.473 0 .862-.39.862-.863a.867.867 0 0 0-.862-.862h-5.583a.867.867 0 0 0-.863.863c0 .473.39.862.863.862ZM34.155 31.605h5.583c.473 0 .862-.39.862-.863a.867.867 0 0 0-.862-.863h-5.583a.867.867 0 0 0-.863.863c0 .473.39.863.863.863ZM34.155 36.91h5.797c.473 0 .862-.39.862-.863a.867.867 0 0 0-.862-.862h-5.797a.867.867 0 0 0-.863.862c0 .473.39.863.863.863ZM41.556 40.48h-7.392a.867.867 0 0 0-.862.863c0 .472.39.862.862.862h7.392c.473 0 .863-.39.863-.862a.867.867 0 0 0-.863-.863Z" fill="currentColor"/><path d="M58.185 12.463 53.529 8.66c-.046-.037-.102-.065-.157-.093-.019-.009-.037-.028-.065-.037a.962.962 0 0 0-.325-.065H50.73V5.924a2.117 2.117 0 0 0-.603-1.502 2.117 2.117 0 0 0-1.521-.631H44.94a2.13 2.13 0 0 0-2.124 2.124v2.55h-8.532c-1.79 0-3.367.918-4.294 2.31a5.16 5.16 0 0 0-4.303-2.31H7.018a.963.963 0 0 0-.324.065c-.019.019-.038.028-.065.046a.87.87 0 0 0-.158.093l-4.656 3.803a.853.853 0 0 0-.315.668v38.247c0 .473.39.862.862.862h21.934c.409 2.245 2.384 3.96 4.74 3.96h1.92a4.82 4.82 0 0 0 4.739-3.96h21.943c.473 0 .862-.389.862-.862V13.13a.853.853 0 0 0-.315-.667Zm-1.41 36.847-2.93-2.913V11.155l2.93 2.393v35.761Zm-8.337-13.096-1.679 3.246-1.67-3.246h3.349ZM7.88 45.896V10.199h17.816a3.442 3.442 0 0 1 3.441 3.422v32.265H7.881v.01Zm22.982-32.237v-.02c0-1.891 1.54-3.44 3.432-3.44h8.532l-.018 25.134c0 .009.009.018.009.037 0 .083.018.176.056.26.009.027.018.046.027.074.01.009.01.018.01.037l3.078 6a.87.87 0 0 0 .77.473.861.861 0 0 0 .77-.463l3.098-5.991c.009-.01.009-.028.018-.037.01-.019.019-.047.028-.065a.798.798 0 0 0 .046-.25c0-.01.01-.02.01-.028v-.158l.009-24.512v-.482h1.39v35.697H30.864V13.658Zm14.088-8.134h3.663a.397.397 0 0 1 .399.39v.009l-.019 28.565-4.451-.01.018-28.555a.383.383 0 0 1 .39-.399Zm-38.795 5.63v35.252l-2.93 2.912v-35.78l2.93-2.384Zm28.76 39.369a.867.867 0 0 0-.862.862 3.093 3.093 0 0 1-3.089 3.089h-1.92a3.093 3.093 0 0 1-3.088-3.089.867.867 0 0 0-.862-.862H4.468l2.913-2.903H52.63l2.912 2.903H34.916Z" fill="currentColor"/></symbol><symbol fill="none" viewBox="0 0 42 43" id="search" xmlns="http://www.w3.org/2000/svg"><circle cx="21" cy="21.932" r="21" fill="currentColor"/><path d="m29.754 28.65-3.516-3.515c-.175-.141-.386-.247-.597-.247h-.563a7.33 7.33 0 0 0 1.547-4.5c0-4.007-3.305-7.312-7.313-7.312-4.043 0-7.312 3.305-7.312 7.313a7.307 7.307 0 0 0 7.313 7.312 7.266 7.266 0 0 0 4.5-1.547v.598c0 .21.07.422.246.597l3.48 3.48c.352.352.879.352 1.195 0l.985-.983c.351-.317.351-.844.035-1.196ZM19.312 24.89a4.486 4.486 0 0 1-4.5-4.5c0-2.461 2.004-4.5 4.5-4.5 2.461 0 4.5 2.039 4.5 4.5 0 2.496-2.039 4.5-4.5 4.5Z" fill="#fff"/></symbol><symbol fill="none" viewBox="0 0 60 61" id="search-people" xmlns="http://www.w3.org/2000/svg"><path d="M18.146 20.485c0-2.952 2.461-5.413 5.414-5.413 2.952 0 5.413 2.46 5.413 5.413 0 2.953-2.46 5.413-5.413 5.413-2.953-.123-5.414-2.46-5.414-5.413Zm5.414 7.75c7.135 0 12.917 5.414 13.41 12.55-7.997 6.52-19.193 6.274-26.82 0 .492-7.013 6.274-12.55 13.41-12.55Zm31.617 30.142c-.738-.123-1.845-.738-3.075-1.845l3.568-3.445c.984 1.23 1.722 2.338 1.845 3.076 0 .615-1.6 2.214-2.338 2.214Zm-1.23-7.135-3.69 3.568c-2.584-2.584-5.414-6.029-7.628-9.104l1.107-1.108 1.107-1.107c3.076 2.338 6.644 5.29 9.104 7.75ZM45.335 39.8l-6.52 6.398-2.215-2.092c2.707-1.845 4.798-3.937 6.52-6.52l2.215 2.214Zm-.738-13.779c-.369 4.798-2.337 9.227-5.536 12.795-1.107-5.66-5.29-10.334-10.703-12.18a7.818 7.818 0 0 0 2.952-6.15c0-4.307-3.567-7.875-7.873-7.875s-7.874 3.568-7.874 7.874a7.818 7.818 0 0 0 2.952 6.152c-5.536 1.722-9.596 6.397-10.703 12.18C.308 30.572.431 17.655 8.427 9.658c1.846-1.846 4.06-3.322 6.398-4.43C22.82 1.786 32.048 3.509 38.2 9.66c.738.738 1.353 1.353 1.845 2.214 3.445 3.814 4.921 8.981 4.552 14.148ZM3.507 12.12c-5.66 9.227-4.43 21.284 3.444 29.035 7.136 7.135 18.208 9.104 27.558 4.182l2.584 2.584a2.525 2.525 0 0 0 3.567 0l.37-.369c2.706 3.69 9.718 12.795 13.901 13.287h.246c2.092 0 4.922-2.83 4.675-5.044-.492-4.183-9.473-11.196-13.286-13.902l.369-.37a2.525 2.525 0 0 0 0-3.567l-2.46-2.584c1.475-2.83 2.46-6.028 2.583-9.227.369-4.92-.861-9.842-3.445-14.025L41.89 9.536v.123c-.493-.615-1.108-1.353-1.723-1.969-1.722-1.722-3.69-3.198-5.905-4.305L32.17 2.4C26.758.321 20.607.321 15.194 2.4l-2.46 1.23C10.518 4.739 8.55 6.215 6.827 7.937c-.615.616-1.107 1.23-1.6 1.846l-1.722 2.337Z" fill="currentColor"/></symbol><symbol fill="none" viewBox="0 0 40 41" id="sliders" xmlns="http://www.w3.org/2000/svg"><g clip-path="url(#la)"><path d="M9.994.31a5.022 5.022 0 0 0-4.84 3.741h-3.9C.56 4.051 0 4.611 0 5.306c0 .695.56 1.255 1.255 1.255h3.921a5.003 5.003 0 0 0 4.84 3.742c2.331 0 4.28-1.613 4.841-3.742h23.91c.695 0 1.255-.56 1.255-1.255 0-.694-.56-1.255-1.255-1.255H14.835A5.003 5.003 0 0 0 9.995.31Zm0 2.509c1.39 0 2.51 1.12 2.51 2.51 0 1.39-1.12 2.51-2.51 2.51-1.389 0-2.51-1.121-2.51-2.51 0-1.39 1.121-2.51 2.51-2.51ZM30.006 15.3c-2.308 0-4.28 1.613-4.84 3.742H1.254C.56 19.065 0 19.626 0 20.298c0 .695.56 1.255 1.255 1.255h23.91a5.003 5.003 0 0 0 9.68 0h3.922c.695 0 1.255-.56 1.255-1.255 0-.695-.56-1.255-1.255-1.255h-3.921a5.002 5.002 0 0 0-4.84-3.742Zm0 2.51c1.389 0 2.51 1.12 2.51 2.51 0 1.389-1.121 2.51-2.51 2.51-1.39 0-2.51-1.121-2.51-2.51 0-1.39 1.12-2.51 2.51-2.51ZM15.014 30.315a5.022 5.022 0 0 0-4.84 3.742h-8.92c-.694 0-1.254.56-1.254 1.255 0 .695.56 1.255 1.255 1.255h8.919a5.003 5.003 0 0 0 4.84 3.742c2.33 0 4.28-1.613 4.84-3.742h18.913c.695 0 1.255-.56 1.255-1.255 0-.695-.56-1.255-1.255-1.255H19.832a5.002 5.002 0 0 0-4.84-3.742h.022Zm0 2.51c1.39 0 2.51 1.12 2.51 2.51 0 1.389-1.12 2.51-2.51 2.51-1.39 0-2.51-1.121-2.51-2.51 0-1.39 1.12-2.51 2.51-2.51Z" fill="currentColor"/></g><defs><clipPath id="la"><path fill="currentColor" transform="translate(0 .31)" d="M0 0h40v40H0z"/></clipPath></defs></symbol><symbol fill="none" viewBox="0 0 75 75" id="toolkit" xmlns="http://www.w3.org/2000/svg"><path d="M60 10.5H15c-2.625 0-4.8 2.1-4.8 4.8v44.925c0 2.625 2.1 4.8 4.8 4.8h45c2.625 0 4.8-2.1 4.8-4.8V15.3c-.075-2.625-2.175-4.8-4.8-4.8Zm3.225 49.725c0 1.8-1.5 3.3-3.3 3.3H15c-1.8 0-3.3-1.5-3.3-3.3V15.3c0-1.8 1.5-3.3 3.3-3.3h45c1.8 0 3.3 1.5 3.3 3.3v44.925h-.075Z" fill="currentColor"/><path d="M55.5 36.525a.681.681 0 0 0-.75 0l-3 1.725v-14.4c0-.075 0-.15-.075-.225v-.075s0-.075-.075-.075l-3.225-4.725c-.3-.375-.975-.375-1.2 0l-3.3 4.65s0 .075-.075.075v.075c0 .075-.075.15-.075.225V42.9L40.35 45v-1.725c0-.825-.075-1.65-.075-2.475 0-3.225-.525-6.675-1.5-8.55.6 0 1.05-.525 1.05-1.05v-1.35c0-.6-.45-1.05-1.05-1.05 1.05-.75 1.575-2.1 1.5-3.9-.225-4.8-3-6.15-3.15-6.225-.375-.15-.75 0-.975.3-.825 1.425-3.45 6.15-2.925 7.8.225.825.75 1.5 1.5 1.95-.6 0-1.05.525-1.05 1.05v1.35c0 .6.45 1.05 1.05 1.05-1.05 1.875-1.65 5.25-1.65 8.55 0 .975-.075 1.95-.075 2.85-.075 2.175-.15 4.05.375 5.4L30 51V21.525c0-.45-.3-.75-.75-.75h-7.425c-.45 0-.75.3-.75.75v34.65l-.825.525c-.3.15-.45.525-.375.825.075.3.375.525.75.525h34.5c.45 0 .75-.3.75-.75V37.2a.895.895 0 0 0-.375-.675Zm-27-14.25V51.3l-5.925 3.75v-3.375h.975c.45 0 .75-.3.75-.75s-.3-.75-.75-.75h-.975v-1.65h.975c.45 0 .75-.3.75-.75s-.3-.75-.75-.75h-.975v-1.65h2.1c.45 0 .75-.3.75-.75s-.3-.75-.75-.75h-2.1v-1.65h.975c.45 0 .75-.3.75-.75s-.3-.75-.75-.75h-.975v-1.65h.975c.45 0 .75-.3.75-.75s-.3-.75-.75-.75h-.975V36h2.1c.45 0 .75-.3.75-.75s-.3-.75-.75-.75h-2.1v-1.65h.975c.45 0 .75-.3.75-.75s-.3-.75-.75-.75h-.975V29.7h.975c.45 0 .75-.3.75-.75s-.3-.75-.75-.75h-.975v-1.65h2.1c.45 0 .75-.3.75-.75s-.3-.75-.75-.75h-2.1V22.2H28.5v.075ZM48.525 40.2V24.6h1.725v14.55l-1.725 1.05Zm-.75-19.65 1.8 2.625H45.9l1.875-2.625Zm-2.55 4.05h1.8v16.5l-1.8 1.05V24.6Zm-10.05 5.625h3.075v.525h-3.075v-.525ZM37.05 20.4c.6.6 1.575 1.875 1.725 4.5.075 1.125-.15 2.475-1.425 2.85-.525.15-1.125.075-1.65-.15-.525-.3-.9-.75-1.05-1.275-.15-.675 1.05-3.45 2.4-5.925Zm-2.475 23.25c.075-.9.075-1.875.075-2.925 0-5.55 1.5-8.55 2.1-8.55.6 0 1.95 2.925 1.95 8.55 0 .9 0 1.725.075 2.55 0 .9.075 1.725 0 2.4v.15l-4.05 2.4c-.3-1.05-.225-2.7-.15-4.575Zm19.8 12.975H23.4L44.85 44.1l6.525-3.825 3-1.725v18.075Z" fill="currentColor"/><path d="M50.1 45a.681.681 0 0 0-.75 0l-11.1 6.6c-.3.15-.45.525-.375.825.075.3.375.525.75.525h11.1c.45 0 .75-.3.75-.75v-6.6c0-.225-.15-.525-.375-.6Zm-1.125 6.45h-7.65l7.65-4.575v4.575Z" fill="currentColor"/></symbol><symbol fill="none" viewBox="0 0 70 70" id="translation" xmlns="http://www.w3.org/2000/svg"><path d="M19.688 37.188c-8.444 0-15.313 5.887-15.313 13.124a12.09 12.09 0 0 0 4.26 9.079 8.06 8.06 0 0 1-1.752 4.367 1.093 1.093 0 0 0 1.074 1.824 32.379 32.379 0 0 0 6.664-2.89c1.644.495 3.35.746 5.066.745C28.132 63.438 35 57.55 35 50.313c0-7.238-6.869-13.126-15.313-13.126Zm0 24.062c-1.652 0-3.293-.265-4.86-.788a1.076 1.076 0 0 0-.917.105 27.747 27.747 0 0 1-3.773 1.901c.386-1.107.634-2.259.738-3.427a1.092 1.092 0 0 0-.395-.948 10.052 10.052 0 0 1-3.918-7.78c0-6.031 5.888-10.938 13.125-10.938 7.236 0 13.125 4.907 13.125 10.938 0 6.03-5.889 10.937-13.126 10.937Zm41.678-34.672a12.09 12.09 0 0 0 4.259-9.078c0-7.238-6.869-13.125-15.313-13.125C41.87 4.375 35 10.262 35 17.5s6.869 13.125 15.313 13.125c1.716 0 3.422-.25 5.066-.745a32.38 32.38 0 0 0 6.663 2.89 1.094 1.094 0 0 0 1.075-1.825 8.06 8.06 0 0 1-1.751-4.367Zm-1.504 3.079a27.735 27.735 0 0 1-3.773-1.902 1.09 1.09 0 0 0-.918-.104 15.337 15.337 0 0 1-4.858.787c-7.238 0-13.126-4.907-13.126-10.938 0-6.03 5.889-10.938 13.126-10.938 7.236 0 13.124 4.907 13.124 10.938a10.052 10.052 0 0 1-3.918 7.781 1.091 1.091 0 0 0-.395.948c.104 1.168.351 2.32.738 3.427Zm-39.159 14.78a1.094 1.094 0 0 0-2.031 0l-4.375 10.938a1.094 1.094 0 1 0 2.031.812l1.038-2.593h4.643l1.038 2.593a1.095 1.095 0 0 0 2.031-.812l-4.375-10.937Zm-2.462 6.97 1.447-3.618 1.446 3.617h-2.893ZM54.18 38.413a1.094 1.094 0 1 1-1.547 1.546l-1.227-1.226v8.297a5.476 5.476 0 0 1-5.468 5.469H38.28a1.093 1.093 0 1 1 0-2.188h7.657a3.285 3.285 0 0 0 3.28-3.28v-8.298l-1.226 1.226a1.094 1.094 0 0 1-1.547-1.546l3.094-3.093a1.093 1.093 0 0 1 1.547 0l3.094 3.093Zm-38.36-6.828a1.094 1.094 0 1 1 1.547-1.546l1.227 1.226V22.97a5.476 5.476 0 0 1 5.468-5.469h7.657a1.093 1.093 0 1 1 0 2.188h-7.657a3.285 3.285 0 0 0-3.28 3.28v8.298l1.226-1.226a1.096 1.096 0 0 1 1.797.347 1.094 1.094 0 0 1-.25 1.2l-3.094 3.092a1.093 1.093 0 0 1-1.547 0l-3.094-3.093Zm39.961-18.461h-4.375v-1.094a1.094 1.094 0 0 0-2.187 0v1.094h-4.375a1.093 1.093 0 1 0 0 2.188h1.328a13.698 13.698 0 0 0 2.585 4.897 10.113 10.113 0 0 1-3.166 1.722 1.095 1.095 0 0 0-.158 2.032 1.094 1.094 0 0 0 .85.042 12.244 12.244 0 0 0 4.03-2.24 12.244 12.244 0 0 0 4.028 2.24 1.093 1.093 0 1 0 .693-2.074 10.113 10.113 0 0 1-3.166-1.722 13.698 13.698 0 0 0 2.585-4.898h1.328a1.093 1.093 0 1 0 0-2.187Zm-5.468 5.543a11.305 11.305 0 0 1-1.849-3.355h3.697a11.305 11.305 0 0 1-1.849 3.355Z" fill="currentColor"/></symbol></svg>