<?xml version="1.0" encoding="utf-8"?><svg xmlns="http://www.w3.org/2000/svg" xmlns:xlink="http://www.w3.org/1999/xlink"><symbol viewBox="0 0 54.3 54" style="enable-background:new 0 0 54.3 54" xml:space="preserve" id="control" xmlns="http://www.w3.org/2000/svg"><path d="M13.6 0c-3.1 0-5.8 2.1-6.5 5H1.8C.9 5 .1 5.8.1 6.7s.8 1.7 1.7 1.7h5.3c.8 2.9 3.4 5 6.5 5s5.8-2.2 6.5-5h32.3c.9 0 1.7-.8 1.7-1.7S53.4 5 52.5 5H20.2c-.8-2.9-3.4-5-6.6-5zm0 3.4c1.9 0 3.4 1.5 3.4 3.4s-1.5 3.4-3.4 3.4-3.4-1.5-3.4-3.4 1.6-3.4 3.4-3.4zm27 16.8c-3.1 0-5.8 2.2-6.5 5H1.8c-.9 0-1.7.8-1.7 1.7 0 .9.8 1.7 1.7 1.7h32.3c.8 2.9 3.4 5 6.5 5s5.8-2.1 6.5-5h5.3c.9 0 1.7-.8 1.7-1.7 0-.9-.8-1.7-1.7-1.7h-5.3c-.7-2.8-3.3-5-6.5-5zm0 3.4c1.9 0 3.4 1.5 3.4 3.4s-1.5 3.4-3.4 3.4-3.4-1.5-3.4-3.4 1.6-3.4 3.4-3.4zM20.4 40.5c-3.1 0-5.8 2.1-6.5 5h-12c-.9 0-1.7.8-1.7 1.7s.8 1.7 1.7 1.7h12c.8 2.9 3.4 5 6.5 5s5.8-2.2 6.5-5h25.5c.9 0 1.7-.8 1.7-1.7s-.8-1.7-1.7-1.7H26.9c-.7-2.9-3.4-5-6.5-5zm0 3.4c1.9 0 3.4 1.5 3.4 3.4s-1.5 3.4-3.4 3.4-3.4-1.5-3.4-3.4 1.5-3.4 3.4-3.4z" style="fill:currentColor"/></symbol><symbol viewBox="0 0 54.3 61.1" style="enable-background:new 0 0 54.3 61.1" xml:space="preserve" id="documents" xmlns="http://www.w3.org/2000/svg"><path d="M47.4 15.5V6.8h-6.6V0H0v47.3h6.6v6.9h6.9v6.9h40.8V22.6l-6.9-7.1zm4 7h-5.9l-.1-6.1 6 6.1zM2 2h36.8v4.8H6.6v38.5H2V2zm6.6 50.2V8.8H45.4v4.9H13.5v38.5H8.6zm6.9 6.9V15.7h27.9l.1 8.8h8.8v34.6H15.5zM20 29.6h27.7v2H20v-2zm0 6.9h27.7v2H20v-2zm0 6.6h27.7v2H20v-2zm0 7h27.7v2H20v-2z" style="fill:currentColor"/></symbol><symbol viewBox="0 0 54.3 50" style="enable-background:new 0 0 54.3 50" xml:space="preserve" id="education" xmlns="http://www.w3.org/2000/svg"><path d="M23.2 9.7H9.4c-.6 0-1.1.5-1.1 1.1s.5 1.1 1.1 1.1h13.8c.6 0 1.1-.5 1.1-1.1 0-.3-.1-.5-.3-.7-.2-.3-.5-.4-.8-.4zm0 4.9H9.4c-.6 0-1.1.5-1.1 1.1s.5 1.1 1.1 1.1h13.8c.6 0 1.1-.5 1.1-1.1 0-.3-.1-.5-.3-.7-.2-.2-.5-.4-.8-.4zm0 5H9.4c-.6 0-1.1.5-1.1 1.1s.5 1.1 1.1 1.1h13.8c.6 0 1.1-.5 1.1-1.1 0-.3-.1-.5-.3-.7-.2-.2-.5-.4-.8-.4zm0 5H9.4c-.6 0-1.1.5-1.1 1.1s.5 1.1 1.1 1.1h13.8c.6 0 1.1-.5 1.1-1.1s-.5-1.1-1.1-1.1zm0 5H9.4c-.6 0-1.1.5-1.1 1.1s.5 1.1 1.1 1.1h13.8c.6 0 1.1-.5 1.1-1.1 0-.3-.1-.5-.3-.8-.2-.2-.5-.3-.8-.3zm0 5H9.4c-.6 0-1.1.5-1.1 1.1s.5 1.1 1.1 1.1h13.8c.6 0 1.1-.5 1.1-1.1 0-.3-.1-.5-.3-.8-.2-.2-.5-.3-.8-.3zm7.9-22.8h5.3c.6 0 1.1-.5 1.1-1.1s-.5-1.1-1.1-1.1h-5.3c-.6 0-1.1.5-1.1 1.1s.5 1.1 1.1 1.1zm0 5h5.3c.6 0 1.1-.5 1.1-1.1s-.5-1.1-1.1-1.1h-5.3c-.6 0-1.1.5-1.1 1.1s.5 1.1 1.1 1.1zm0 5h5.3c.6 0 1.1-.5 1.1-1.1s-.5-1.1-1.1-1.1h-5.3c-.6 0-1.1.5-1.1 1.1s.5 1.1 1.1 1.1zm0 5h5.3c.6 0 1.1-.5 1.1-1.1s-.5-1.1-1.1-1.1h-5.3c-.6 0-1.1.5-1.1 1.1s.5 1.1 1.1 1.1zm0 5h5.5c.6 0 1.1-.5 1.1-1.1s-.5-1.1-1.1-1.1h-5.5c-.6 0-1.1.5-1.1 1.1s.5 1.1 1.1 1.1zm6.9 2.8h-7c-.6 0-1.1.5-1.1 1.1s.5 1.1 1.1 1.1h7c.6 0 1.1-.5 1.1-1.1s-.5-1.1-1.1-1.1zM53.9 8.3l-4.4-3.6c-.1-.1-.1-.1-.2-.1l-.1-.1c-.1-.1-.3-.1-.4-.1h-1.9V2.3c0-.6-.2-1.2-.6-1.6-.4-.4-1-.7-1.6-.7h-3.5C40 0 39 1 39 2.3v2.2h-7.8c-1.6 0-3.1.7-4 2-1-1.3-2.5-2-4.1-2H5.5c-.1 0-.2 0-.4.1H5s-.1.1-.2.1L.4 8.3c-.2.2-.4.5-.4.8v36c0 .6.5 1.1 1.1 1.1h20.5c.5 2.2 2.4 3.7 4.7 3.7H28c2.2 0 4.2-1.6 4.7-3.7h20.5c.6 0 1.1-.5 1.1-1.1v-36c-.1-.3-.2-.6-.4-.8zM6.6 39.7V6.6h16.5c1.6 0 3 1.3 3 3v30.1H6.6zM41.1 29V2.2h3.7V29h-3.7zm3 2.1-1.2 2.3-1.2-2.3h2.4zm-4.8-.8-.1.1h-.1l2.9 5.8c.2.4.5.6.9.6s.8-.2.9-.6l2.9-5.6v-.2c0-.1 0-.2.1-.3V6.6h.8v33.1H28.1V9.6c0-1.6 1.3-3 3-3H39v23.5c0 .1 0 .2.1.3l.2-.1zm11.3 13.8H31.8c-.6 0-1.1.5-1.1 1.1 0 1.5-1.2 2.7-2.7 2.7h-1.8c-1.5 0-2.7-1.2-2.7-2.7 0-.6-.5-1.1-1.1-1.1H3.7l2.2-2.2h42.4l2.3 2.2zM4.4 7.8v32.6l-2.3 2.2v-33l2.3-1.8zm47.7 1.8v33l-2.3-2.2V7.8l2.3 1.8z" style="fill:currentColor"/></symbol><symbol viewBox="0 0 54.3 52.8" style="enable-background:new 0 0 54.3 52.8" xml:space="preserve" id="exam" xmlns="http://www.w3.org/2000/svg"><path d="M53.2 8.9c1.4-1.4 1.4-3.7 0-5.1s-3.7-1.4-5.1 0l-2.5 2.5V2.1c0-.6-.5-1-1-1H1.1c-.6 0-1 .5-1 1v41.7c0 .3.1.6.3.7v.1l6.8 6.8c.2.2.5.3.8.3h25.7c.1 0 .2 0 .3-.1 2 1.4 4.4 2.3 7 2.3 6.5 0 11.8-5.3 11.9-11.9 0-4.9-3-9.1-7.3-10.9V16.4l7.6-7.5zM41 52c-5.5 0-9.9-4.4-9.9-9.9s4.4-9.9 9.9-9.9 9.9 4.4 9.9 9.9S46.5 52 41 52zm0-21.9c-6.5 0-11.9 5.3-11.9 11.9 0 2.9 1 5.5 2.7 7.5H9v-5.9c0-.6-.5-1-1-1H2.1V3.2h41.4v5.2L21.8 29.8c-.1.1-.2.2-.2.4l-1.8 5.6v.3c0 .6.5 1 1 1 .1 0 .2 0 .3-.1l5.4-1.9c.1-.1.3-.1.4-.2l16.6-16.4v12c-.8-.2-1.6-.4-2.5-.4zM3.5 44.8h3.4v3.4l-3.4-3.4zm22.8-12.1-2.1-2.1L45.3 9.7l2.1 2.1-21.1 20.9zm-1.9 1-1.9.7.6-1.9 1.3 1.2zm24.5-23.5-2.1-2.1 2.8-2.8c.6-.6 1.6-.6 2.1 0 .3.3.4.7.4 1.1 0 .4-.2.8-.5 1.1l-2.7 2.7zm-1.4 34.7L42 41.5v-6.8c0-.6-.5-1-1-1-.6 0-1 .5-1 1v7.4c0 .4.2.7.5.9l6 3.7c.2.1.4.2.5.2.4 0 .7-.2.9-.5.2-.6.1-1.2-.4-1.5zm-22.2-1.6c-.8.2-1.6.3-2.4.2 0-.1.1-.1.1-.2.8-1.4.9-2.7.2-3.8-.6-.8-1.5-1.3-2.5-1.1-1.1.2-2 1-2.4 2.3-.3 1-.1 2.1.6 3-.1 0-.3 0-.4-.1-.4-.1-.9-.4-1.3-.8l-.1-.1c-.8-.6-1.9-1.4-3.3-1.3-1.5.1-2.7 1.1-3.6 2.8-.2.5 0 1.1.6 1.4.5.2 1.1 0 1.3-.5.3-.6.9-1.5 1.8-1.6.6 0 1.1.3 1.9.9.6.5 1.3 1 2.2 1.3.4.1.7.1 1.1.1.8 0 1.5-.2 2.1-.6 1.4.5 3 .5 4.6.1.5-.1.9-.7.7-1.3 0-.5-.6-.9-1.2-.7zm-3.7-2.6c.2.3.1.9-.2 1.5-.1.2-.2.3-.4.5l-.2-.2c-.3-.3-.5-.7-.4-1.2s.4-.8.7-.8V40v.5c.2-.1.4 0 .5.2zm-9.7-31h9.9c.6 0 1-.5 1-1s-.5-1-1-1h-9.9c-.6 0-1 .5-1 1s.4 1 1 1zm0 3.1h6.3c.6 0 1-.5 1-1s-.5-1-1-1h-6.3c-.6 0-1 .5-1 1s.4 1 1 1zM8.4 7.5H4.8c-.6 0-1 .5-1 1v3.6c0 .6.5 1 1 1h3.6c.6 0 1-.5 1-1V8.5c0-.6-.4-1-1-1zM7.3 9.6v1.5H5.8V9.6h1.5zm4.6 9.5h9.9c.6 0 1-.5 1-1s-.5-1-1-1h-9.9c-.6 0-1 .5-1 1s.4 1 1 1zm0 3.1h12.9c.6 0 1-.5 1-1s-.5-1-1-1H11.9c-.6 0-1 .5-1 1s.4 1 1 1zM8.4 17H4.8c-.6 0-1 .5-1 1v3.6c0 .6.5 1 1 1h3.6c.6 0 1-.5 1-1V18c0-.6-.4-1-1-1zm-1.1 2.1v1.5H5.8v-1.5h1.5zm4.6 9.5h9c.6 0 1-.5 1-1 0-.6-.5-1-1-1h-9c-.6 0-1 .5-1 1-.1.5.4 1 1 1zm0 3.2h6.3c.6 0 1-.5 1-1s-.5-1-1-1h-6.3c-.6 0-1 .5-1 1s.4 1 1 1zm-3.5-5.3H4.8c-.6 0-1 .5-1 1v3.6c0 .6.5 1 1 1h3.6c.6 0 1-.5 1-1v-3.6c0-.6-.4-1-1-1zm-1.1 2.1v1.5H5.8v-1.5h1.5z" style="fill:currentColor"/></symbol><symbol viewBox="0 0 54.3 49" style="enable-background:new 0 0 54.3 49" xml:space="preserve" id="grant" xmlns="http://www.w3.org/2000/svg"><path d="M50.1 4.3C47.4 1.6 43.8.1 40 .1c-2.9 0-5.6.8-8 2.4C29.9 4 28.2 6 27.1 8.3c-1.3-2.7-3.4-5-6-6.4C18.2.3 14.8-.2 11.6.4 8.3 1 5.4 2.7 3.3 5.3 1.2 7.8 0 11.1 0 14.4c0 7.1 4.5 15.1 13.4 23.7 4.1 3.9 8.5 7.5 13.2 10.7.2.1.4.2.5.2.2 0 .4-.1.6-.2 0 0 2.1-1.3 4.9-3.5.3-.4.4-.9.1-1.3-.3-.4-.8-.5-1.3-.3-1.8 1.4-3.3 2.5-4.2 3C23.8 44.3 2 28.9 2 14.4c0-3 1.1-5.9 3.1-8.1s4.7-3.7 7.7-4 6 .4 8.4 2.1c2.5 1.7 4.2 4.3 4.9 7.2.1.5.5.8 1 .8s.9-.3 1-.8c.7-2.9 2.4-5.5 4.8-7.3 2.5-1.8 5.5-2.5 8.5-2.2s5.8 1.8 7.8 4c2 2.3 3.1 5.2 3.1 8.2 0 3.8-1.5 7.9-4.4 12.4-.2.2-.2.5-.2.8.1.3.2.5.4.6s.5.2.8.1.5-.2.6-.4c3.1-4.8 4.7-9.3 4.7-13.5.1-3.7-1.4-7.3-4.1-10zm-4.6 27.5c0 .6.5 1 1 1 .6 0 1-.5 1-1 0-2.3-1.8-4.4-4.4-5.2v-2c0-.6-.5-1-1-1-.6 0-1 .5-1 1v1.6h-.7v-1.6c0-.6-.5-1-1-1s-1 .5-1 1v2c-2.7.8-4.4 2.9-4.4 5.2 0 2.5 2.2 3.6 4.4 4.4v7.6c-1.5-.6-2.4-1.8-2.4-3 0-.6-.5-1-1-1-.6 0-1 .5-1 1 0 2.3 1.8 4.4 4.4 5.2v2c0 .6.5 1 1 1s1-.5 1-1v-1.6h.7V48c0 .6.5 1 1 1 .6 0 1-.5 1-1v-2c2.7-.8 4.4-2.9 4.4-5.2 0-2.7-2-4-4-4.9h.3l-.7-.2v-6.9c1.4.6 2.4 1.7 2.4 3zm-4.4-3.5V35l-.7-.2v-6.4c.2-.1.4-.1.7-.1zm0 8.8v7.1h-.7v-7.4l.7.3zm4.4 3.7v.3c-.1 1.1-1 2.1-2.4 2.7v-5.9c1.6.8 2.4 1.7 2.4 2.9zm-9.6-9c0-1.3.9-2.4 2.4-3V34c-1.6-.7-2.4-1.4-2.4-2.2z" style="fill:currentColor"/></symbol><symbol viewBox="0 0 54.3 51.1" style="enable-background:new 0 0 54.3 51.1" xml:space="preserve" id="interpreter_certificate" xmlns="http://www.w3.org/2000/svg"><path d="M50.8 0H3.5C1.6 0 0 1.6 0 3.5v31.4c0 1.9 1.6 3.5 3.5 3.5h25.7c.5.9 1.2 1.2 1.7 1.4l-3.8 6.8c-.2.4-.2.8.1 1.1.3.3.7.4 1.1.3l3.4-1.2.7 3.5c.1.4.4.7.9.8h.1c.4 0 .7-.2.8-.5l3.9-6.8h.6l3.9 6.8c.2.3.5.5.9.5h.2c.4-.1.7-.4.8-.8l.7-3.5 3.4 1.2c.4.1.8 0 1.1-.3s.3-.8.1-1.1L46 39.8s.1 0 .1-.1c.5-.3 1.2-.6 1.6-1.3h3.4c1.9 0 3.5-1.6 3.5-3.5V3.5C54.3 1.6 52.7 0 50.8 0zm-4 34.2zm-.3-.2-.3.3c-.7.9-.6 1.9-.5 2.4.1.9-.2 1-.8 1.3-.4.2-1 .5-1.4 1l-.2.4c-.1.1-.1.2-.2.3-.2.6-.5 1.1-1.4.9-1.3-.2-2 .3-2.6.7s-.9.6-1.5 0c-.7-.7-1.3-.8-1.9-.8-.2 0-.4 0-.6.1-.7.1-1.1.1-1.7-1-.5-1.1-1.2-1.4-1.8-1.7-.7-.3-1-.4-.8-1.3.2-1-.1-2-.8-2.7-.3-.3-.4-1 0-1.4 1-1.1.8-2.1.7-2.7v-.3c0-.6.3-.8.9-1.1.7-.3 1.5-.7 1.8-1.9.1-.4.5-.8 1.2-.7.6.1 1.7.3 2.8-.7.4-.4 1-.4 1.4 0 .9.8 2.2 1 2.8.7.5-.1 1 .2 1.2.7.4 1.2 1.2 1.6 1.9 2 .7.3 1 .5.9 1.3-.3 1.2.2 2.3.8 2.8.7.6.3 1.2.1 1.4zm-5.2 8.6c.2 0 .4.1.7.1 1.3 0 2-.7 2.4-1.2l2.1 3.8-2-.7c-.3-.1-.5-.1-.8.1-.2.1-.4.4-.5.7l-.4 2-2.5-4.4c.6-.4.7-.4 1-.4zm-9.1-1c.6.8 1.4 1.2 2.5 1.2.2 0 .4 0 .6-.1.3-.1.5-.1 1 .3l-2.5 4.4-.4-2c-.1-.3-.2-.5-.5-.7-.1-.1-.3-.1-.5-.1-.1 0-.2 0-.3.1l-2 .7 2.1-3.8zm-3.3-11.5c.1.7 0 .9-.3 1.1-.2.2-.5.5-.6 1.1H10.3c-.4-2.1-2-3.7-4.1-4.1v-18c2.1-.4 3.7-2 4.1-4.1H44c.4 2.1 2 3.7 4.1 4.1v18c-.2 0-.3.1-.5.1-.3-.8-1.1-1.2-1.7-1.5-.5-.3-.9-.5-1-.9-.2-.8-.8-1.5-1.6-1.9-.7-.3-1.5-.4-2-.2-.5.1-.8-.2-1-.3-1.2-1-2.9-1-4 .1-.4.4-.7.3-1.1.2-1.5-.3-3 .6-3.4 2.1-.1.3-.4.6-.7.7-1.4.4-2.5 1.6-2.2 3.5zm19 5.3c.7-.7 1-1.6.9-2.4-.1-.8-.4-1.5-.8-1.9-.2-.2-.3-.5-.3-.7.5-.2.9-.3 1.3-.3.5-.1 1.1-.1 1.1-1V9.4c0-.5-.4-1-1-1-1.8 0-3.2-1.4-3.2-3.2 0-.5-.4-1-1-1H9.4c-.5 0-1 .4-1 1C8.4 7 7 8.4 5.2 8.4c-.5 0-1 .4-1 1v19.7c0 .5.4 1 1 1 1.8 0 3.2 1.4 3.2 3.2 0 .5.4 1 1 1H28c.2.5.4.8.6 1 .3.3.4.5.3 1.1v.2H3.5c-.8 0-1.5-.7-1.5-1.5V3.5C2 2.7 2.7 2 3.5 2h47.2c.8 0 1.5.7 1.5 1.5v31.6c-.1.8-.7 1.4-1.5 1.4h-3.1v-.1c0-.7.2-.9.3-1zm-9.6-8.5c-3.5 0-6.4 2.9-6.4 6.4s2.9 6.4 6.4 6.4 6.4-2.9 6.4-6.4-2.9-6.4-6.4-6.4zm4.4 6.3c0 2.4-2 4.4-4.4 4.4-2.5 0-4.5-2-4.5-4.4s2-4.4 4.5-4.4 4.4 2 4.4 4.4zM23 20.5l-1.3-3.1c-.1-.2-.2-.3-.4-.3s-.3.1-.4.3l-1.3 3.1-.9 2.2c-.1.2 0 .5.2.6s.5 0 .6-.2l.8-1.9h2l.8 1.9c.1.2.2.3.4.3h.2c.2-.1.3-.4.2-.6l-.9-2.3zm-2.3-.3.6-1.5.6 1.5h-1.2zM38.5 8.7H27c-1 0-1.8.8-1.8 1.8v4.9h-9.7c-1 0-1.8.8-1.8 1.8v6.6c0 1 .8 1.8 1.8 1.8h1.3v3.1c0 .2.1.3.3.4h.2c.1 0 .2 0 .3-.1l3.4-3.4h6c1 0 1.8-.8 1.8-1.8v-4.9H33l3.4 3.4c.1.1.2.1.3.1h.2c.2-.1.3-.2.3-.4v-3.1h1.3c1 0 1.8-.8 1.8-1.8v-6.6c0-1-.8-1.8-1.8-1.8zm-10.6 9.7v5.3c0 .5-.4.9-.9.9h-6.2c-.1 0-.2.1-.3.1l-2.8 2.8V25c0-.2-.2-.4-.4-.4h-1.8c-.5 0-.9-.4-.9-.9v-6.6c0-.5.4-.9.9-.9H27c.5 0 .9.4.9.9v1.3zm7.2-2.6c.2.1.4.3.3.6-.1.2-.2.3-.4.3h-.1c-.9-.3-1.5-.7-2.1-1.1-.5.4-1.2.8-2.1 1.1h-.1c-.2 0-.4-.1-.4-.3-.1-.2.1-.5.3-.6.7-.2 1.3-.5 1.7-.9-.9-1-1.1-2.1-1.1-2.7h-.4c-.2 0-.4-.2-.4-.4s.2-.4.4-.4h1.8V11c0-.2.2-.4.4-.4s.4.2.4.4v.4H35c.2 0 .4.2.4.4s-.2.4-.4.4h-.4c0 .6-.2 1.7-1.1 2.7.4.3.9.6 1.6.9zm-2.3-1.5c.7-.8.9-1.6.9-2.1h-1.8c0 .5.2 1.3.9 2.1z" style="fill:currentColor"/></symbol><symbol viewBox="0 0 54.3 54.3" style="enable-background:new 0 0 54.3 54.3" xml:space="preserve" id="magnifying_glass" xmlns="http://www.w3.org/2000/svg"><path d="M16.5 17.8c0-2.7 2.2-4.9 4.9-4.9s4.9 2.2 4.9 4.9-2.2 4.9-4.9 4.9c-2.7-.1-4.9-2.2-4.9-4.9zm4.9 7c6.5 0 11.7 4.9 12.1 11.4-7.2 5.9-17.4 5.7-24.3 0 .5-6.4 5.7-11.4 12.2-11.4zM50 52.1c-.7-.1-1.7-.7-2.8-1.7l3.2-3.1c.9 1.1 1.6 2.1 1.7 2.8 0 .5-1.4 2-2.1 2zm-1.1-6.5-3.4 3.3c-2.3-2.3-4.9-5.5-6.9-8.2l1-1 1-1c2.8 2 6.1 4.7 8.3 6.9zm-7.8-10.3-5.9 5.8-2-1.9c2.5-1.7 4.3-3.6 5.9-5.9l2 2zm-.7-12.5c-.3 4.3-2.1 8.4-5 11.6-1-5.1-4.8-9.4-9.7-11 1.7-1.3 2.7-3.3 2.7-5.6 0-3.9-3.2-7.1-7.1-7.1s-7.1 3.2-7.1 7.1c0 2.2 1 4.2 2.7 5.6-5 1.6-8.7 5.8-9.7 11C.3 26.9.4 15.2 7.7 8c1.7-1.7 3.7-3 5.8-4C20.7.9 29.1 2.4 34.7 8c.7.7 1.2 1.2 1.7 2 3 3.4 4.4 8.1 4 12.8zM3.2 10.2c-5.1 8.4-4 19.3 3.1 26.3 6.5 6.5 16.5 8.2 25 3.8l2.3 2.3c.9.9 2.3.9 3.2 0l.3-.3c2.5 3.3 8.8 11.6 12.6 12h.3c1.9 0 4.5-2.6 4.2-4.6-.4-3.8-8.6-10.1-12-12.6l.3-.3c.9-.9.9-2.3 0-3.2l-2.2-2.3c1.3-2.6 2.2-5.5 2.3-8.4.3-4.5-.8-8.9-3.1-12.7L38 7.9V8c-.4-.6-1-1.2-1.6-1.8-1.6-1.6-3.3-2.9-5.3-3.9l-1.9-.9c-4.9-1.9-10.5-1.9-15.4 0l-2.2 1.1c-2 1-3.8 2.3-5.3 3.9-.6.6-1 1.1-1.4 1.7l-1.7 2.1z" style="fill:currentColor"/></symbol><symbol viewBox="0 0 54.3 54.1" style="enable-background:new 0 0 54.3 54.1" xml:space="preserve" id="resources" xmlns="http://www.w3.org/2000/svg"><path d="M21.8 2.2h10.7l1 7.3 2.2-.3L34.4 0H19.9l-1.3 9.2 2.2.3 1-7.3zM46 10l5.4 9.3-5.8 4.5 1.3 1.8 7.3-5.8L47 7.2l-8.6 3.5.8 2L46 10zm-.4 20.3 5.8 4.6-5.4 9.3-6.8-2.8-.8 2 8.6 3.5 7.2-12.6-7.3-5.7-1.3 1.7zM32.5 52H21.8l-1-7.3-2.2.3 1.3 9.1h14.5l1.3-9.1-2.2-.3-1 7.3zM8.3 44.2l-5.4-9.3 5.8-4.6-1.3-1.7-7.3 5.7 7.2 12.6 8.6-3.5-.8-2-6.8 2.8zm.4-20.4-5.8-4.5L8.3 10l6.8 2.7.8-2-8.6-3.5L.1 19.8l7.3 5.8 1.3-1.8zm18.4-13c-9 0-16.2 7.3-16.2 16.2s7.3 16.2 16.2 16.2S43.4 36 43.4 27.1s-7.3-16.3-16.3-16.3zm0 30.3C19.4 41.1 13 34.8 13 27c0-7.7 6.3-14.1 14.1-14.1 7.7 0 14.1 6.3 14.1 14.1s-6.3 14.1-14.1 14.1zm1.7-16.4h-5.7v2.2h3.5v5.3h-3.5v2.2h9.2v-2.2h-3.5v-7.5zm-1.5-4.9c1 0 1.9.9 1.9 1.9s-.9 1.9-1.9 1.9-1.9-.9-1.9-1.9.9-1.9 1.9-1.9z" style="fill:currentColor"/></symbol><symbol viewBox="0 0 54.3 37.3" style="enable-background:new 0 0 54.3 37.3" xml:space="preserve" id="speaker" xmlns="http://www.w3.org/2000/svg"><path d="M35.9.1c-.3-.1-.6 0-.9.2-9.4 8.9-21.8 9.2-21.9 9.2l-6.4.3c-1.9.1-3.6.9-4.9 2.3S-.1 15.3 0 17.2s.9 3.6 2.3 4.9c1.4 1.2 3.2 1.9 5.1 1.8l1.1-.1 2.9 12.8c.1.4.4.6.8.6l4.7-.2c.2 0 .5-.1.6-.3s.2-.4.1-.7l-2.9-12.6c10.1-.6 21.7 6.9 21.9 7 .2.2.6.2.8 0 .3-.2.4-.4.4-.7L36.3.7c.1-.2-.1-.5-.4-.6zm.3 28.2c-3.1-1.8-11.9-6.5-20.3-6.5h-.1c-.7 0-1.4 0-2.1.1l-6.4.3c-1.5.1-2.9-.4-3.9-1.4S1.7 18.5 1.6 17c-.1-1.4.4-2.7 1.3-3.8H3c1-1.1 2.3-1.7 3.8-1.8l6.4-.3c7.9-.5 15.6-3.5 21.7-8.5l1.3 25.7zm-23-4.7 2.7 11.9-3.1.2-2.7-11.9 3.1-.2zM49.4 4.4c-.5-.4-1-.4-1.3-.1-.1.2-.2.4-.2.6s.1.4.3.5l.1.1C51 8 52.5 11.3 52.7 15s-1.1 7.1-3.5 9.8c-.2.2-.3.6-.1.9.1.3.4.5.7.5.2 0 .4-.1.6-.3 2.7-3 4.1-6.9 4-10.9-.3-4.2-2-7.9-5-10.6zm-4.7 5.1c-.2-.1-.4-.2-.6-.2-.2 0-.4.1-.5.3-.3.3-.2.8.1 1.1 1.3 1.2 2 2.8 2.1 4.5s-.5 3.4-1.7 4.7c-.3.3-.3.8.1 1.1.2.1.3.2.5.2s.4-.1.6-.3c1.4-1.6 2.2-3.7 2.1-5.9-.1-1.9-1-4-2.7-5.5z" style="fill:currentColor"/></symbol><symbol viewBox="0 0 54.3 54.2" style="enable-background:new 0 0 54.3 54.2" xml:space="preserve" id="toolkit" xmlns="http://www.w3.org/2000/svg"><path d="M49.3 0H5C2.2 0 0 2.2 0 5v44.3c0 2.7 2.2 5 5 5h44.3c2.7 0 5-2.2 5-5V5c-.1-2.8-2.3-5-5-5zm3 5-.1 44.3c0 1.6-1.4 3-3 3H5c-1.6 0-3-1.4-3-3V5c0-1.6 1.4-3 3-3h44.3c1.6 0 3 1.4 3 3zM45 25.7c-.3-.2-.7-.2-1 0l-2.6 1.5V13.4c0-.1 0-.1-3.4-5.2-.2-.3-.5-.4-.9-.4-.3 0-.6.2-.7.4-3.4 4.9-3.4 5-3.4 5.1V32l-2.8 1.8V30.2c0-3.2-.5-6.4-1.4-8.2.6-.2.9-.7.9-1.2v-1.3c0-.5-.3-1-.7-1.2.8-.8 1.2-2.1 1.2-3.7-.2-4.6-2.7-6.1-3.3-6.4-.5-.2-.9 0-1.3.4-1.1 1.8-3.4 6.2-2.9 7.9.2.7.6 1.3 1.1 1.7-.4.2-.7.7-.7 1.1v1.3c0 .6.4 1.1.9 1.2-.9 1.9-1.5 5-1.5 8.2v2.9c-.1 2-.1 3.8.3 5.1L20 39.7V11.1c0-.6-.4-1-1-1h-7.3c-.6 0-1 .4-1 1v34l-.7.4c-.4.2-.6.7-.5 1.1.1.4.5.7 1 .7h34c.6 0 1-.4 1-1V26.6c0-.4-.2-.7-.5-.9zM26.9 17c-.4.1-1 .1-1.4-.1-.5-.3-.8-.7-.9-1.1-.1-.5.7-2.6 2.2-5.4.8 1 1.3 2.3 1.4 4 0 1-.1 2.3-1.3 2.6zm-.5 4.9c.4.1 1.7 2.8 1.7 8.2 0 .9 0 1.7.1 2.5V35l-3.6 2c-.2-1-.1-2.4-.1-4v-.1c.1-.9.1-1.9.1-2.9 0-5.3 1.4-8 1.8-8.1zm9.5-9.4 1.4-1.9 1.3 1.9h-2.7zm2.4 16.6V14.4h1.2v13.9l-1.2.8zM35 31V14.4h1.3v15.9L35 31zM14.2 45.4l20.3-11.9 6.4-3.8 2.6-1.5v17.1l-29.3.1zm.2-5.3c0-.6-.4-1-1-1h-.7V38h.7c.6 0 1-.4 1-1s-.4-1-1-1h-.7v-1.1h1.8c.6 0 1-.4 1-1s-.4-1-1-1h-1.8v-1.1h.7c.6 0 1-.4 1-1s-.4-1-1-1h-.7v-1.1h.7c.6 0 1-.4 1-1s-.4-1-1-1h-.7v-1.1h1.8c.6 0 1-.4 1-1s-.4-1-1-1h-1.8v-1.1h.7c.6 0 1-.4 1-1s-.4-1-1-1h-.7v-1.1h.7c.6 0 1-.4 1-1s-.4-1-1-1h-.7v-1.1h1.8c.6 0 1-.4 1-1s-.4-1-1-1h-1.8V12H18v28.3l-5.3 3.4v-2.6h.7c.6 0 1-.4 1-1zM39.7 34c-.3-.2-.7-.2-1 0l-10.9 6.5c-.4.2-.6.7-.5 1.1.1.4.5.7 1 .7h10.9c.6 0 1-.4 1-1v-6.5c0-.3-.2-.7-.5-.8zm-1.5 2.5v3.8h-6.4l6.4-3.8z" style="fill:currentColor"/></symbol><symbol viewBox="0 0 54.3 40.5" style="enable-background:new 0 0 54.3 40.5" xml:space="preserve" id="training" xmlns="http://www.w3.org/2000/svg"><path d="M36.9 0c-4.2 0-8.1 1.1-11.2 3-1.4-.2-2.9-.3-4.3-.3-5.7 0-11 1.7-14.8 4.5C2.7 10 .2 14.1.2 18.7c0 5.5 3.6 10.1 9 12.9V39c0 .4.1.7.4 1 .3.3.6.4 1 .5.4 0 .7-.1 1-.3l7.8-5.7h2c7.8 0 14.6-2.9 18.4-7.8l4.5 3c.3.2.7.3 1 .2.4 0 .7-.2.9-.5.2-.3.4-.6.4-1V23c4.3-2.2 7.5-5.9 7.5-10.4 0-3.7-2.1-6.9-5.2-9.2-3.1-2.1-7.4-3.4-12-3.4zm0 3c4.1 0 7.7 1.2 10.3 3 2.6 1.8 4 4.2 4 6.8 0 3.3-2.5 6.3-6.6 8.2-.3.1-.5.3-.6.5-.2.2-.2.5-.2.8v3.4l-4.4-2.9c-.3-.2-.5-.2-.8-.2h-1.5c-4.1 0-7.7-1.2-10.3-3-2.6-1.8-4-4.2-4-6.7s1.4-4.9 4-6.8c2.4-1.9 6-3.1 10.1-3.1zM21.4 5.7h1.1c-1.8 2-2.9 4.4-2.9 7 0 3.7 2.1 6.9 5.3 9.2 3.1 2.2 7.4 3.6 12 3.6-3.2 3.6-8.9 6-15.5 6h-2.5c-.3 0-.6.1-.9.3L12.1 36v-5.3c0-.3-.1-.6-.2-.8l-.6-.6C6.1 27 3.1 23.2 3.1 18.7c0-3.5 1.9-6.6 5.2-9 3.3-2.5 7.9-4 13.1-4z" style="fill:currentColor"/></symbol><symbol viewBox="0 0 54.3 54.2" style="enable-background:new 0 0 54.3 54.2" xml:space="preserve" id="translation" xmlns="http://www.w3.org/2000/svg"><path d="M13.6 29.1C6.1 29.1 0 34.3 0 40.7c0 1.5.4 3 1 4.4.7 1.4 1.6 2.6 2.8 3.6-.1 1.4-.7 2.8-1.6 3.9-.2.2-.3.5-.3.8 0 .3.2.5.4.7.2.2.5.2.8.1 2.1-.6 4-1.5 5.9-2.6 1.5.4 3 .7 4.5.7 7.5 0 13.6-5.2 13.6-11.6s-6-11.6-13.5-11.6zm0 21.3c-1.5 0-2.9-.2-4.3-.7-.3-.1-.6-.1-.8.1-1.1.6-2.2 1.2-3.3 1.7.3-1 .6-2 .7-3 0-.3-.1-.6-.3-.8-1.1-.8-1.9-1.9-2.5-3.1S2 42 1.9 40.7c0-5.3 5.2-9.7 11.6-9.7s11.6 4.4 11.6 9.7-5.1 9.7-11.5 9.7zm36.9-30.8c1.2-1 2.1-2.2 2.8-3.6.7-1.4 1-2.9 1-4.4C54.3 5.2 48.2 0 40.7 0S27.2 5.2 27.2 11.6s6.1 11.6 13.6 11.6c1.5 0 3-.2 4.5-.7 1.9 1.1 3.8 1.9 5.9 2.6.3.1.6 0 .8-.1.2-.2.4-.4.4-.7 0-.3-.1-.6-.3-.8-.9-1.1-1.5-2.4-1.6-3.9zm-1.3 2.8c-1.2-.5-2.3-1-3.3-1.7-.2-.1-.3-.1-.5-.1-.1 0-.2 0-.3.1-1.4.5-2.8.7-4.3.7-6.4 0-11.6-4.4-11.6-9.7S34.4 2 40.8 2s11.6 4.4 11.6 9.7c0 1.3-.3 2.7-1 3.8-.6 1.2-1.5 2.2-2.5 3.1-.2.2-.4.5-.3.8 0 1 .2 2 .6 3zM14.5 35.5c-.1-.2-.3-.4-.5-.5-.2-.1-.5-.1-.7 0-.2.1-.4.3-.5.5l-3.9 9.7c-.1.3-.1.7.1 1 .2.3.6.4.9.4.3 0 .6-.3.8-.6l.9-2.3h4.1l.9 2.3c.1.3.4.6.8.6.3 0 .7-.1.9-.4.2-.3.3-.6.1-1l-3.9-9.7zm-2.2 6.2 1.3-3.2 1.3 3.2h-2.6zm31.9-11.6c.2.2.3.4.3.7 0 .3-.1.5-.3.7-.2.2-.4.3-.7.3-.3 0-.5-.1-.7-.3l-1.1-1.1v7.4c0 1.3-.5 2.5-1.4 3.4-.9.9-2.1 1.4-3.4 1.4h-6.8c-.3 0-.7-.2-.8-.5-.2-.3-.2-.7 0-1 .2-.3.5-.5.8-.5h6.8c.8 0 1.5-.3 2.1-.9.5-.5.9-1.3.9-2.1v-7.4l-1.1 1.1c-.2.2-.6.3-.9.2-.3-.1-.6-.3-.7-.7-.1-.3 0-.7.2-.9l2.7-2.7c.2-.2.4-.3.7-.3s.5.1.7.3l2.7 2.9zm-34.1-6c-.2-.2-.3-.4-.3-.7 0-.3.1-.5.3-.7.2-.2.4-.3.7-.3.3 0 .5.1.7.3l1.1 1.1v-7.4c0-1.3.5-2.5 1.4-3.4.9-.9 2.1-1.4 3.4-1.4h6.8c.3 0 .7.2.8.5.2.3.2.7 0 1-.2.3-.5.5-.8.5h-6.8c-.8 0-1.5.3-2.1.9-.5.5-.9 1.3-.9 2.1V24l1.1-1.1c.2-.2.4-.3.7-.3.3 0 .5.1.7.3.2.2.3.4.3.7 0 .3-.1.5-.3.7L14.2 27c-.2.2-.4.3-.7.3s-.5-.1-.7-.3l-2.7-2.9zM45.6 7.7h-3.9v-1c0-.3-.2-.7-.5-.8-.3-.2-.7-.2-1 0-.3.2-.5.5-.5.8v1h-3.9c-.3 0-.7.2-.8.5-.2.3-.2.7 0 1 .2.3.5.5.8.5H37c.5 1.6 1.2 3.1 2.3 4.3-.8.7-1.8 1.2-2.8 1.5-.3.1-.5.2-.6.5-.1.2-.1.5-.1.8.1.2.3.5.5.6.2.1.5.1.8 0 1.3-.4 2.5-1.1 3.6-2 1.1.9 2.3 1.6 3.6 2 .2.1.5.1.8 0 .2-.1.4-.3.5-.6.1-.2.1-.5-.1-.8-.1-.2-.3-.4-.6-.5-1-.3-2-.9-2.8-1.5 1.1-1.3 1.8-2.8 2.3-4.3h1.2c.3 0 .7-.2.8-.5.2-.3.2-.7 0-1-.2-.3-.5-.5-.8-.5zm-4.9 4.9c-.7-.9-1.3-1.9-1.6-3h3.3c-.4 1.1-1 2.1-1.7 3z" style="fill:currentColor"/></symbol></svg>